<svg version="1" xmlns="http://www.w3.org/2000/svg" width="1200" height="1200" viewBox="0 0 900.000000 900.000000"><path d="M455 78.1c0 .8.4 3.1.9 5.2.6 2.2.5 3.9-.1 4.3-.5.4-.5 1 .1 1.7.8 1 .7 7.2-.1 16.4-.1 1.3-.6 2.3-1.1 2.3-.4 0-.5.4-.2 1 1 1.6-4.9 14.5-9.8 21.2-4.3 6-15.9 18.1-20.3 21.2-1.1.8-5.8 5-10.4 9.3-4.5 4.3-8.7 7.7-9.2 7.5-.5-.1-.7.2-.3.8.3.5-1.2 3.1-3.4 5.8-5.5 6.6-11.5 19.1-14.1 29.4-2.3 9.5-2.9 25.4-1.1 30.1.7 1.8.7 2.7.1 2.7s-.4 1 .3 2.2c.8 1.3 1.3 3 1.2 3.8 0 .8.2 1.7.6 2 1.4 1 1.4 4.5.1 4.2-.8-.1-1.1.2-.7.7.3.6 1.2.8 1.9.5 1.8-.7 3.9 4.9 2.4 6.4-.6.6-.6 1.2.3 1.7.8.6 1 .4.4-.5-.5-.8-.3-1.1.6-.8.8.3 1.4 1.1 1.4 1.9 0 .8.8 2 1.8 2.8 1 .7 1.6 1.9 1.3 2.7-.3.8-.2 1.3.2 1.1.4-.1.8 0 .8.3.1.3 2 2.5 4.2 4.9 2.3 2.5 3.8 4.9 3.5 5.4-.4.6-.1.7.6.3.7-.5 1.8 0 2.6 1 1.8 2.4 1.9 4.8.3 3.8-.7-.4-.9-.3-.5.1 1.2 1.4 3.8 1.5 3 .2-.4-.7.4-.5 1.7.5 1.4.9 2.4 2.3 2.4 3.2-.1.9.2 1.4.6 1.1 1.6-1 4.2.8 3.7 2.6-.3 1-.2 1.8.2 1.7 1.4-.5 5.1 2.4 4.5 3.4-.5.7-.2.9.8.5.9-.3 2.1 0 2.7.6.6.6 1.1.8 1.1.4s-1.8-1.9-4-3.3c-2.2-1.5-3.8-2.9-3.6-3.1.6-.6 10.5 6 10.5 7 .1.5-.3.6-.7.3-.5-.3-.9.1-.9.9s.4 1.2.8.9c.4-.2.9.4 1.1 1.3.3 1.5.5 1.4 1-.5.4-1.4.2-2-.4-1.5-.7.3-.8.1-.4-.5.4-.8 2.4.1 5.9 2.6 2.9 2 5.5 4.1 5.9 4.7.4.5.8.6.8.2 0-.5.7-.1 1.6.7.8.9 1.9 1.4 2.4 1.1.4-.3 1.1.2 1.4 1.1.3.8 1 1.3 1.5.9.5-.3 1.2-.1 1.5.4.4.5.2 1.2-.4 1.6-.5.3-1 1.2-1 1.8 0 .8.3.7.9-.2.5-.8 1.4-1 2.1-.6.9.6 1.1.4.5-.4-.4-.7.4-.5 1.9.4 1.5 1 2.6 1.3 2.6.6 0-.6-.4-1.1-1-1.1-.5 0-1-.7-1-1.6 0-1 .5-1.4 1.6-1 .9.3 1.2.2.9-.5-.4-.6-1.3-.8-2-.5-1.6.6-4.9-4-4-5.5.4-.5.1-.8-.7-.7-.7.2-1.4-.7-1.6-2-.2-1.2-.8-2-1.3-1.7-.5.4-.9-.4-.9-1.6 0-1.2-.3-1.9-.7-1.6-.8.8-5.4-5.3-4.8-6.3.3-.5-.2-1.1-1.1-1.4-1.1-.4-1.4-1.3-1.1-2.7.4-1.5 0-2.3-1.4-2.6-1.8-.5-1.9-.6-.2-1.9 1.7-1.2 1.7-1.3-.2-.9-1.5.4-2.6-.5-4.2-3.1-2.7-4.1-3.2-7.4-.9-5.5 1 .8 1.6.9 2.1.1.4-.6.1-.9-.7-.8-.7.2-1.2-.3-1-1 .1-.8-.2-1.1-.7-.8-.5.4-1.1.3-1.4-.1-.2-.5-.2-.2-.1.4.2.7-.1 1.3-.6 1.3-.6 0-1-.9-1-1.9 0-1.1-.5-2.1-1-2.3-.6-.2-1.2-1.3-1.4-2.5-.3-1.2-1-3.1-1.6-4.3-.6-1.1-.8-2.5-.5-3 1.2-1.9 1.4-5.4.5-6.6-.8-.8-.6-1.4.6-1.8 1.3-.5 1.4-.9.4-2.1-.7-.8-1.7-1.5-2.3-1.5-.6 0-.2.7.9 1.6 1.7 1.4 1.7 1.5.1 1-1-.3-1.5-.2-1.2.3.3.5.1 1.2-.4 1.5-.5.4-1.2.2-1.5-.3-.4-.5-.2-1.2.4-1.6.6-.4.7-1.2.3-1.8-.4-.7-.8-2.5-.9-4.2-.2-2.2 0-2.6.7-1.5.8 1.1.9.7.5-1.7-.3-2-.1-3.3.7-3.7.9-.3.8-.7-.3-1.5s-1.2-1.1-.2-1.1c.7 0 1.1-.4.8-.9-.3-.5.1-1.4.9-2.1.7-.6 1.3-1.7 1.1-2.3-.1-.7-.1-.9.1-.5s1.2.4 2.1.1c1.4-.4 1.5-.3.2.6-.8.6-1.5 1.6-1.5 2.3-.1.7-.7 1.2-1.4 1-.7-.1-1 .2-.7.7.5.8 1.4.8 4.5.2.2-.1-.3-.9-1-1.8-1.2-1.5-1.2-1.6.3-1 1 .3 1.7.3 1.7-.1-.3-2 .2-2.5 1.2-1.2.9 1.3 1 1.2.5-.3-.3-.9-.1-1.7.5-1.7s.7-.5.4-1.1c-.5-.6-1.1-.5-1.9.6-1 1.3-1.4 1.4-3 .2-1.1-.8-1.6-1.9-1.2-2.5.9-1.5 2.6-1.6 2.6-.1 0 .5-.4.7-1 .4-.5-.3-1-.1-1 .4 0 .6.7 1.1 1.5 1.1s1.5-.7 1.5-1.5c0-1.3.4-1.4 2.3-.5 2.1 1.1 2.1 1 .3-.4-1.1-.9-2.3-1.6-2.8-1.6-.4 0-.8-.8-.7-1.8 0-1 .3-1.2.6-.4.2.6 1 .9 1.5.6.7-.5.8-.2.3.7-.5.8-.5 1.1 0 .7.4-.4 1.4-.3 2 .2.9.7 1.6.6 2.5-.5.9-1 .9-1.5.1-1.5-.6 0-1.1.5-1.1 1.2 0 .9-.3.9-1.2 0-1-1-1-1.5.2-2.2.8-.5 1.8-.6 2.4-.3.5.3.6.1.2-.6-.4-.6-1.2-.8-1.8-.5-.7.4-.7 0 0-1.2.5-1.1.7-2.4.5-3.1-.2-.6.1-1.4.6-1.8.7-.4.8.1.4 1.2-.5 1.4 0 1.2 1.9-.7 2-1.8 2.4-2.8 1.6-3.7-1.2-1.5-1.3-1.4 2.7-1.8 1.7-.2 2.4-.1 1.8.2-.7.2-1.3.9-1.3 1.5 0 .7.4.7 1.3-.1 1-.7 1.7-.7 2.4 0 .8.8 1.3.7 1.8 0 .3-.6.1-1-.6-.9-.6.2-1.4-.3-1.7-1.1-.2-.8 0-1.1.6-.7 1.5.9 4.3-.4 3.5-1.7-.4-.6 0-.8 1-.4 2.4.9 2.1-.6-.4-2.2-1.9-1.1-2.1-1.1-1.6.1.3.8.1 2.1-.4 2.9-.8 1.2-1 1.2-1.9-.1-.5-.8-.9-2-.9-2.5 0-.6.3-.4.6.2.2.7.9 1.3 1.4 1.3.6 0 .7-.5.4-1-1.1-1.7.5-3.2 2.1-1.9 1.7 1.4 1.9-.2.2-2.1-1-1.1-.9-1.1.6 0 1.8 1.4 1.8 1.3 1.2-1-.6-1.9-.5-2.1.3-1 .6.8.8 2.2.5 3.2-.6 1.9 1.1 3.4 2.1 1.8.4-.6 1-.8 1.5-.5.4.3 1-.2 1.3-1 .4-.9.1-1.2-.8-.9-.8.3-1.9-.4-2.6-1.8-1-2-1-2.1.2-1.2 1.5 1.3 5.9 1.4 5.9.1V189c0-1.1-.5-2-1-2-1.3 0-.9 3.2.5 4.3.6.4 0 .6-1.3.4-2.5-.4-5.5-2.7-3.4-2.7.7 0 1.2.5 1.2 1.1 0 .5.4.8 1 .4.5-.3.7-1.2.4-1.9-.3-.7.2-1.9 1.1-2.6 1.1-.9 1.5-.9 1.5-.1 0 .7.5.9 1 .6.6-.4.7-1.1.4-1.7-.4-.6-.2-.8.3-.5.6.4 1.3 0 1.6-.7.3-.8 1.6-2 2.8-2.6 1.2-.7 1.9-.8 1.6-.3-.4.5 0 1 .8 1s1.2-.3 1-.7c-.6-.9 3.8-4.5 5-4.2.6.2.4-.2-.2-.9-1.8-1.8-1.6-2.9.5-2.3 1.6.5 1.6.5-.1-.6-2.2-1.4-3.7-.5-3.2 2 .5 2.7-.8 3.3-2.3 1-1-1.6-.9-1.8.5-1.3 1 .4 1.4.2.9-.5-.3-.6-.2-1.3.4-1.7.6-.4.7-1.1.4-1.7-.4-.6-.3-.8.3-.5 2.2 1.4 6 1.5 6.1.1.1-.8.3-2.1.4-2.9.1-1 .8-1.3 2.2-1 1.9.5 1.9.5.3-.5-2-1.3-4.1-.4-3.1 1.2.5.7.2.8-.6.3s-1.1-.4-.7.1c.3.6.1 1.6-.5 2.4-.8 1.2-.9 1.2-.4-.3.4-1.2 0-1.7-1.2-1.7s-1-.4.7-1.3c1.4-.6 2.7-1.9 2.9-2.7.5-1.3.3-1.3-1.3 0-1.3 1-1 .2.8-2.8 1.5-2.3 2.4-4.2 2.1-4.2-.4 0 0-.8.9-1.8 1-1 1.4-2.2 1-2.6-.4-.4.1-.4 1.1 0 1.4.5 1.5.9.4 1.6-1 .8-1 .9.2.6 2-.6 2-6.7 0-7.8-.8-.5-1-1-.4-1 .7 0 1-1.8.9-4.5-.1-2.8.4-5 1.2-5.6.7-.6 1.3-1.6 1.3-2.1 0-.7-.4-.7-1.2 0-1 .8-1.3.1-1.2-3.3.2-5 1-6.8 2.7-5.9.7.4.8.3.4-.1-1-1.2-3.9-1.6-3.2-.5.3.5.1 1.1-.4 1.5-.6.3-.8-.3-.6-1.4.2-1-.3-3-1-4.4-1-1.9-1-2.8-.1-3.8.8-.9.8-1-.3-.4s-1.3.4-.8-.8c.3-1 .2-1.7-.3-1.7s-1.4-1-2.1-2.1c-.6-1.2-.7-1.9-.1-1.5.6.4.8-.3.4-1.6-.3-1.3-.7-1.7-1-1-.2.8-1 .3-1.8-1.4-1.2-2.2-1.2-2.9-.2-3.6.9-.6.7-.8-.7-.6-1.2.2-2.1-.4-2.3-1.6-.3-1.3 0-1.6.9-1.1.7.5 1 .4.5-.3-.4-.6-1.3-.9-2.1-.5-1 .3-1.5-.1-1.5-1.2 0-.9-.4-1.3-1-1-.5.3-1-.3-1-1.4 0-1.2-.3-2-.7-1.9-.5.2-.8-.1-.8-.6s-1.1-1.3-2.4-1.7c-1.5-.6-2.1-1.4-1.7-2.5.3-.8.2-1.3-.2-1.1-1 .7-3.2-1.9-2.4-2.7.3-.4-.1-.4-1.1 0-1.2.4-1.7.1-1.7-1 0-.9-.6-1.5-1.2-1.4-.7.2-1.1-.4-1-1.2.2-.8 0-1.2-.4-.7-.4.4-1.6 0-2.6-1-1.4-1.3-1.8-1.3-1.8-.2zm33.2 70.6c-1 .4-1 .8 0 2.1 1.2 1.5 1.1 1.6-.4.3-1.9-1.4-1.5-3.2.5-3 .8 0 .8.2-.1.6zM474.5 179c-.3.5-1.5.5-2.8.2-1.8-.5-1.9-.7-.4-1 1-.2 1.4-.8 1-1.5-.4-.7 0-.6 1 .2.9.7 1.5 1.7 1.2 2.1zm-5.5 1.4c0 .2-.8 1-1.7 1.7-1.6 1.3-1.7 1.2-.4-.4 1.3-1.6 2.1-2.1 2.1-1.3zm-9 15c0 .3-.4.8-1 1.1-.5.3-1 .1-1-.4 0-.6.5-1.1 1-1.1.6 0 1 .2 1 .4zm-11 4.6c0 .5-.5 1-1.1 1-.5 0-.7-.5-.4-1 .3-.6.8-1 1.1-1 .2 0 .4.4.4 1zm-11.9 11.9c-.6 1-.7 2.1-.4 2.5.3.3.1.6-.5.6-.7 0-1.2-.3-1.2-.6 0-.9 2-4.4 2.6-4.4.2 0 0 .8-.5 1.9zm-8.4 39.1c-.1 1.1-.4 2-.8 2s-.9-.9-1.2-2c-.3-1.3 0-2 .8-2s1.3.9 1.2 2zM486 111.4c0 .2.8 1 1.8 1.7 1.5 1.3 1.6 1.2.3-.4s-2.1-2.1-2.1-1.3z"/><path d="M487.5 117c-.3.5 0 1.9.8 3 1.2 1.8 1.5 1.8 2 .6.4-.9.1-1.5-.6-1.3-.7.1-1.1-.6-1.1-1.6.2-1.9-.2-2.2-1.1-.7zM490 129.9c0 .6.4 1.3 1 1.6.6.3.7-.1.4-.9-.7-1.8-1.4-2.1-1.4-.7zM489.6 136.9c-.5.7-.3 1.8.3 2.4.6.6 1.1.7 1.1.1 0-.5.5-.2 1 .6.7 1.2.9 1 .7-.7 0-1.2-.4-2-.8-1.7-.4.2-.9-.1-1.1-.8-.3-.9-.6-.9-1.2.1zM489.9 141.8c-.6 3.4-.4 5.2.7 5.6.9.3 1.1 0 .7-1.1-.5-1.2-.3-1.4.7-.8.9.5 1.1.4.6-.4-.4-.6-1.2-.9-1.7-.6-.5.4-.9.2-.9-.4 0-.5.8-1.1 1.8-1.3 1.6-.3 1.6-.4 0-1-1-.4-1.9-.4-1.9 0zM485.9 155.5c-.1.3-.2.8-.3 1.2-.1.5-.7 1.8-1.4 3.1-1.6 2.8-.6 4.8 1.4 3.1.9-.7 1.2-2 .8-3.2-.4-1.4-.3-1.7.6-1.2.8.5 1.1.4.6-.3-.3-.5-.1-1.2.6-1.4.8-.3.6-.7-.5-1.1-.9-.3-1.8-.4-1.8-.2zm-.8 6.8c-1 .9-1.1.8-.5-.6.3-1 .9-1.5 1.2-1.2.3.3 0 1.1-.7 1.8zM489.1 159.6c0 1.1.3 1.4.6.6.3-.7.2-1.6-.1-1.9-.3-.4-.6.2-.5 1.3zM493.2 176.2c-.2 2.4-.5 5.1-.8 6-.3.9-.6 2.5-.8 3.5-1.1 5.7-4.5 10.3-15.7 21.5-10.1 10.1-12.8 13.4-15.6 19.4-1.9 3.9-3.5 8.2-3.6 9.5-.1 1.3-.8 3-1.7 3.7-.9.9-1 1.1-.1.6 1.1-.5 1.3 0 .9 2.5-.3 1.8-.1 3.4.4 3.7.5.3.3 1.3-.4 2.2-.7.9-.8 1.3-.2.9.7-.4 1.6 1 2.3 3.4.7 2.3 1.5 4.8 1.8 5.7.5 1.1.3 1.3-.7.7-.9-.5-1.1-.4-.6.4.4.6 1.2.9 1.7.6.5-.4 1.4.5 2.1 1.9.6 1.4 1.6 2.6 2.2 2.6.6 0 .4.5-.4 1-1.3.8-1.3 1 .1 1 .9 0 2.4.9 3.4 2 1.5 1.7 1.6 2.2.4 3.6-1.3 1.6-1.2 1.6.9.5 1.8-1 2.2-.9 2.2.4 0 .8.7 1.5 1.5 1.5s1.5.5 1.5 1.1c0 .5.4.8.9.5.5-.3 1.5.1 2.2 1 .7.9 4.1 3.6 7.6 6.1 3.5 2.5 6.3 5.2 6.3 6.1.1 1.6.2 1.5 1.4 0 .7-1 1.6-1.5 1.9-1.2.3.3 1-.3 1.6-1.3.7-1.5.7-2-.4-2-.7 0-1.1.6-.8 1.4.3.8 0 1.1-.9.8-.7-.3-1.4-1.4-1.4-2.5 0-1 .5-1.6 1.1-1.4.5.3.3 0-.6-.8-2.9-2.4-4.9-7.4-3.6-8.7.9-1 .8-1.1-.5-.6-2.1.8-2.6-2-.5-2.9.6-.3.2-.3-1 0-1.3.3-2.4.1-2.4-.5-.1-.6-.3-1.4-.4-1.9-.2-.4-.6-1.7-1-3-.4-1.2-1.2-2.2-1.7-2.2s-.6-.5-.3-1c.4-.6 1-.8 1.5-.5.4.3 1.4-.3 2.1-1.2 1.2-1.5 1.2-1.6-.1-.8-3.5 2.2-4.6 1.2-4.2-3.8.1-1-.2-1.6-.6-1.3-.4.2-.8-.6-.8-1.9 0-1.3.4-2.1 1-1.8.5.4.7-.1.3-1.1-.5-1.1-.3-1.5.5-1s.9.2.5-1c-.9-2.3 0-3.7 1.8-3 .8.4 1.2 1.1.9 1.6-.4.7-.9.6-1.4-.1-.3-.7-.7.2-.7 1.9 0 1.6.4 3 .9 3 .4 0 .7-.3.7-.8-.1-.4-.1-1.4 0-2.2.1-1.3.3-1.3 1 0 .6.8.7 1.8.4 2.4-.3.5-.1.6.5.2.9-.5.9-1.3.2-2.7-.8-1.4-.7-1.9.2-1.9.6 0 .4-.6-.6-1.3-1.7-1.2-1.7-1.4.1-2.8 1.6-1.2 1.7-1.2.6.2-1 1.3-1 1.6.2 1.6.8 0 1.2-.4.9-.8-.2-.4.5-1 1.6-1.4 1.1-.3 2-1.1 2-1.6 0-.6.6-.7 1.3-.3.9.6.9.5 0-.7s-1-1.8-.1-2.7c.8-.8.8-1.6-.3-2.9-.7-1 0-.7 1.5.7 1.6 1.4 2.6 2 2.2 1.3-.3-.7.2-1.4 1.4-1.8 1.1-.4 1.7-1.1 1.4-1.7-.5-.8-.1-.9 1.1-.4 1.4.5 1.6.4.6-.7-.9-1.1-.7-1.7.6-2.8 1.5-1.2 1.6-1.2 1 .6l-.7 2 1.6-2c.8-1.1 2-1.9 2.6-1.7.8.2.8-.1 0-1.1-.9-1-.6-1.8 1.1-3.2 1.2-1.1 2.5-1.9 2.9-1.8.3.1.9-.4 1.2-1.3.4-1.1.2-1.2-1.3-.5-1 .6-2.2.7-2.6.3-.5-.4-.5-.1 0 .7.6 1 .4 1.2-.5.6-.8-.5-1.1-.4-.7.3.5.6-.1.8-1.4.5-1.9-.5-1.7-.8 1.3-2.2 2.2-1 3.3-2.1 3-3-.3-1 0-1.1.9-.5 2 1.2 3.9 1.4 3.9.3 0-.6-.6-.9-1.2-.8-.7.1-2.4-.3-3.8-.9-1.9-.8-2.1-1.1-.7-1.1 1-.1 1.6-.5 1.3-1-.3-.5.1-1.2.9-1.5 1.3-.4 1.4-.2.5 1.4-.7 1.4-.7 2 0 2 1 0 1.4-1.8 1.1-5.5-.2-1.7 0-1.7.8-.5.7.9 1.1 1 1.1.3 0-.6-.5-1.5-1-1.8-.6-.4-.7-1.1-.4-1.7.4-.7.2-.8-.5-.4-.6.4-.9 1.1-.6 1.5.2.5-.2 1.7-1.1 2.7-1.4 1.8-1.5 1.8-.4-.4.6-1.2.8-2.2.4-2.2-.3 0-.2-.6.3-1.3.9-1.2.9-5.2-.1-9.4-.2-1.3-.1-2.5.4-2.8 1.3-.8.5-3.8-1.1-4.3-.8-.2-1 0-.4.5.6.4 1.1 1.5 1.3 2.3.1 1-.2.9-1.3-.4-.8-1.1-1.5-2.8-1.5-3.8s-.4-1.8-1-1.8c-.5 0-1-.5-1-1.1 0-.6-.7-1.7-1.5-2.6-.8-.8-1.2-1.9-.9-2.5.4-.6.2-.8-.3-.5-1.3.8-4.6-2.7-3.6-3.8.5-.4.3-.5-.3-.2-.7.4-1.7 0-2.4-.8-2-2.4-2.6-1.8-2.8 2.7zm13.8 39.6c0 .4-1 1.3-2.2 2.1-2.3 1.4-2.3 1.4-.4-.8 2-2.2 2.6-2.5 2.6-1.3zm-3 7.7c-.4.5-.9 1.4-.9 1.9 0 .6-.7 1.1-1.6 1.2-1.8.3-3.9 2.4-4.3 4.4-.4 1.5-2.3 3.2-3 2.6-.8-.9-1-4.6-.1-4.1.5.4.7 1.1.4 1.6-.4.5-.2.9.3.9 1.7 0 2.2-1.3.9-2.8-.7-1-.8-1.3-.1-.9 1.5.9 3.8-1.9 2.8-3.4-.4-.8-.3-.9.5-.5.6.4 1.4.1 1.7-.8.3-.8 1.4-1.4 2.4-1.3 1.2.1 1.6.5 1 1.2zm-12.5 11.4c.3.5.1 1.2-.5 1.6-.6.4-.8 1-.5 1.5.8 1.2-1.5 2.4-5 2.6l-2.9.2 2.4-1.3c1.3-.7 3.1-1.1 3.9-.8 1.1.3.9-.1-.4-1.3-1.6-1.3-1.7-1.6-.3-1.1 2 .7 3.5-.9 1.6-1.6-.9-.4-1-.6-.1-.6.6-.1 1.4.3 1.8.8z"/><path d="M501.1 224.3c-.8 1-.7 1.4.2 1.4.8 0 1.4-.6 1.4-1.4 0-.7-.1-1.3-.2-1.3-.2 0-.8.6-1.4 1.3zM468.5 184.6c-1.1 1.6-2 3.5-2.1 4.1-.3 1.9 1.6 2.7 2.9 1.4.9-.9.7-1-.8-.5-1.7.6-1.8.5-.8-.7.6-.8 1.1-1.8 1.1-2.4 0-.5.6-1.1 1.3-1.4.6-.2.9.1.5.7-.7 1.2 2 1 3.1-.3.4-.4.2-.5-.5-.1-.7.5-1.5-.1-2-1.4-.8-2.2-.9-2.2-2.7.6zM508.7 186.1c.7.7 1.5 1 1.8.7.3-.3-.2-.9-1.2-1.2-1.4-.6-1.5-.5-.6.5zM510.6 194.7c-.6 1.4-.5 1.5.5.6.7-.7 1-1.5.7-1.8-.3-.3-.9.2-1.2 1.2zM511.3 201c.1 1.1.5 2 .9 2s.8.6.8 1.4c0 .8.5 1.8 1.1 2.1.5.4.3-.9-.5-2.8-.8-2-1.2-3.8-.8-4.1.3-.3 0-.6-.6-.6s-1 .9-.9 2zM444.8 204.2c.9.9.8 1.6-.5 3-1 1.1-1.1 1.8-.5 1.8.7 0 1.2-.5 1.2-1.1 0-.5.4-.8.9-.5.4.3 1.7-.1 2.7-.9 1.6-1.3 1.6-1.4.2-.9-1.1.4-2 0-2.4-1-.3-.9-1.1-1.6-1.7-1.6-.7 0-.7.4.1 1.2zM445.3 210.6c-.3.8-.2 1.9.3 2.4s.9-.1.9-1.6c0-2.8-.3-3-1.2-.8zM440.6 210.8c-.2.4.2 1.5.9 2.5 1.1 1.6 1.3 1.5 1.3-.8 0-2.4-1.2-3.3-2.2-1.7zM428.5 231.1c.4.5.2 1.6-.5 2.4-.7.9-.8 1.5 0 2 .7.4.6 1.3-.2 2.8-1.7 3.1-2 5.3-.6 3.9.9-.9 1.6-.8 2.7.1 1.2 1 1.3.9.6-.3-1.2-1.9-1.4-9-.3-9 1.4 0 .9-1.8-.8-2.4-.9-.3-1.2-.2-.9.5z"/><path d="M431 235c0 .5.5 1 1.1 1 .5 0 .7-.5.4-1-.3-.6-.8-1-1.1-1-.2 0-.4.4-.4 1zM497.5 235.1c-.4.6-.5 1.2-.2 1.5.2.3.7-.2 1-1.1.7-1.7.1-2-.8-.4zM480.7 251.7c-.3.5.5 1.3 1.7 1.9 1.8.8 2.3.8 2.3-.3 0-.7-.3-1.1-.5-.8-.3.3-1.1 0-1.8-.6-.7-.5-1.4-.6-1.7-.2zM389.6 253.7c-.6 1.4-.5 1.5.5.6.7-.7 1-1.5.7-1.8-.3-.3-.9.2-1.2 1.2zM429.5 255.1c-.4.6-.5 1.2-.2 1.5.2.3.7-.2 1-1.1.7-1.7.1-2-.8-.4zM481.7 256.5c-.6 1.5 1 3.2 2 2.1.4-.3.1-.6-.5-.6s-.9-.7-.6-1.5c.4-.8.4-1.5.1-1.5-.3 0-.7.7-1 1.5zM430.6 257.8c-.2.4.4.8 1.4.8 1 0 1.6-.4 1.4-.8-.3-.4-.9-.8-1.4-.8-.5 0-1.1.4-1.4.8zM431.5 263c.3.5.8 1 1.1 1 .2 0 .4-.5.4-1 0-.6-.5-1-1.1-1-.5 0-.7.4-.4 1zM484.6 264.5c.4.8.8 1.5 1 1.5.2 0 .4-.7.4-1.5s-.4-1.5-1-1.5c-.5 0-.7.7-.4 1.5zM485.5 268c-.3.5-.1 1 .4 1 .6 0 1.1-.5 1.1-1 0-.6-.2-1-.4-1-.3 0-.8.4-1.1 1zM465.6 269.8c-.3.5.1.9.9.9s1.2-.4.9-.9c-.3-.4-.7-.8-.9-.8-.2 0-.6.4-.9.8zM489.8 276.8c.4 1 .7 1.2 1 .4.2-.7.9-.9 1.5-.5.7.3.8.2.4-.2-1.4-1.6-3.6-1.4-2.9.3zM471.5 278c-.3.5-.1 1 .4 1 .6 0 1.1-.5 1.1-1 0-.6-.2-1-.4-1-.3 0-.8.4-1.1 1zM475 277.6c0 .3 1.1 1.5 2.5 2.6s2.3 2.4 2 2.9c-.4.5.2.6 1.1.2 1-.4 1.5-.2 1.1.4-.3.5 0 1 .8 1s1.5-.1 1.5-.2c0 0-2-1.8-4.5-3.8-2.5-2.1-4.5-3.5-4.5-3.1zM407.6 278.8c-.3.5.1.9.9.9s1.2-.4.9-.9c-.3-.4-.7-.8-.9-.8-.2 0-.6.4-.9.8zM491.5 280c.3.5.8 1 1.1 1 .2 0 .4-.5.4-1 0-.6-.5-1-1.1-1-.5 0-.7.4-.4 1zM413 286c0 .5.5 1 1.1 1 .5 0 .7-.5.4-1-.3-.6-.8-1-1.1-1-.2 0-.4.4-.4 1zM484 286.2c-1.2.8-1.2.9.3.4 1.4-.4 1.6-.1 1.3 2-.3 1.5-.2 2.4.1 2 1-1 1.4-4.4.5-5-.4-.3-1.4 0-2.2.6zM488.3 288.5c0 .8.4 1.2.9.9.5-.3.6-1 .3-1.5-.9-1.3-1.2-1.1-1.2.6zM448.1 289.9c-.8.5-.9 1.1-.3 1.5.5.3 1.2-.1 1.6-.9.6-1.7.6-1.8-1.3-.6zM437.2 300.2c1 .9 1.5 1.8 1.1 2.1-.5.2-.3.2.4.1 1.2-.3 2.8 1.3 2.8 2.8 0 .3.4 1 .9 1.5s.6.3.2-.5c-.4-.6-.2-1.2.4-1.2.6 0-.1-1-1.7-2.3-3.7-3-6.4-4.6-4.1-2.5zM457.6 304.2c.3.5 1 .6 1.5.3 1.3-.9 1.1-1.2-.6-1.2-.8 0-1.2.4-.9.9zM446.3 307.5c0 .7.6 1.1 1.4.8.7-.3 1.3-.6 1.3-.8 0-.2-.6-.5-1.3-.8-.8-.3-1.4.1-1.4.8zM449.5 309.1c-.4.6-.5 1.2-.2 1.5.2.3.7-.2 1-1.1.7-1.7.1-2-.8-.4zM162.2 364.8l-6.4.3 2.4 3.2c3.7 4.9 4.3 6.1 2.7 5.3-.8-.4-.6-.1.4.7 1.9 1.6 2.4 4.2.5 3.1-.8-.4-1-.3-.5.2s1.4.9 2 .9c.7 0 1.1.8 1.1 1.8-.1.9.2 1.4.7 1.1.5-.3.9.3.9 1.3s1.2 3.8 2.5 6.2c1.4 2.4 2.6 5.4 2.7 6.7.1 1.2.6 2.1 1 1.8.4-.3 1.2.4 1.8 1.5 1.5 2.8 6.2 7.5 7.8 7.7.8.2 1.9 1 2.6 2 .8 1.1 1.8 1.4 2.6.9.8-.5 1.1-.4.7.2-.4.6.3 1.3 1.4 1.6 1.5.4 2 1.1 1.5 2.3-.5 1.3-.4 1.4.7.6 1-.9 1.7-.8 2.7.1 1.2 1 1.2.9.2-.4-.6-.9-.9-1.9-.5-2.3.4-.4.1-.5-.7-.3-.8.2-1.2.2-.7 0 .4-.3.4-1 0-1.6-.5-.8-.2-.8.9 0 .8.7 1.8 1 2.2.6.4-.4 1.8-.8 3.1-.9 2-.1 2.2.2 1.2 1.7-.6 1-1.4 1.5-1.7 1.1-.8-1.1-3-1.3-3-.3 0 1.3 3.7 2 4.7 1 .6-.6 1-.4 1 .6 0 .8-.5 1.5-1 1.5s-.5.6.2 1.3c.8 1 .7 1.7-.2 2.7-.8.9-.8 1.1 0 .6 1.3-.7 1.3 5.1-.1 7.3-.6.9-.5 1.2.1.8.6-.4 1 .8 1.1 2.8.1 2.2-.3 3.5-1.1 3.5-.7 0-.8.3-.2.8 1.4 1 1.5 5.6.1 6.4-.7.5-.6.8.4.8 1.3 0 1.3.1 0 1-.8.5-1 1-.4 1 .7 0 1.1 1.8 1 4.5 0 3-.5 4.5-1.4 4.5-.8 0-1-.5-.6-1.3.6-.9.4-.9-.7-.1-1.6 1.2-19.7 1.3-21.6.1-.7-.5-1.3-.5-1.3 0 0 .4-5.7.8-12.8.9-14.8.1-22.2.8-25.1 2.4-1.2.6-2.6.8-3.1.5-.6-.3-1-.2-1 .3 0 .6-2.9 2.5-6.5 4.3-5.3 2.8-6.5 3.9-6.6 5.9-.4 15.7 0 20.2 2 22.1 1.2 1.1 2.1 1.7 2.1 1.4 0-.3 1.2.2 2.7 1.2 1.4.9 3.2 1.8 3.9 1.9.8.1 2.1.9 3 1.8.8.9 2 1.3 2.6 1 .7-.4.8-.2.4.5-.6.9-1.4.8-3.4-.4l-2.7-1.6 2.2 1.9c1.2 1.1 1.9 2.3 1.5 2.8-.4.5 0 .3.9-.4 2.2-1.7 5.3-2.2 6.8-1.3 1 .6.9 1-.4 1.4-.9.4-1.4.3-1.1-.1.3-.5-.1-.9-.8-.9-1.1 0-1.2.4-.3 1.8.8 1.3 1.3 1.5 1.9.6.6-.9 1.3-.9 3 .2 2.1 1.3 2.2 1.3 1-.2-1-1.2-1-1.7-.1-2.3.7-.4 1-.3.7.2-.3.5.1 1.6 1 2.3 1.4 1.3 1.5 1.2.9-.8-.4-1.8-.3-2 .9-1 1.1.9 1.4.8 1.4-.2 0-1.2.2-1.2.9 0 .6.9 1 1 1.6.2.5-.9 1-.9 2.1 0 .8.6 1.4.8 1.4.4s.7-.2 1.5.5 1.5.8 1.5.3c0-1.1 4.2-.9 5.9.2.6.3 1.4-.1 1.7-1 .4-1 1-1.2 1.8-.6.6.5 2.8.8 4.8.7 2.7-.2 3.5 0 2.9.8-.6.7-3 1.1-5.5 1.1-2.5-.1-4.2.3-4 .7.3.5 1.5.6 2.7.2 1.9-.6 2-.5.9.9-.9 1-1 1.7-.2 2.2.6.4.9.1.8-.7-.2-.7.3-1.2 1-1 .8.1 1.1-.2.8-.7-.8-1.3 3.5-1 5.3.3 1.1.8 1.3.8.8 0-.4-.7.3-1.2 1.8-1.2 2 0 2.3.3 1.5 1.3-.8.9-.8 1.5 0 2 .6.4.9.1.8-.6-.2-.9 1.1-1.3 4.5-1.2 2.6 0 4.5-.2 4.2-.5-.3-.3.1-1.2.8-2.1 1-1.4 1-1.4-.5-.3-.9.7-1.8.9-2 .5-.3-.4-.3-.2-.2.4.2.7-.3 1.3-1.1 1.3-.9 0-1.2-.6-.8-1.8.5-1.4.3-1.3-1 .3-1.3 1.7-1.8 1.8-2.9.6-1.1-1.2-1-1.3.5-.8 1.6.6 2.2-.4 1.8-2.7-.1-.5.4-.5 1.1 0 .7.6 2.2 1 3.3.9 1.1 0 2.9.4 3.9.8 1.5.7 1.8.6 1.3-.6-.6-1.6 1.6-1.8 3-.2.4.4.3.5-.3.2-.7-.4-1.5 0-1.8.9-.3.8-1 1.3-1.5.9-.5-.3-1.3 0-1.7.6-.4.8-.3.9.4.5s1.2-.2 1.2.4c0 1.1 1 .5 5.1-3.3 1.9-1.7 1.9-1.7 1.5.8-.3 1.4 0 2.5.5 2.5.6 0 .6.8-.1 2-.8 1.5-.8 2 .1 2s.9.3 0 1.4c-.9 1-.9 1.6-.1 2.1s.8 1.1-.1 2.1c-.6.8-.7 1.4-.2 1.4 1.3 0 1.1 6.3-.2 7.2-.7.5-.6.8 0 .8 1.2 0 1.4 17.8.2 19.6-.3.6-.3 1.4.1 1.8 1.2 1.2 1.2 7.7 0 7-.7-.5-.8-.2-.2.7 1.3 2.1 1.3 12.9 0 12.9-.7 0-.8.3-.1.8.6.4 1 1.4 1 2.2 0 .8-.4 1.8-1 2.2-.7.5-.6.8.1.8 1.3 0 1.3 7-.1 7-.6 0-.6.3.1.8 1.3.9 1.3 6.4-.1 7.4-.7.5-.6.8.1.8 1.1 0 1.3 8.8.2 10.6-.4.6-.4 1.4-.1 1.8 1 1 1 6.8.1 8.8-.4.9-.4 1.9 0 2.2 1.1.6 1 13.7-.1 15.3-.5.7-.4 1.3.1 1.3.8 0 1.3 5.1 1.6 15.2.1 2 .4 3.4.9 3.1.4-.2.7.7.7 2.1 0 1.4.4 3.5.9 4.8.5 1.3 1.9 4.6 3 7.5 2.4 6 2.5 6.7.9 5.7-.7-.4-.8-.3-.4.5.4.6 1.2.8 1.8.5.8-.5.9-.1.5 1-.4 1-.3 1.5.3 1.1 1.1-.7 3.2 2.9 2.3 3.9-.3.3 0 .6.8.6s2.3 1.2 3.3 2.7c1.1 1.4 1.4 2.3.8 1.9-2.9-1.8-.8.4 2.6 2.7 2 1.4 5.2 3.9 7 5.6 1.8 1.7 3.8 3.1 4.3 3.1.6 0 .7.5.3 1.2-.5.8-.2.9.9.5s2.5.2 3.8 1.6c1.2 1.2 1.8 1.5 1.3.7-.6-1.2-.2-1.1 1.9.3 1.5 1 3.2 1.5 3.7 1.2.6-.3.7.1.4.9-.3.9-1 1.6-1.5 1.6s-.9.4-.9.8c0 1.1 4.7.9 5.7-.2.4-.5.3-.6-.4-.2-1.3.7-2.8-1-1.4-1.8.4-.3 1.6.3 2.6 1.4 1 1.2 1.3 2 .7 2-.7 0-1.2.4-1.2 1 0 .5.3.9.8.8.4-.1 1.7.3 3 1 1.6.9 2.2 1 2 .1-.2-.6.3-1.4 1.1-1.7.8-.3 1.1 0 .7.7-.5.7-.1.9 1 .4 1.3-.5 1.5-.3.9.8-.8 1.2-.6 1.2.8 0 1.4-1.1 2-1.1 3.2-.1.8.7 2.3.9 3.2.5 1.7-.6 1.7-.7 0-1.6-.9-.6-2.2-.7-2.7-.4-.6.3-.7-.1-.4-.9.4-1.1 1.1-1.3 2.2-.7 1 .4 3.2.7 4.9.5 1.8-.1 3.5.2 3.9.7.3.5 1.1.6 1.7.2 1.7-1 9.7-1.2 10.3-.2.3.5 1.4.4 2.6-.2 1.5-.8 1.9-.8 1.4 0-.4.6-.2 1.1.5 1.1.8 0 .8.4-.1 1.5-.7.9-.8 1.5-.2 1.5 1.3 0 2.4-2.9 1.5-4.3-.3-.6.4-.3 1.8.6 3 2.2 4.5 2.2 2.8 0-1.2-1.5-1.2-1.6.1-.8 2.4 1.5 6.3 1.8 5.4.4-.5-.8-.3-.9.7-.3 2 1.2 3.8 1.4 4.5.3.3-.6 1.1-.5 2 .2 1.1.9 1.8.9 2.6.1s1.7-.8 3-.1c1 .5 1.8.7 1.8.4 0-.3 1.4.1 3 1 2.9 1.5 3.6 1.1 3.1-1.8-.1-.5.4-.5 1.1 0 1.9 1.2 8.8 1.2 8.8 0 0-.6.2-.8.5-.5.3.3.2 1.3-.1 2.2-.5 1.4-.9 1.5-1.5.4-.6-.9-.9-.9-.9-.1 0 2.3 2.2 2.5 3.6.4.8-1.2 2-2.1 2.6-2.1.7 0 .4.6-.7 1.3-1.3 1-1.5 1.6-.6 2.1.6.4.9 1.2.5 1.7-.3.5-1 .6-1.6.3-.7-.4-.8-.2-.4.5.6.9 1.1.9 2.2 0 .8-.6 3.1-1.2 5.1-1.3 2.1-.1 3.8-.7 4.1-1.5.3-1 0-1.2-1.1-.8-.9.3-1.8.3-2-.1-.2-.4-.2-.1-.1.5.2.7-.3 1.3-1.1 1.3-.9 0-1.2-.6-.8-1.8.5-1.4.3-1.3-1 .3-1.3 1.7-1.8 1.8-2.9.6-1.1-1.2-1-1.3.5-.8 1.6.6 2.2-.3 1.8-2.6-.1-.5.4-.5 1.1 0 1.9 1.2 8.8 1.2 8.8 0 0-.6.2-.8.5-.5.3.3.2 1.3-.1 2.2-.5 1.4-.9 1.5-1.5.4-.6-.9-.9-.9-.9-.1 0 2.3 2.2 2.5 3.6.4.8-1.2 2-2.1 2.6-2.1.7 0 .4.6-.7 1.3-1.3 1-1.5 1.6-.6 2.1.6.4.9 1.2.5 1.7-.3.5-1 .6-1.6.3-.7-.4-.8-.2-.4.5.6.9 1.1.9 2.2 0 .8-.6 3.1-1.2 5.1-1.3 2.1-.1 3.8-.7 4.1-1.5.3-1 0-1.2-1.1-.8-.9.3-1.8.3-2-.1-.2-.4-.2-.1-.1.5.2.7-.3 1.3-1.1 1.3-.9 0-1.2-.6-.8-1.8.5-1.4.3-1.3-1 .3-1.3 1.7-1.8 1.8-2.9.6-1.1-1.2-1-1.3.5-.8 1.6.6 2.2-.3 1.8-2.6-.1-.5.4-.5 1.1 0 1.9 1.2 8.8 1.2 8.8 0 0-.6.2-.8.5-.5.3.3.2 1.3-.1 2.2-.5 1.4-.9 1.5-1.5.4-.6-.9-.9-.9-.9-.1 0 2.3 2.2 2.5 3.6.4.8-1.2 2-2.1 2.6-2.1.7 0 .4.6-.7 1.3-1.3 1-1.5 1.6-.6 2.1.6.4.9 1.2.5 1.7-.3.5-1 .6-1.6.3-.7-.4-.8-.2-.4.5.6.9 1.1.9 2.2 0 .8-.6 3.1-1.2 5.1-1.3 2.1-.1 3.8-.7 4.1-1.5.3-1 0-1.2-1.1-.8-.9.3-1.8.3-2-.1-.2-.4-.2-.1-.1.5.2.7-.3 1.3-1.1 1.3-.9 0-1.2-.6-.8-1.8.5-1.4.3-1.3-1 .3-1.3 1.7-1.8 1.8-2.9.6-1.1-1.2-1-1.3.5-.8 1.6.6 2.2-.3 1.8-2.6-.1-.5.4-.5 1.1 0 1.9 1.2 8.8 1.2 8.8 0 0-.6.2-.8.5-.5.3.3.2 1.3-.1 2.2-.5 1.4-.9 1.5-1.5.4-.6-.9-.9-.9-.9-.1 0 2.2 2.2 2.5 3.6.5 1.1-1.7 2.2-2 5-1.6 2.5.3 3.3.1 2.8-.8-.5-.7-.3-.8.7-.2 2 1.2 3.8 1.4 4.5.3.3-.6 1.1-.5 2 .2 1 .8 1.8.9 2.7 0 .8-.6 1.6-.8 1.9-.6.3.3 1.6.8 2.8 1 1.3.3 2.8.9 3.4 1.5.8.8.7 1.1-.4.8-.8-.2-1.9-.8-2.3-1.3-.5-.6-.7-.5-.5.3.2.8.7 1.3 1.2 1.2.5-.1 1.3.4 1.7 1.2.7 1 .9 1 .9 0 0-.7.5-1 1-.7.6.4.8 1 .5 1.5-.3.5-.1 1.2.5 1.5.6.4.9.1.8-.7-.2-.7.3-1.2 1-1 .8.1 1.1-.2.7-.8-1.1-1.8 3.5-.4 5.1 1.6 1.5 1.9 1.5 1.9.6-.1-.6-1.1-1-2.3-1.1-2.8-.1-.6-.6-.9-1.3-.6-.2 0-1.7.2-3.4.3-2.3.2-3.5-.3-4.4-1.8-1.1-1.8-1.1-1.9.1-1 1.9 1.4 6.1 1.6 5.3.2-.5-.7-.2-.8.7-.2 2 1.2 3.8 1.4 4.5.3.3-.6 1.1-.5 2 .2 1 .8 1.8.9 2.7 0 .8-.6 1.6-.8 1.9-.6.3.3 1.6.8 2.8 1 1.3.3 2.8.9 3.4 1.5.8.8.7 1.1-.4.8-.8-.2-1.9-.8-2.3-1.3-.5-.6-.7-.5-.5.3.2.8.7 1.3 1.2 1.2.5-.1 1.3.4 1.7 1.2.7 1 .9 1 .9 0 0-.7.5-1 1-.7.6.4.8 1 .5 1.5-.3.5-.1 1.2.5 1.5.6.4.9.1.8-.7-.2-.7.3-1.2 1-1 .8.1 1.1-.2.8-.7-.8-1.3 5.7-.9 6.6.4.5.6.8.5.8-.3 0-.6.7-1.2 1.6-1.2 1.3 0 1.4.3.5 1.4-.9 1.1-.9 1.6 0 2.2.7.4.9.3.6-.3-.4-.6 0-1.6.8-2.3 1.4-1.2 2-.7 1.6 1.4-.1.5.4.4 1.2-.2.8-.7 1.8-.8 2.2-.4.5.4.5.1.1-.6-1.2-2 3.2-.8 5 1.4 1.5 1.9 1.5 1.9.6-.1-.6-1.1-1-2.3-1.1-2.8-.1-.6-.6-.9-1.3-.6-2 .6-6.8.3-6.8-.5 0-.6-.5-.4-1 .4-.7 1.1-1 1.1-1 .2 0-.7-.4-1.1-.9-.8-.4.3-1.7-.2-2.7-1-1-.9-1.3-1.2-.5-.8 2.4 1.2 11.2 1.4 10.5.2-.5-.7-.2-.8.7-.2 2 1.2 3.8 1.4 4.5.3.3-.6 1.1-.5 2 .2 1 .8 1.8.9 2.7 0 .8-.6 1.6-.8 1.9-.6.3.3 1.6.8 2.8 1 1.3.3 2.8.9 3.4 1.5.8.8.7 1.1-.4.8-.8-.2-1.9-.8-2.3-1.3-.5-.6-.7-.5-.5.3.2.8.7 1.3 1.2 1.2.5-.1 1.3.4 1.7 1.2.7 1 .9 1 .9 0 0-.7.5-1 1-.7.6.4.7 1.2.3 1.8-.5.8-.2.8.9 0 .8-.7 1.9-.9 2.3-.5.5.4.5.1.1-.6-1.2-2 3.2-.8 5 1.4 1.4 1.8 1.4 1.8.3-.6-.7-1.4-1.2-2.6-1.1-2.8.2-.2-.5-.3-1-.1-.2 0-1.7.2-3.4.3-2.3.2-3.5-.3-4.4-1.8-1.1-1.8-1.1-1.9.1-1 1.9 1.4 6.1 1.6 5.3.2-.5-.7-.2-.8.7-.2 2 1.2 3.8 1.4 4.5.3.3-.6 1.1-.5 2 .2 1 .8 1.8.9 2.7 0 .8-.6 1.6-.8 1.9-.6.3.3 1.6.8 2.8 1 1.3.3 2.8.9 3.4 1.5.8.8.7 1.1-.4.8-.8-.2-1.9-.8-2.3-1.3-.5-.6-.7-.5-.5.3.2.8.7 1.3 1.2 1.2.5-.1 1.3.4 1.7 1.2.7 1 .9 1 .9 0 0-.7.5-1 1-.7.6.4.7 1.2.3 1.8-.5.8-.2.8.9 0 .8-.7 1.9-.9 2.3-.5.5.4.5.2.2-.4-.5-.8.5-1.1 2.8-1.1 1.9.1 3.5.5 3.5 1 0 .4.5.5 1.1.1 1.5-.9-1.1-2.5-2.6-1.7-.5.4-.1-.3.9-1.5 1.9-2.2 3.2-3 2.1-1.3-.3.5.1 1.6.9 2.4 1.2 1.1 1.2 1.7.3 2.8-.7.7-.3.6.9-.4 2.3-1.9 3.5-1.4 2.8 1.1-.5 1.4-.4 1.4.6-.1.6-.9 1.6-1.4 2.2-1.1.7.4.8.2.4-.4-1.2-2 3.3-.8 5 1.4 1.5 1.9 1.5 1.9.6-.1-.6-1.1-1-2.3-1.1-2.8-.1-.6-.6-.9-1.3-.6-2 .6-6.8.3-6.8-.5 0-.6-.4-.5-.9.2-.6 1.1-1 1-1.5-.4-.3-.9-.4-1.9-.1-2.2.3-.3.5-.1.5.4s1.6 1 3.5 1.1c2.2 0 3.2-.3 2.8-1-.4-.6-.1-.7.8-.1 2 1.2 3.8 1.4 4.5.3.3-.6 1.1-.5 2 .2 1 .8 1.8.9 2.7 0 .8-.6 1.6-.8 1.9-.6.3.3 1.6.8 2.8 1 1.3.3 2.8.9 3.4 1.5.8.8.7 1.1-.4.8-.8-.2-1.9-.8-2.3-1.3-.5-.6-.7-.5-.5.3.2.8.7 1.3 1.2 1.2.5-.1 1.3.4 1.7 1.2.7 1 .9 1 .9 0 0-.7.5-1 1-.7.6.4.8 1 .5 1.5-.3.5-.1 1.2.5 1.5.6.4.9.1.8-.7-.2-.7.3-1.2 1-1 .8.1 1.1-.2.7-.8-1.1-1.8 3.5-.4 5.1 1.6 1.4 1.8 1.4 1.8.3-.6-.7-1.4-1.2-2.6-1.1-2.8.2-.2-.5-.3-1-.1-.2 0-1.7.2-3.4.3-2.3.2-3.5-.3-4.4-1.8-1.1-1.8-1.1-1.9.1-1 1.9 1.4 6.1 1.6 5.3.2-.5-.7-.2-.8.7-.2 2 1.2 3.8 1.4 4.5.3.3-.6 1.1-.5 2 .2 1 .8 1.8.9 2.7 0 .8-.6 1.6-.8 1.9-.6.3.3 1.6.8 2.8 1 1.3.3 2.8.9 3.4 1.5.8.8.7 1.1-.4.8-.8-.2-1.9-.8-2.3-1.3-.5-.6-.7-.5-.5.3.2.8.7 1.3 1.2 1.2.5-.1 1.3.4 1.7 1.2.7 1 .9 1 .9 0 0-.7.5-1 1-.7.6.4.8 1 .5 1.5-.3.5-.1 1.2.5 1.5.6.4.9.1.8-.7-.2-.7.3-1.2 1-1 .8.1 1.1-.2.8-.7-.8-1.3 5.7-.9 6.6.4.5.6.8.5.8-.3 0-.6.7-1.2 1.6-1.2 1.3 0 1.4.3.5 1.4-.9 1.1-.9 1.6 0 2.2.7.4.9.3.6-.3-.4-.6 0-1.6.8-2.3 1.4-1.2 2-.7 1.6 1.4-.1.5.4.4 1.2-.2.8-.7 1.8-.8 2.2-.4.5.4.5.2.1-.5-.4-.8.1-1.1 1.4-1 2.1.1 2.5.7 1.3 2.3-.5.5 0 .1.9-.9s2-1.7 2.3-1.7c.4.1 1-.2 1.3-.6.4-.4.1-.4-.5 0-.8.4-1.3.2-1.3-.6s-.3-.9-.8-.3c-1 1.3-8.2 1.4-8.2.1 0-.6-.5-.4-1 .4-.7 1.1-1 1.1-1 .2 0-.7-.4-1.1-.9-.8-.4.3-1.7-.2-2.7-1-1-.9-1.3-1.2-.5-.8 2.5 1.3 11.2 1.4 10.4.1-.5-.9-.3-.9.8-.1 1.8 1.4 6.9 1.7 6.9.4 0-2 1.6-.9 1.7 1.2.2 1.8 0 2-.7.8-.5-.8-1-1.1-1-.5.1.5.8 1.9 1.7 3 1.2 1.6 1.4 1.6 1 .3-.3-1-.2-2 .4-2.3.5-.4.6-1.1.3-1.7-.4-.6.2-.5 1.5.1 1.7 1 2.2.9 2.7-.4.3-.8 1.1-1.2 1.8-.8 1.8 1.2 3.8 1.2 5.7.2 1.2-.6 2-.5 2.5.2.4.8.9.7 1.5-.2.7-1.2.9-1.2.9 0 0 1.1.3 1.1 1.6.1 1.2-1.1 1.8-1 3.1.3s1.4 1.9.3 3.1c-.7 1-.8 1.6-.2 1.6.6 0 1.2-.5 1.4-1 .4-1.2 2.6-1.4 7.7-.5 3.3.5 3.4.4 1.5-1.1s-1.9-1.6.1-.9c1.5.5 1.7.3.8-.6-1.3-1.3-3.7-.3-2.8 1.2.4.5.1.9-.4.9-.6 0-1.1-.4-1.1-.9s-1.2-.8-2.6-.5c-2.2.4-2.3.3-1.2-1 .7-.8 1.5-1 1.6-.5.2.5.9.6 1.5.2 1.7-1.1 3.9-1.3 5.1-.5 1.7 1 3 .9 4.4-.5.7-.7 1.9-1.3 2.5-1.3.8 0 .8.3.2.8-.6.4-1 2.2-1.1 3.9 0 1.8.2 3 .5 2.7.3-.3.6-1 .6-1.5s.3-.9.8-.9h1.8c.5 0 .7.4.4 1-.4.6.1.7 1.1.3 1.4-.5 1.2-.8-1-2s-2.5-1.7-1.5-2.9c1.5-1.8 2-1.8 1.2.2-.5 1.4-.3 1.4 1.5.3 1.1-.7 1.9-1.6 1.7-2-.3-.3.7-.5 2-.3 1.4.1 2.5-.2 2.5-.7 0-.5.4-.9.8-.9.5 0 .9.6.9 1.4 0 .8-.8 1.3-1.9 1.1-1-.2-1.6 0-1.3.5.3.6 0 .7-.8.4-.8-.3-2 .2-2.7 1.1-1.1 1.3-1 1.4.5.9 1.4-.6 1.6-.4 1 .7-.5.8.4.3 1.8-1l2.7-2.4.9 2.4 1 2.4V699c-.1-4.1.7-6.4 2.2-6.8 1.2-.3 1.2-.2 0 .6-.8.6-.9 1.2-.3 1.6.5.3 1.5-.1 2.2-.9.7-.8 1.8-1.5 2.4-1.5.7 0 .7.3-.1.8-.9.6-.7 1.1.6 1.9 1.5.9 1.7.8 1.6-.9-.1-1.1-.8-2.4-1.6-2.9s-.9-.9-.3-.9c.6 0 2.2 1 3.5 2.3l2.5 2.2 2.3-2.8c1.3-1.6 3-2.6 3.7-2.3.7.3 1.6.1 1.9-.5.4-.5.9-.8 1.3-.5.4.2 1.6-.5 2.7-1.6 1.4-1.3 1.5-1.7.4-1.3-1 .4-1.6 0-1.6-1 0-1.8.2-1.8 2.7-.5 1.3.7 2.1.7 2.6-.2.4-.7.3-.8-.4-.4s-1.2.3-1.2-.2c0-1.7 1.3-2.2 2.9-1 1.3 1 1.4 1 .4-.2-1.7-1.9-1.6-3 .2-3 .8 0 1.5-.5 1.5-1 0-.7-.6-.7-2 0-1.1.6-2 1.6-2 2.3 0 .8-.4.7-1.1-.3-.9-1.3-1-1.2-.5.2.3 1 .1 2-.3 2.2-.5.3-.8-.5-.7-1.7 0-1.2.7-2.2 1.4-2.2.8 0 2.1-1.7 3.1-3.7 1.5-3.4 1.8-3.5 2.8-1.9 1 1.5.9 1.8-.4 1.7-.9 0-1.8.4-2 .9-.2.6.8 1.1 2.1 1.1 1.4 0 2.4-.2 2.1-.4-.6-.7 1.9-3 2.7-2.5.4.2.5-.3.2-1.1-.3-.9-.1-1.6.5-1.6s1.1-.5 1.1-1.1c0-.5-.4-.7-1-.4-.5.3-.9-.9-.8-3 .1-1.9.5-3.5 1-3.5s.6-1 .3-2.3c-.5-1.7-.4-1.9.4-.7.7 1 1.1 1.1 1.1.2 0-.6.5-1.2 1.2-1.2.9 0 .9.3 0 1.2-.7.7-1.2 1.6-1.2 2 0 1.1 2.8 1 3.5-.2.4-.6-.1-.7-1-.3-1.5.5-1.5.3-.4-1.5.7-1.1 1.7-1.8 2.2-1.5.5.3.3-.4-.4-1.5-.7-1.2-1.7-1.8-2.2-1.5-.5.3-.3.9.4 1.4 1 .6 1 .9.2.9-1.9 0-2.7-2.1-1.2-3.1.8-.4 2.5-.6 3.9-.3l2.5.5-2.5-1.5c-1.4-.8-2.9-1.2-3.5-.8-.5.3-.4-.2.4-1.1.7-.9 1-1.7.6-1.7s0-1.1.9-2.5c1.2-1.8 1.3-2.5.4-2.5-.8 0-.9-.3-.3-.8 1.2-.8 1.9-4.3 1.8-9.4 0-3.3.2-3.6 1.3-2 1.1 1.4 1.5 1.5 2.3.3 1.1-1.6.4-4.1-1.1-4.1-.6 0-.6.6.1 1.4.8 1 .9 1.6.1 2.1-.9.5-1.5-1.5-1.1-3.9.1-.4-.3-1.4-.9-2-.5-.7-.6-1.6-.2-2 .4-.4.7-2 .7-3.4 0-1.5.6-2.7 1.3-2.7 1.4 0 1.7-1.3.6-2.3-.4-.4-.4-.1 0 .5.5.9.2 1.1-1 .6-1-.4-1.3-.8-.7-1 .7-.3.9-1.1.6-1.9-.3-.7-1-1.1-1.6-.7-.6.4-.7.1-.3-.6.6-.9 1.2-.9 2.5.3 2.8 2.6 3.2 1.8.6-1-1.6-1.8-2.3-3.5-2.1-5 .3-1.3 0-2.6-.5-3-.5-.3-.6-1.1-.2-1.7 1.1-1.7 1-3.1-.2-3.9-.6-.5-.5-.8.4-.8 1.1 0 1.1-.3.1-1.5-.7-.8-1-1.6-.6-1.6.3-.1 1-.2 1.5-.3 1.8-.2 2.4-1.6.8-1.6-1 0-1.7-.5-1.7-1.1 0-.6.7-.9 1.5-.5.8.3 1.5.1 1.5-.4 0-.6-1-1-2.2-1.1-2.2 0-2.2-.1-.3-.8 1.1-.5 2.5-.5 3.1 0 .7.5 1.1.3 1.1-.6 0-.8-.4-1.2-.9-.9-.4.3-.8 0-.8-.5 0-.6.5-1.1 1.2-1.1.6 0 .9-.2.6-.5-1-1-3.8.7-3.1 1.9.4.6-.1.5-1-.3-1.6-1.3-1.4-3.6.3-2.6.4.3 1.3-.2 1.9-.9.8-1 .9-1.6.1-2.1-.9-.6-1.4.1-1.1 1.7 0 .4-.7.4-1.6.1-1.1-.4-1.3-.8-.5-1.1.7-.2 1.2-1 1.2-1.8 0-.9-.5-1.2-1.2-.8-.7.4-.8.3-.4-.5.6-.9 1.4-.8 3.4.5 1.5.9 2.4 1.3 2 .9-.4-.5-.2-1.5.5-2.4 1-1.4 1-1.4-.4-.4-1.8 1.4-3 .8-2.3-1.2.3-.7.1-1.6-.5-2-.7-.4-.9.1-.5 1.2.4 1.5.3 1.4-.7-.2-1.7-2.7-1.8-5.2-.3-5.2.9 0 1 .5.3 1.9-1.5 2.7-.4 2.2 1.6-.8.9-1.5 1.2-2.3.5-1.9-.9.5-1 .1-.5-1.4.5-1.7.2-2.1-1.7-2.2-2.1 0-2.2-.1-.3-.8 1.1-.5 2.7-.6 3.5-.4 1.2.4 1.3.3.1-.5-.7-.5-1.1-1.5-.7-2.1.5-.7.1-.9-.8-.5-.9.3-1.3 1.1-.9 1.8.4.6-.1.5-1-.3-1.3-1-1.4-1.7-.7-2.6.8-.9.8-1.5 0-2-.7-.4-.7-1.2 0-2.5s.7-2.1 0-2.5c-.6-.4-.7-1.2-.3-1.8 1.3-2.1 1.4-4.9.1-4.1-.7.4-.8.3-.4-.5.4-.6 1.1-.9 1.6-.6.5.3 1.1.1 1.5-.5.3-.5-.1-1-.9-1-.9 0-1.6-.5-1.6-1.1 0-.6.7-.9 1.5-.5.8.3 1.5.1 1.5-.4 0-.6-1-1-2.2-1.1-2.2 0-2.2-.1-.3-.8 1.1-.5 2.5-.5 3.1 0 .7.5 1.1.3 1.1-.6 0-.8-.4-1.2-.9-.9-.4.3-.8 0-.8-.5 0-.6.5-1.1 1.2-1.1.6 0 .9-.2.6-.5-1-1-3.8.7-3.1 1.9.4.6-.1.5-1-.3-1.6-1.3-1.4-3.6.3-2.6.4.3 1.3-.2 1.9-.9.8-1 .9-1.6.1-2.1-.9-.6-1.4.1-1.1 1.7 0 .4-.7.4-1.6.1-1.1-.4-1.3-.8-.5-1.1.7-.2 1.2-1 1.2-1.8 0-.9-.5-1.2-1.2-.8-.7.4-.8.3-.4-.5.6-.9 1.4-.8 3.4.5 1.5.9 2.4 1.3 2 .9-.4-.5-.2-1.5.5-2.4 1-1.4 1-1.4-.4-.4-1.8 1.4-3 .8-2.3-1.2.3-.7.1-1.6-.5-2-.7-.4-.8 0-.4 1.2.6 1.5.5 1.6-.9.3-1.1-1.1-1.2-1.7-.4-2.5 2-1.7 4.2-5 2.9-4.1-.9.5-1.3 0-1.3-1.3 0-1.2-.3-2-.7-1.8-.5.1-.8-.3-.8-.8s.3-.9.8-.8c1.1.4.8-1.5-.4-2.2-.6-.4-.8-1.3-.5-2.1.3-.7.1-1.6-.5-2-.7-.4-.6-1 0-1.8.6-.7.7-1.6.3-2.1-.4-.4.4-.2 1.8.6 3.1 1.6 5.2 2 4.4.8-.3-.5-.9-.7-1.4-.4-.5.3-1.1.1-1.5-.5-.3-.5-.1-1 .4-1 .6 0 1.1-.5 1.1-1.1 0-.8-.4-.8-1.4 0-1.8 1.5-3.9-.8-2.6-2.9.5-.8.6-1.9.2-2.5-.3-.5.1-.4 1 .3 1.1.9 1.8 1 2.3.2.3-.5.1-1-.4-1-.6 0-1.1-.5-1.1-1.1 0-.8.4-.8 1.3-.2 1.8 1.4 5.9 1.4 5.1.1-.4-.6.3-.4 1.5.4 2.1 1.5 6.6 1.4 5.6-.1-.2-.4.2-.8.9-.8 1.1 0 1.1.5.4 1.7-1 1.6-7.3 2-9.7.6-.6-.4-1.1-.2-1.1.4 0 .6-.5.8-1.2.4-.7-.5-.8-.3-.3.6.6.9.4 1.1-.6.5-1.1-.7-1.1-.5.1 1.1 2.2 2.9 2.4 3 1.6 1-.5-1.4-.2-1.7.9-1.2.9.3 1.4.2 1.1-.3-.3-.4 1.2-.8 3.4-.8 2.6 0 3.7.4 3.3 1.1-.3.6 0 .5.8-.2 1.8-1.7 3.4-1.5 2 .2-.8 1-.9 1.6-.1 2.1.6.4.9.1.8-.7-.3-1.5 6.9-1.9 9-.4.8.6 1.7.5 2.5-.3.9-1 .8-1.1-.8-.5-1.8.7-1.8.6-.7-.9 1.3-1.5 4.7-1.3 3.7.2-.2.4.2.8 1 .8s1.5-.4 1.5-.9.4-.7.9-.3c.5.3 1.2.1 1.6-.4.3-.6 1.2-.8 2-.5.8.4 1.3.9 1 1.3-.2.4.2.8 1 .8s1.2-.4.9-.9c-.5-.7 1-1.2 2.9-.9.6.1 1-1.3.9-2.9 0-.3.8-.6 1.8-.6 1.9 0 1.9.1 0 1.9-2.4 2.2-2.5 3.3-.4 4.1 1.3.5 1.4.4.6-.7-1.2-1.4-.7-2.7 1-2.7.5 0 .7.4.3.9-1 1.7 1.2 2.1 2.5.6.7-.8 1.7-1.5 2.2-1.5.6 0 .5.7-.2 1.5-.9 1-.9 1.5-.1 1.5.6 0 1.1-.5 1.1-1 0-.6.7-1 1.5-1s1.5-.4 1.5-.9-.6-.8-1.2-.7c-.7 0-1.3-.4-1.3-.9 0-.6.5-1 1.2-1 .6 0 1.5-.4 1.9-.8.4-.4 1.8.2 3 1.4 2.2 2.1 8 3.6 6.9 1.9-.3-.5-1.3-.6-2.1-.3-1.3.5-1.4.3-.6-1.3.5-1 1.1-2.4 1.2-2.9.1-.6.3-1.2.6-1.4.2-.2.1.6-.1 1.8-.2 1.2 0 1.9.6 1.6.5-.4.9-1.2.9-2s.9-1.3 1.9-1.2c1 0 1.7.6 1.4 1.3-.2.7 0 1.5.6 1.9.6.3.9 0 .6-.7-.5-1.3.4-1.6 5.2-2 .7-.1 1-.5.7-.9-.2-.4 0-1 .6-1.4.5-.3 1-1.5 1-2.5 0-1.3.5-1.7 1.4-1.4.8.3 1.7 0 2.2-.7.4-.8.3-1-.4-.5-.7.4-1.2 0-1.3-1.1 0-1-.2-2.6-.4-3.5-.2-1 .1-2 .6-2.4.5-.3.9-1 .9-1.5 0-.6-.3-.8-.8-.6-.4.3-.8-1.2-.8-3.4-.1-2.9.3-3.9 1.4-3.9 1.3 0 1.2-.3-.4-1.6s-1.6-1.5-.1-1c.9.3 1.7.1 1.7-.4 0-.6-.7-1-1.5-1s-1.5-.7-1.5-1.6c0-.9.5-1.2 1.2-.8.7.4.8.3.4-.5-.4-.6-1.2-.8-1.8-.5-.8.5-.9.1-.4-1.1.5-1.5.4-1.6-.9-.5-1.1.9-1.5.9-1.5.1 0-.7-.4-.9-1-.6-.5.3-1 .3-1-.2 0-.4-2.7-1.9-5.9-3.3-3.3-1.3-5.7-2.9-5.4-3.4.4-.5.2-.6-.4-.3-.5.3-2.5.2-4.4-.3-1.9-.5-7.9-1.1-13.4-1.3-5.5-.1-10.6-.6-11.3-1-.6-.5-1.2-.5-1.2 0 0 1.1-20.2 1-21.9-.1-.9-.6-1.2-.5-.8.1.8 1.3-8.7 1.2-9.9 0-1.5-1.5-1.3-3.6.4-3 1 .4 1.3.2.8-.6-.4-.6-.2-1.8.4-2.6.7-.8.8-2 .4-2.7-1.2-1.9-1.4-3.8-.3-3.8.5 0 .9-.4.9-.8 0-.5-.6-.9-1.3-.9-.9 0-1.3 1.4-1.2 4.4 0 2.4-.2 4.6-.6 4.9-.4.2-.7-2.5-.6-6 .2-5.5.4-6.3 1.7-5.3.8.6 1.2.7.7.2-.4-.4.1-1.8 1-2.9 1-1.2 1.1-1.5.3-.9-2.8 2.5-3.6 1.4-3.6-4.6.1-3.3.5-6.3.9-6.7 1-1 .9-2.6-.1-2-.4.2-.9-.5-.9-1.7-.2-1.7 0-1.9.7-.7.8 1.3 1 1.2 1-.3 0-.9.5-1.7 1.1-1.7.5 0 .7.4.4 1-.4.6.1.7 1.1.3 1.2-.4 1.5-.3 1 .5-.4.7-.3 1.2.2 1.2.6 0 1.3-.7 1.6-1.6.3-.8 1-1.2 1.6-.9.5.3 1 .1 1-.5s.4-.9.9-.5c.6.3.8-.7.6-2.2l-.4-2.8 1.4 3c1 2 1.4 2.4 1.5 1.2 0-1 .5-1.5 1-1.2.6.4.7 1.1.4 1.7-.4.7-.2.8.5.4.6-.4.9-1.1.6-1.6-.5-.8 2.7-2.3 5-2.5.5 0 1.1-.8 1.3-1.9.3-1.1 0-1.6-.7-1.1-.6.3-.9 1-.7 1.4.3.4-.1.8-.9.8s-1.2-.4-.9-.8c.2-.4-.1-.9-.8-1.2-.7-.2-.5-.3.5-.2.9.2 1.7-.1 1.7-.7s.7-.8 1.5-.5c.8.4 1.7.2 2-.3.3-.4-.1-1.1-.7-1.3-1-.4-1-.6 0-.6.7-.1 1-.6.6-1.3-.4-.6-.3-.8.2-.5.6.3 1.6.1 2.4-.4 1.3-.8 1.3-1 0-1.9-1.2-.7-1-.9.8-.7 2.8.2 2.8.3-.5 3.3-2.1 1.9-2.3 2.3-.7 1.9 1.7-.6 1.7-.5-.3 1.3-1.2 1.1-1.9 2.2-1.6 2.6.6.6 3.8-3.2 3.8-4.6 0-.4 1-1.5 2.3-2.3 1.2-.9 2.2-2.2 2.2-2.8 0-.7-.4-.6-1 .3-.9 1.3-1.4.7-1.1-1.2 0-.4-.6-.5-1.4-.2-.8.4-1.5.1-1.5-.4 0-.6 1.1-.9 2.4-.6 2 .3 2.3 0 2.1-2-.2-1.4-.5-2.9-.8-3.3-.3-.5.3-.9 1.3-.9 1.5 0 1.7.3.7 1.6-.6.8-.7 1.2-.3.8.5-.4 1.5-.3 2.1.2.9.8 1.4.6 1.8-.4.4-1.1.1-1.3-1-.9-1.3.5-1.3.2.2-2 .9-1.5 1.4-2.7 1.1-2.7-.4 0-.2-.9.4-2 .6-1.1 1.5-1.8 2-1.5.5.3 1.2.1 1.5-.5.4-.6.1-.9-.6-.8-.7.2-1.8-.8-2.5-2-.7-1.4-1.4-1.9-1.7-1.3-.3.7-.4.6-.3-.1.2-.7.9-1.2 1.5-1.1.6.2 1.1-.4 1.1-1.3 0-.8-.5-1.2-1-.9-.6.4-.5-.4.1-1.9.7-1.4 1.5-2.3 2-2.1.4.3 1 .1 1.4-.5.3-.5.1-1-.6-1-.8 0-.8-.4.1-1.5.7-.9 1.1-1.8.8-2.1-.6-.5-561.7-1.1-572.6-.6zM732 381c.3 0-.2.6-1 1.3-.9.7-1.6 2-1.7 2.9-.1 3.4-.3 3.6-2 3.4-1-.2-1.7-.7-1.5-1.2 1-3.5 1.5-4.4 2.4-4.4.5 0 .8-.6.5-1.4-.5-1.3 0-1.4 3.3-.6zm-22 28.4c-1.3 1.3-4 1.7-4 .6 0-.9 1.7-1.7 3.8-1.7.9 0 .9.4.2 1.1zm-519 .6c0 .5-.2 1-.4 1-.3 0-.8-.5-1.1-1-.3-.6-.1-1 .4-1 .6 0 1.1.4 1.1 1zm508.4 2.1c-.6 1.1-.1 1.1 2 .3 1.5-.6 1.5-.7 0-1.9-1.5-1-1.5-1.2-.1-1.2 2.6 0 2.8 2.4.4 4-2.8 1.8-5.3 1.2-3.6-.9 1.4-1.7-.2-1.9-1.9-.2-1.6 1.6-1.6.1.1-1.6 1.3-1.5 4.1-.1 3.1 1.5zm-422.6.8c-.2.9.3 1.5 1.1 1.3.9-.2 1.1.3.7 1.3-.3 1-.2 1.4.5 1 .6-.4.8-1.3.5-2.1-.3-.8-.1-1.4.3-1.4.5 0 1.1.6 1.4 1.2.2.7.8.1 1.2-1.5.8-2.9 1.2-3.2 3.5-1.7.9.6 1.7.5 2.3-.3.6-.9.7-.8.5.2-.5 1.7-3.8 2.4-3.8.8 0-.7-.5-.4-1.1.5-.7 1.3-.7 2.3.1 3.5 1 1.6 1 1.6.5-.3-.4-1.4-.1-2.1 1-2.1.8 0 1.5.4 1.5.9 0 .4.5.8 1.1.8.5 0 .7-.5.4-1-1.1-1.7 3.7-.5 5 1.3 1.1 1.6 1.3 1.5 2.9-.2 1.8-2 .6-3.9-1.6-2.5-.7.4-.8.3-.4-.4s.3-1.2-.3-1.2c-.5 0-1.2.5-1.4 1-.3.6-.4.5-.3-.2.2-.7 1.4-1.3 2.9-1.3 1.4-.1 2.4.2 2.2.6-.3.3.6.6 2 .6s2.3-.3 2-.7c-.2-.3.2-.7 1-.7s1.2.4.9.9c-.3.4.1.8.8.9 1 0 1 .2.1.6-.7.2-1.3 1-1.3 1.6 0 .5.3.7.7.4.3-.4 1.2.1 2 1.1.8.9 1.2 1.1.8.4-1.2-2.4-1.5-6.2-.5-6.2.6 0 .8.5.4 1.2-.5.7-.2.9.8.5.9-.3 2.1 0 2.8.6 1 1 1.2.8.7-.6-.4-1-.3-1.6.3-1.2.5.3.8 2.1.6 4-.1 1.9.2 3.5.6 3.5.5 0 .6.5.3 1-.4.6-1.2.7-1.8.3-.8-.4-.8-.2.1.9.8 1 1.2 5.1 1.2 12.4V456.5c.1.8.1 4.4.1 8v39.7c0 .7-.1 3.8-.2 6.8 0 3 0 5.9.1 6.5.3 1.7 0 16.9-.4 19-.2 1.1-.1 2.4.2 2.9.5.9.5 13.3-.1 20.9-.2 2.6-.1 5 .2 5.2.7.7.3 12.4-.5 13.6-.3.5-.2 1.4.2 2.1.8 1.2.8 15.5 0 19.3-.2 1.1-.1 2.4.2 2.9.5.9.5 13.3-.1 20.9-.2 2.6-.1 4.9.2 5.2.4.5.4 2.9 0 11-.1 1.1 0 2.4.1 3 .1.5.2 2.5.1 4.3l-.1 3.3-7-.3c-3.8-.2-7-.5-7-.8 0-.3-2.1-.6-4.6-.8-2.5-.1-5.6-.8-6.7-1.4-1.2-.7-2.4-1.3-2.7-1.4-2.2-.5-3.9-1.8-3.4-2.5.3-.5-.2-.9-1-.9-1.7 0-3.9-3.4-2.9-4.4.3-.3.1-.6-.5-.6s-1.6-1.7-2.3-3.8c-1.8-5-1.8-5.4-.3-7.8 1.2-2 1.1-2.1-.9-1.7-1.8.4-1.9.3-.7-.6 1.3-1 1.3-1.1 0-1.1-.8 0 0-.9 1.8-2 1.7-1.1 3.2-2.3 3.2-2.6 0-.4-.7-.1-1.4.6-1.1.9-1.9.9-3.3 0-1.6-1-1.6-1.1-.1-.6 1.9.6 3.4-.9 1.8-1.9-.5-.3-1-1.1-1-1.6 0-.6.4-.8.8-.5.5.3.9-.2.9-1 0-1-.4-1.1-1.1-.4-.5.5-1.4 1-1.9 1s-.2-.6.6-1.4c.9-.9 1.2-2.6.9-4.2-.3-1.6-.1-2.5.5-2.1.5.3 1 0 1-.8s-.4-1.2-.7-1c-.4.3-.7-.6-.7-2s.3-2.3.6-2c.4.2 1.3-.1 2.1-.7 1.3-.8 1.3-.9 0-.5-.9.3-2.4-.1-3.5-.9-1.6-1.2-1.6-1.4-.3-1.4.9 0 2-.5 2.4-1.2.5-.7.3-.8-.6-.3-1 .6-1.2.4-.7-.8.3-.9 0-2.3-.8-3-.7-.8-1.2-2.3-1.1-3.3.2-1-.2-2.2-.8-2.6-.8-.5-.7-.8.2-.8.7 0 1-.5.6-1.2-.4-.6-.3-.8.3-.5.6.4.9 2 .8 3.7-.1 1.7 0 2.8.4 2.5.3-.4.6-1 .6-1.3 0-.4.4-1.2.8-1.9.4-.6.3-1.4-.3-1.8-.5-.3-1-1.1-1-1.6 0-.6.4-.8.8-.5.5.3.9-.2.9-1 0-1-.4-1.1-1.1-.4-.5.5-1.4 1-1.9 1s-.2-.6.6-1.4c.9-.9 1.2-2.6.9-4.2-.3-1.6-.1-2.5.5-2.1.5.3 1-.1 1-.9 0-1-.4-1.1-1.1-.4-.5.5-1.4 1-1.9 1s-.2-.7.7-1.5c.8-.9 1.2-2.3.9-3.2-.4-.9-.2-1.4.3-1 .6.3 1.6.1 2.4-.5 1.3-.8 1.2-.9-.2-.5-1.6.6-4.8-2.1-4.8-3.9 0-.5.5-.2 1 .6.8 1.3 1.1 1.3 2.2.1 1-1 1-1.2 0-.7-1.6 1-1.1-2.6.8-4.8 1-1.2 1-2 .2-2.8-.7-.7-.8-1.7-.2-2.9 1-1.8-.4-3.8-1.7-2.5-.4.3-.1.6.6.6.8 0 .9.5.2 1.9-.6 1-.7 2.1-.3 2.5.3.4-.1.4-1.1.1-1.7-.7-1.8-2.9-.4-5.3.5-.6.4-1.2-.1-1.2s-.9-1.3-.8-2.9c0-1.6.4-2.7.8-2.5.5.3.8 0 .8-.5 0-.6-.5-1.1-1.1-1.1-.6 0-.4-.7.5-1.5.8-.9 1.2-2.3.9-3.2-.4-.9-.2-1.4.3-1 .6.3 1.6.1 2.4-.5 1.3-.8 1.2-.9-.2-.5-1.6.6-4.8-2.1-4.8-3.9 0-.5.5-.2 1 .6.8 1.3 1.1 1.3 2.2.1 1-1 1-1.2 0-.7-1.6 1-1.1-2.6.8-4.8 1-1.2 1-2 .2-2.8-.7-.7-.8-1.7-.2-2.9 1-1.8-.4-3.8-1.7-2.5-.4.3-.1.6.6.6.8 0 .9.5.2 1.9-.6 1-.7 2.1-.3 2.5.3.4-.1.4-1.1.1-1.7-.7-1.8-2.9-.4-5.3.5-.6.4-1.2-.1-1.2-.4 0-.8-1.8-.8-4 0-2.3.3-3.4.8-2.7.5.8.8.7.8-.5 0-.9 1-2.4 2.2-3.2 1.2-.9 1.8-1.6 1.2-1.6-.5 0-1.5.5-2.2 1.2-1.7 1.7-1.6-1.3.1-3.1.9-1 .9-1.2 0-.7s-1.1-.4-.9-3c.1-2.1-.3-4.2-1.1-5-.8-.8-1-1.4-.4-1.4s1.1-.5 1.1-1.1c0-.5-.5-.7-1.2-.3-.7.4-.8.3-.4-.5.4-.6 1.2-.9 1.7-.6.5.3.6-.2.2-1.1-.4-1-.2-1.5.3-1.1.6.3 1.6.1 2.4-.5 1.3-.8 1.3-.9 0-.5-.9.3-2.4-.1-3.5-.9-1.6-1.2-1.6-1.4-.3-1.4.9 0 2-.5 2.4-1.2.4-.6.3-.8-.4-.4s-1-.2-.9-1.4c.1-1.4.6-1.9 1.7-1.5.8.3.3-.5-1.2-1.7-1.5-1.3-2.6-3-2.5-3.8.4-2.2 1.7-4 2.9-4 .6 0 .3 1.1-.6 2.5-.9 1.4-1.4 2.5-1.1 2.5 1.2 0 2-.6 2.1-1.5.1-.6.3-1.7.5-2.5.3-1-.3-1.4-1.8-1.3-2.9.3-2.7-2 .7-6.7 1.5-2.1 1.8-3 .7-2.1-1.5 1.2-1.7 1.1-1.7-.2 0-.9 1-2.3 2.2-3.1 1.2-.9 1.8-1.6 1.2-1.6-.5 0-1.5.5-2.2 1.2-1.7 1.7-1.6-1.3.1-3.1.7-.8.7-1.1.1-.8-1.4.8-1.6-4-.3-6.4.5-1 .4-2-.3-2.7-1.6-1.6.4-1.5 2.2 0 1.2 1.1 1.2 1 .1-.5-1.6-2.1-3.3-1.8-3.7.6-.1.9.2 1.4.8 1.1.8-.5-.5 2.9-1.7 4.4-.1.1-.1-1.5-.1-3.5.2-5.1 1.2-6.6 3.7-5.3 2.8 1.5 2.3.5-.7-1.5-1.5-.9-2.3-1.2-2-.6.4.6.2 1.1-.3 1.1-.6 0-.9-1-.7-2.3.2-1.3.9-2.1 1.9-1.9.8.1 1.9-.3 2.3-.9.4-.7.3-.9-.4-.6-1.9 1.2-4.2-.4-3.8-2.6.2-1.2.8-2.2 1.4-2.2 1.7 0 2.4-1.2 1.1-2.1-.8-.4-1-.3-.5.4.5.8.1 1-1 .5-1.1-.4-1.3-.8-.6-1.1.7-.2 1.2-.8 1.2-1.3 0-.6-.3-.8-.8-.5-.4.2-.8-1.5-.8-3.9s.3-4.2.6-3.9c.3.3.5 1.1.5 1.6 0 .6.7 1.3 1.5 1.5 1.3.4 1.3.3 0-.6-.8-.6-1.1-1.1-.7-1.1.4 0 .2-1-.5-2.3-1.5-2.9-1.8-5.6-.4-5.4.6.1 1-.3.9-.9-.1-.7.6-1 1.8-.7 1.1.3 1.8 1.2 1.7 2.2zm4.9-1.2c0 .7-.4 1-.9.7-.5-.3-1.7 0-2.6.8-1.5 1.1-1.5 1.1-.5-.3.7-.9 1.1-1.8.8-2-.2-.3.4-.5 1.4-.5 1 0 1.8.6 1.8 1.3zm73.9-.2c-.4 1 0 1.4 1.4 1.2 1.1-.2 2.3-.6 2.6-1 .4-.4 1.5.5 2.5 2 1.6 2.4 1.8 2.5 1.6.6 0-1.2-.4-2-.7-1.8-.4.2-.7-.2-.7-.9s.6-1.3 1.3-1.3c.7 0 1.1.4.8.9-.3.4-.1.8.5.8.5 0 1.3-.5 1.6-1 .3-.6 1.2-1 1.8-1 .8 0 .8.3.2.8-1.4 1-1.7 3.9-.5 4.7.6.3.7 0 .4-1-.7-1.7 1.6-1.7 2.8 0 .5.6.8.5.8-.3 0-.6.8-1.2 1.7-1.2 1.3 0 1.4.3.5 1.2-.7.7-1.2 1.7-1.2 2.2 0 .6.5.3 1.1-.7.6-.9 1.5-1.4 2.1-1.1.7.5.8.2.4-.5-.5-.8-.3-1.2.5-1 2.6.3 4-.1 3.4-1-.3-.5-.1-1.2.4-1.5 1-.7.9 1.3-.1 3-.4.6-.1 1.1.7 1.1.8 0 1.2-.4.9-.9-.3-.4.2-.8 1.1-.8 1 0 1.3.5.9 1.2s-.3.8.5.4c.6-.4.9-1.2.6-1.7-.6-.9.8-1.3 3.4-1 .7.2 1.1-.2.8-.6-.3-.5 1.4-.9 3.8-.8 2.4 0 4.1.3 3.8.7-.2.5.3 1.8 1.3 3 1.1 1.6 1.5 1.7 1.1.5-.4-1.1-.1-1.7.9-1.7.8 0 1.2.5.9 1-.4.6-.3 1 .2.9 2.3-.4 3.3.3 3.3 2.3 0 1.7-.3 1.9-1.2 1-.7-.7-1.7-1.2-2.2-1.2-.6 0 0 .7 1.2 1.6 1.6 1.1 2.2 2.4 2 4.5l-.2 2.9h-15.8c-14.5 0-15.8.1-15.8 1.8 0 1-.6 2.4-1.2 3.1-1 1.1-1 1.3 0 .7.6-.4 1.2-.2 1.2.3 0 .6-.6 1.1-1.2 1.1-.9 0-.9.3.1.9 1.2.8 1.2 1.2.2 2.4-.8 1-.9 1.7-.1 2.2.5.3 1 1.1 1 1.6 0 .6-.5.7-1.2.3-.7-.5-.8-.3-.2.7.9 1.5 1.1 2 1.3 4.3.1.9.8 1.2 1.9.9 1.2-.3 2.3.4 3 1.9.7 1.3 1 1.5.7.5-.7-2.4.3-4 1.8-3 .7.4 5 .9 9.7 1 4.7.1 9 .3 9.5.4 1.5.3 1.7 4.9.2 4.9-.9 0-.9.2.1.9.8.5 1.2 2.3 1 4.7l-.3 3.9h-13.7c-8.5 0-13.8.4-13.9 1 0 .5-.2 3.2-.3 6-.1 2.7-.5 5.5-.9 6.2-.4.6-.2 1.5.4 1.9.8.4.7.9-.2 1.5-1 .6-1.1.9-.1.9.6 0 1.2.9 1.2 2 0 1.9.9 2.4 4 2.1 1.3-.2 1.3-.1 0 .8-.9.7-1 1.1-.3 1.1s1.7-.8 2.2-1.8c.6-.9 1.1-1.2 1.1-.5s.6 1 1.4.7c.7-.3 1.6.2 2 1.1.4 1.1.2 1.4-.7.8-2.6-1.6-3.5-1.2-2.3 1.3 1.2 2.6 2.9 3.4 1.9.9-.3-1 0-1.5.8-1.3.7.2 1.3-.3 1.4-1.1 0-.8.6-1.6 1.3-1.9 1.5-.5 1.5.3.1 3-.7 1.3-.8 2.3-.1 3 .7.7 1 .6.9-.3-.1-.8.3-1.4.8-1.4.6 0 .9.4.7.8-.1.5.2.6.8.2.7-.4.7-1.3-.1-2.6-.6-1.2-.8-2.3-.5-2.7.3-.3.6 0 .6.8 0 1 .4 1 1.7-.1 1.1-1 1.4-1 .9-.2-.8 1.4.6 1.8 1.8.6 1.2-1.2 3.6-1.2 3.6 0 0 .7.5.5 1-.3.6-1 1-1.1 1-.3 0 .7.8 1.3 1.8 1.3 1.4 0 1.5-.2.2-1-.8-.5-1-1-.5-1 .6.1 1.8.6 2.7 1.3 1.7 1.4 1.9 3.2.4 5.6-.6 1-.5 1.2.2.7.9-.5 1.2.6 1.2 3.6v4.4h-10.7c-6.2 0-11.1-.5-11.5-1.1-.5-.6-.8-.5-.8.3 0 1.5-4.1 1.3-5.2-.3-.5-.6-.8-.5-.8.2 0 1.5-5 1.3-5-.2 0-.6-.3-.6-.8.1-.4.7-4 1.1-9.2 1-8.1-.1-8.6-.2-8.6-2.2 0-1.4.5-2 1.3-1.7.7.3 1.3.9 1.3 1.4 0 .5.5.9 1 .9.6 0 .3-1.1-.7-2.4-1-1.3-2.1-2.2-2.5-2-.4.2-.9 0-1.2-.5-.4-.5-.2-1.2.4-1.6.6-.4.7-1.1.4-1.7-.4-.7-.2-.8.5-.4.6.4.9 1.2.6 1.7-1 1.5.2 1 1.6-.8.8-.9.9-1.4.2-1-1.1.7-3-3.4-2.8-6.3 0-.8-.4-1.8-1-2.2-.6-.5-.6-.8.2-.8.6 0 1-.9.8-2-.2-1.1 0-2 .5-2s.7 1.6.6 3.5c-.2 1.9 0 3.2.5 2.9.5-.3.7-1 .4-1.5-.4-.5 0-.9.7-1 .9 0 .9-.2.2-.5s-1-1.4-.7-2.4c.4-1.5 0-2-1.3-2-1.6 0-1.7-.2-.4-1 1.4-.9.7-1.4-1.3-1.1-.5.1-.5-.4-.1-1.1 1.2-1.9 1.2-4.8 0-4.8-.8 0-.8-.3 0-.8 1.2-.8 1.3-9.1.1-11-.5-.7-.2-1.4.8-1.8 1.2-.5 1.3-1 .4-2-.6-.8-.9-2.1-.5-2.9.3-.8 0-1.5-.7-1.5-.8 0-.8-.3-.2-.8 1.5-1 1.6-15.2.1-15.2-.7 0-.7-.3-.1-.8 1.4-1 1.4-7.2.1-7.2-.6 0-.3-.5.6-1.1 3-1.7 3.8-4.3 2.3-7.3-.8-1.4-1-2.4-.5-2.1.6.4 1 .1 1-.4 0-.6.3-1.1.6-1.1s.4.7 0 1.5zm17.4-.1c-1.5 1.5-4.4 1.7-3.1.2.6-.7 1.8-1.3 2.6-1.3 1.1 0 1.2.4.5 1.1zm5.9.9c0 .8-.2.8-.6-.1-.4-1-.8-1-1.9-.1-.9.7-1.4.8-1.4.1 0-1.2 2.1-2.2 3.3-1.5.4.2.7 1 .6 1.6zm6.5-1.1c-.3.4-.9.8-1.5.8-.5 0-.9-.4-.9-.8 0-.5.7-.9 1.5-.9s1.2.4.9.9zm17.5-.8c-.2.2-1.5.9-2.9 1.5-2.4 1.1-2.4 1.1-.6-.3 1.6-1.3 4.9-2.4 3.5-1.2zm1.8 2.1c0 .8-.4 1.5-.9 1.5-1 0-1.1-1.4-.1-2.3.9-1 1-.9 1 .8zm-51.6 1.2c1.3 1.6 1.2 1.7-.3.4-1.7-1.3-2.2-2.1-1.4-2.1.2 0 1 .8 1.7 1.7zm-57 .6c-.7.7-1.4.8-2.1.1-.6-.6-.2-1 1.2-1.1 1.6-.2 1.8.1.9 1zm58.9 2.2c0 .2-.6.8-1.3 1.4-1 .8-1.4.7-1.4-.2 0-.8.6-1.4 1.4-1.4.7 0 1.3.1 1.3.2zm91.5 13.6c-.4.5.1.9.9.9.9 0 1.5-.5 1.4-1.1-.2-.6.4-1.4 1.2-1.6 1.2-.3 1.2-.2.2.5s-.9 1.2.4 2.3c1 .8 1.5.9 1.1.3-.4-.7 0-1.7.8-2.4 1.3-1.1 1.5-1 1 .1-.2.8-.1 2 .4 2.8.7 1.1 1.3 1.2 2.4.3 2.8-2.4 6.1-2 10 1.1 2.7 2.1 3.7 3.6 3.4 4.8-.3 1.1-.1 2.2.4 2.5.5.3.8 0 .7-.8-.2-.7.3-1.2 1-1 .9.2 1.1-.2.6-1-1.4-2.2-1.3-3.7.2-3.1.8.3 1.1 1 .7 1.6-.4.6-.1.7.7.2 1-.6 1.2-.4.7.8-.4 1-.2 1.4.7 1.1.7-.3 1.3-1.1 1.3-1.9 0-.8-.5-1.1-1-.8-.6.4-.8-.1-.4-1.1.4-.9.3-1.5-.1-1.2-.4.2-1.3.1-2-.3-.8-.4-.1-1.3 2-2.5 1.7-1.1 2.8-1.4 2.5-.8-.4.5 0 1.3.9 1.6.8.3 1.2 1.1.8 1.7-.5.8-1 .6-1.6-.5-.5-.9-1.4-1.6-2-1.6-.6 0-.3.9.7 2 1.2 1.4 2.2 1.7 3 1 .6-.5 1.4-.8 1.7-.5.2.3.5-.2.5-1s-.4-1.2-.9-.9c-.4.3-.5-.2-.1-1.1.4-1.2.8-1.3 1.3-.5.9 1.5 2.1 1.5 3.1-.1.6-1 1.1-1 2.3 0 1.3 1.1 1.6 1.1 1.7 0 0-1.1.2-1.1.6-.1.4 1 .8 1 2.1 0 1.6-1.2 1.6-1.1.2.6-1.1 1.4-1.2 2-.3 2.3 1 .4 1 .7 0 1.8-.7.7-1.6 1-2.1.7-.5-.3-.6 0-.2.7.6.9 1.1.9 2.2 0 1.2-1 1.5-1 1.2.2-.2.8-.7 1.7-1.3 2.1-.6.5-.5.8.3.8.6 0 1.2.7 1.2 1.6 0 .8-.4 1.3-.8 1-.5-.3-.9.1-.9.9s.3 1.2.7 1c1.2-.8.9 5.9-.3 7.4-.8 1-.8 1.3-.1.8.7-.4 1.2.3 1.2 1.9 0 1.9-.5 2.4-1.7 2-1.4-.5-1.4-.5-.1.6 1.9 1.5 2.3 7.7.6 9.7-.7 1-.8 1.3 0 .8 1.4-.8 1.3 6.1 0 8.2-.6.9-.5 1.2.1.8 1.4-.9 1.4 5.4 0 7.2-.8 1-.8 1.3-.1.8 1.3-.7 1.4 9.7.1 10.9-.4.4-.7 1.2-.7 1.8 0 .6.5.4 1-.4s1-1.1 1-.5c0 2.5-1.9 3.2-9.5 3.1-4.4-.1-8.6-.5-9.2-.9-.8-.5-1.3-.3-1.3.4s-.3.9-.7.6c-1.2-1.2-1.2-8.2 0-8.9.9-.6.9-.8-.1-.8-.7 0-3.1 1.8-5.3 3.9-5.6 5.3-12.1 7.1-21.4 5.8-5.9-.8-12.1-3.8-11.7-5.6.1-.7-.2-1-.8-.6-1.3.8-4.2-1.4-3.4-2.6.3-.5-.1-.9-.8-.9-.7 0-2.2-1.3-3.3-2.8-1.5-2.2-1.6-2.4-.2-1.3 1.5 1.2 1.7 1.2 1.1-.3-.3-.9-1.4-1.6-2.3-1.6-1.4 0-1.4-.2-.1-1 1.3-.8 1.3-1-.1-1-.9 0-2-.7-2.3-1.6-.5-1.4-.4-1.5.9-.4s1.4 1 .9-.3c-.3-.8-1.2-1.8-1.9-2.1-.8-.3-1.2-1.4-1-2.8.3-1.2-.1-2.6-.8-3.1-.8-.6-.7-.7.5-.3 1 .3 2 0 2.4-.6.4-.6.3-.8-.4-.4s-1-.2-.9-1.4c.1-1.4.6-1.9 1.7-1.5 1.3.4 1.3.4 0-.8-.8-.6-1.6-1.9-1.8-2.7-.2-.8-.9-1.8-1.5-2.2-.6-.4-.9-1-.5-1.3.3-.3 1.3.1 2.2 1 2.4 2.5 1.9.5-.6-2.4-1.3-1.4-1.9-2.3-1.4-1.9.5.4 1.6.2 2.5-.5 1.4-1 1.4-1 .4.3-1 1.3-.8 1.8.6 2.7 1.4.9 1.8.8 1.8-.3 0-.7-.4-1.1-.9-.8-1.2.8-.3-3.6.9-4.4.5-.4 1.5-1.7 2.2-3 .7-1.2 1.6-2 2.1-1.7.5.3 1.2 0 1.6-.7.4-.7.3-1-.1-.5-.5.4-1.7-.1-2.7-1-1.1-1-1.9-1.3-1.8-.8.2.6.1 1.4 0 2-.1.5-.3 1.7-.4 2.5 0 .8-.8 1.5-1.6 1.5-.8.1-1.4.6-1.3 1.2.1.6-.4 1.3-1.1 1.6-1 .4-1.2 0-.9-1.3.3-1.1 1.3-2.2 2.3-2.5 1.9-.6 2.1-2 .6-4.4-.6-.9-.5-1.2.2-.7.6.3 1.3.2 1.7-.4.3-.5.1-1-.6-1s-.9-.3-.6-.6c.4-.4 1.3-.2 2 .4.8.7 1.7.8 2.1.4.4-.4 1.3-.7 1.9-.7.7-.1 1.1-.6 1-1.3-.2-.7.4-1.2 1.2-1.2.8 0 1.5-.5 1.5-1.1 0-.5.6-.7 1.3-.3.8.5.8.2-.2-.9-.9-1.2-1-1.7-.2-1.7.7 0 .9-.5.5-1.1-.6-1.1-2.2.6-2.6 2.8-.1.5-1.2 1.6-2.5 2.6-2.3 1.9-4.4 1.6-4.2-.6 0-.9.2-.9.6 0 .2.7.9 1.3 1.4 1.3.6 0 .7-.4.4-1-.3-.5-.1-1.8.5-2.7.9-1.5 1-1.4.5.7-.6 2.4-.5 2.4.9.6.9-1 1.3-2.3.9-2.9-.3-.6-.1-.7.5-.3.7.4 1.3.2 1.3-.3.1-.6.2-1.5.3-2 0-.5.5-1.3.9-1.8.5-.4.8-.4.7.2-.5 2.4.1 2.7 1.6.9 1.4-1.8 1.5-1.8.4.3-.7 1.5-.7 2.3-.1 2.3s.8.7.5 1.5c-.4.8-.1 1.5.4 1.5.6 0 .9-1.1.6-2.4-.2-1.4 0-2.7.5-3.1.6-.3.7-1.3.4-2.3-.5-1.4-.2-1.3 1.1.3 1.4 1.5 1.6 1.6 1.2.3-.2-.9.1-1.9.9-2.2 1.1-.4 1.2 0 .5 1.7-.4 1.2-1.3 2.1-2 1.9-.6-.1-.8.3-.4.9.4.8.3.9-.4.5-1.8-1.1-1.4 0 .5 1.5 1.4 1.2 1.5 1.2.9 0-.7-1-.3-1.2 1.5-.6 1.6.4 2 .3 1-.3-1.1-.8-1.1-1.3 0-3.3.7-1.3 1.2-2.8 1.1-3.2-.1-.5.2-.6.8-.2.6.3.8 1.1.5 1.6zm86.3-1c-.5 1.4-5.5 2.1-6.2 1-.3-.4.8-.7 2.4-.6 1.7.1 3-.2 3-.7 0-.4.3-.8.6-.8s.4.5.2 1.1zm4.7-.2c-.9.8-3.6 1-3 .2.2-.4 1.1-.8 2-.8.8 0 1.3.3 1 .6zm6.3.6c1.8-.1 3.5.2 3.8.6.2.5 1.1.6 1.9.2.8-.3 1.5-.1 1.5.4s-1.1.9-2.4.9c-1.4 0-2.3-.3-2.1-.6.2-.4-.8-.6-2.2-.5-1.5 0-2.8.6-3.1 1.3-.5 1.5 1.5 1.6 2.4 0 .5-.7 1.1-.5 2.1.7.7 1.1 1.3 1.4 1.3.8 0-1.2 1.8-1.2 3.7 0 .6.4 1.5.2 1.9-.4.5-.8.3-.9-.6-.4-.9.5-1.1.4-.6-.3.8-1.4 4-.1 5.2 2.1.5.9.4.9-.7-.1-1.9-1.7-2.5-1.5-2.6 1 0 1.3.1 1.7.4 1 .3-.6.9-1.2 1.4-1.2.6 0 .7.6.3 1.2-.4.7.2.4 1.4-.6 1.9-1.6 2.2-1.7 2.2-.3 0 .8-.3 1.7-.7 2-.5.2-.2.2.5.1 1.8-.5 4.3.7 3.7 1.7-.3.4.4 1.8 1.6 3 1.4 1.4 1.9 2.9 1.6 4.5-.2 1.3 0 2.4.4 2.4.5 0 .9.4.9 1s-.9.6-2.6 0c-1.4-.6-2.3-.6-2-.1.6.9-7.2.6-8.1-.3-.3-.3-1.4-.1-2.5.5-1.5.8-2.3.7-3.5-.8-.8-1-1.2-1.2-.8-.6.4.8 0 1.3-1 1.3s-1.5-.6-1.2-1.3c1.2-3.1-9.2-5.8-14.3-3.7-2.8 1.2-4.3 4-3.3 6.6.3.8.9 1.4 1.4 1.4.5 0 1.6 1.5 2.4 3.2.8 1.8 1.2 2.3.9 1-.3-1.2-.1-2.2.5-2.2s1.1.4 1.1.9c0 .6.9.8 2 .6 1.3-.3 1.8 0 1.4.7-.5.8-.1.9 1 .5 1-.4 1.5-.3 1.1.3-.3.6-.2 1 .4 1 .5 0 1.3-.5 1.6-1 .4-.7 1.3-.7 2.6 0 1 .6 1.9.7 1.9.3 0-.4.5-.2 1.1.4.6.6 1.8.9 2.5.6.8-.3 1.4 0 1.4.7 0 .6.6.8 1.3.4.6-.4.8-.3.4.1-1 1.2-3.8 1.5-3.2.4.4-.5-.1-.6-.9-.3-1 .4-1.6.1-1.6-.7 0-1.1-.3-1.1-1 .1-.5.8-1 1.9-1 2.5 0 .5.5.3 1-.5.7-1.1 1-1.1 1-.2 0 .7.5 1 1 .7.6-.3 1 .1 1 .9s.4 1.7.9 2c.5.4.7-.4.3-1.6-.3-1.2-.1-1.9.4-1.5.6.3 1.6.2 2.4-.3 1.9-1.2 5.3.8 4.6 2.6-.3.8-.2 1.2.3.9.5-.3 1.2-.1 1.6.5.3.5 1.2 1 1.8 1 .7 0 .4-.5-.5-1.1-1-.5-1.8-1.4-1.8-2 0-.5 1.4.3 3 1.8 1.7 1.4 2.8 2.9 2.4 3.2-.3.3-.9-.1-1.4-.9-.8-1.2-1-1.2-1-.2 0 .8.9 1.6 1.9 1.9 5.3 1.4 2.7 19.5-3 21-1 .3-1.7.9-1.4 1.3.6 1-6.2 4.6-11.4 6-5.2 1.4-15.6 1.6-19.2.4-2.4-.8-3.2-1-5.7-1.2-.7-.1-1.1-.6-.7-1.1.3-.6-.4-.8-1.5-.6-1.2.2-2.3-.2-2.7-1-.3-.8-.9-1.5-1.5-1.5-1.2 0-5.8-4.6-5.8-5.8 0-.5-.7-1.5-1.6-2.3-1.4-1.1-1.4-1.3.1-2.1.8-.5 1.3-1.3 1-1.8-.3-.4.7-1.6 2.1-2.5 1.5-.9 2.4-1.2 2-.7-.3.6-.1 1.2.6 1.4.6.2.8 1 .4 1.6-1.1 1.8-2.6 1.4-1.9-.6.5-1.4.3-1.3-1 .3-1.8 2.3-1.3 3.7 1 2.8 1.2-.5 1.4-.3.8.7-.5.9-.4 1.1.4.6.6-.4.9-1.2.6-1.7-.4-.5-.1-.9.6-.9.6 0 .9-.8.6-2-.3-1 .2-2.5 1-3.1.8-.7 1.3-.8 1.2-.3-.3 1.9.1 2.5 1.4 1.7 1.8-1.1 3.8-1.3 3.1-.1-.3.5.2.8 1.1.6 1-.2 2 .3 2.2.9.3.7 0 1.3-.7 1.3-.6 0-.8-.5-.4-1.2s.3-.8-.5-.4c-.6.4-1.8.4-2.4-.1-.7-.4-.4 0 .7 1 2.4 2.2 4.2 1.7 3.9-1.2-.2-1.3.1-2 .7-1.6.6.3 1 1.2 1 1.9 0 3 9.5 5.3 13.5 3.2 1.1-.6 2.4-1 3-1.1.5 0 1.1-1.7 1.3-3.8.2-2.7-.1-3.9-1.2-4.3-.9-.3-1.3-1.1-.9-1.7.3-.5.1-.7-.5-.3-.6.3-2.3.1-3.9-.5-1.5-.6-3.9-1.3-5.3-1.4-1.4-.1-5.3-1-8.5-2-6.9-2.1-7.2-2.2-8.4-2.4-2-.2-8.8-7.7-8.3-9 .2-.8 0-1.1-.6-.7-.6.3-.9-.1-.7-1.1.1-1-.3-2.4-.9-3.2-.9-1.2-.7-1.2 1.3-.2 1.9 1 2.1 1.5 1 2.2-.8.5-.9.9-.3.9.6 0 1.8-.8 2.5-1.7.8-.9 1-1.4.4-1.1-.5.3-1.9-.4-3-1.5s-1.4-1.7-.7-1.3c.7.4 1.2.2 1.3-.6.1-.7.2-2.7.3-4.3.1-1.7.6-3.8 1.2-4.7.9-1.6 1-1.6 2.2.2 1 1.6.9 2.1-.6 3.2-.9.7-1.8 2.6-1.9 4.2-.1 2 .2 2.5.8 1.5.8-1.3 1.3-.5 1 1.4-.1.5.3.6.9.2.6-.4.4-1.4-.5-2.9-1.4-2.2-1.2-3.6.7-3.6.5 0 .6.5.2 1.2-.4.7-.3.8.4.4.6-.4.8-1.4.5-2.4-.6-1.4-.4-1.5.9-.4 1.3 1 1.8 1 2.4.1.4-.7.3-.9-.4-.5-.6.3-1.7-.4-2.4-1.6-1.7-3.2-1.8-4.5-.2-4.5 1.7 0 1.9 1.7.2 1.7-.7 0-.4.6.7 1.2 2.5 1.5 4.7 1.9 3.9.7-.3-.5-1-.7-1.5-.4-.5.4-.9-.1-.9-.9 0-.9.5-1.5 1.2-1.4.7.2 1.2-.7 1.3-1.9 0-1.2.4-2.5.9-3 .5-.4.6-.3.2.4-.4.8.1 1.1 1.4 1 2.2-.1 2.7-1.3.8-2-.8-.4-.9-.6-.2-.6 1.6-.1 4.6 4.6 3.3 5.3-.5.2-.4.3.3.2.7-.2 1.4-.8 1.4-1.4.1-.7.2-1.7.3-2.2 0-.6.6-1 1.2-1s.8 1 .5 2.2l-.6 2.3 1.1-2.3c.8-1.5 2.1-2.2 4.1-2.2 1.7 0 3.1-.6 3.5-1.6.3-.9.9-1.2 1.2-.7.3.5 2.1.8 3.9.8zm-86.8.3c0 1.3-1.2 2.2-2.2 1.6-1-.6-.1-2.4 1.3-2.4.5 0 .9.4.9.8zm123 2.3c0-.5-.8-1.5-1.7-2-1-.6-1.3-1.1-.7-1.1 2.1 0 3.8 2.9 2.5 4.4-.9 1-.8 1.5.3 1.9.9.4 1.8.1 2.2-.5.4-.7.3-.8-.4-.4-1.8 1.1-1.4-.8.6-3.2 1.8-2 1.8-2 3-.1.7 1 .8 1.9.3 1.9s-1.1-.5-1.3-1.2c-.3-.8-.6-.9-1.1-.1-.3.5.4 1.5 1.8 2.1 2.1 1 2.3.9 2-.9-.2-1-.7-2.4-1.1-3-.3-.6.5-.3 2 .6 1.4 1 2.6 1.3 2.6.9.1-.5.6.1 1.4 1.4 1.1 2 1.4 2.1 2.5.9.9-1.2.9-1.7 0-2.3-.8-.4-.9-.3-.5.4s.2 1.2-.3 1.2c-1.3 0-1.4-1-.2-2.8.7-1.1.9-1 1.5.3.3.9 1 1.3 1.6 1 1.6-1 1.2.6-.7 2.9-1.7 2-1.7 2 0 .7.9-.8 1.9-1.2 2.1-1 1.1 1.5 3.5 9.2 3.1 10-.4.5-.1.9.4.9.6 0 1.1.8 1.1 1.8s.5 2.3 1.1 2.9c.5.5 1.1 2.6 1.2 4.6.1 1.9.5 3.3 1 3 .7-.4.9.1 1.1 2.9.1.7.4 1.6.9 1.9.4.3.9 2 1 3.7.1 1.8.6 3.2 1 3.2.5 0 .5.4.2 1-.3.5-.2 1 .4 1 .5 0 1.3 1 1.6 2.1.6 1.6.9 1.8 1.5.8.5-.7.6-1.7.4-2.1-.3-.4 0-.8.6-.8s.9-.3.6-.8c-.2-.4.2-1.8 1-3.2.7-1.4 1.3-1.9 1.4-1.3 0 1.6 3 1.7 3 .2 0-.5.4-.8.8-.5.5.3.9-.1.9-.9s-.4-1.2-.8-1c-.4.3-1-.2-1.3-1.1-.5-1.3-.2-1.5 1.4-1.1 1.7.4 1.9.3 1-.8-.6-.8-1.9-1.1-2.8-.8-1.3.4-1.4.3-.3-.5.7-.5 1-1.6.7-2.3-.5-.9-.3-.9.6.1 3.3 3.8 5 4.2 2.3.6-2.6-3.4-2.7-3.8-.8-2.8 1.7.9 2.3.9 2.9 0 .4-.7.4-1-.1-.6-1.6 1.5-3.5-1.3-2.4-3.3.5-1 .7-1.9.3-1.9-.3 0-.1-.7.6-1.5.6-.8.9-1.9.5-2.4-.3-.6 0-.8.9-.5 1.1.4 1.4-.1 1.2-2-.2-1.5.1-2.3.7-1.9.6.4.8 0 .4-1.1-.4-1-.3-1.5.3-1.1.6.3 1 .2 1-.3s.7-.9 1.5-.9c1 0 1.4.6 1 1.6-.3 1.1-.1 1 1-.3.8-1 1.2-2.3.9-2.7-.6-1.1.9-1.2 2.2-.2.5.5.4.2-.3-.6-1.1-1.3-1.5-1.2-3 .2-1.3 1.1-2.3 1.3-3.3.7-1.1-.7-1.1-1-.2-1.1.6-.1 1.7-.2 2.4-.3.6 0 1.3-.6 1.5-1.3.3-.8-.4-1.1-1.8-.8-1.2.2-1.9.1-1.5-.2 1.1-1.2 4-1.2 4.7-.1.4.6 1.2.7 1.9.3.9-.6.6-1.2-1.1-2.1-2.4-1.3-2.4-1.3-.1-1.1 1.2.1 2.2.6 2.2 1.2 0 .5.5.3 1.1-.5.9-1.2 1-1.2.5.4-.5 1.4-.2 1.7 1 1.2.8-.3 2.1-.6 2.7-.6.8 0 .7-.4-.2-.9-.9-.6-.5-.8 1.5-.7 1.6.1 3.5.5 4.2.9.7.5 1.2.4 1.2-.2 0-.6.4-1.1.9-1.1 1.4 0 .8 2.4-2.9 11.8-1.9 4.7-3.7 7.9-4.3 7.5-.6-.3-.7-.1-.3.5.6 1-.7 4.5-5.2 14.2-.9 1.9-1.7 3.7-1.7 4-.5 2.5-1.8 4.9-2.6 4.5-.5-.3-.7 0-.4.7.7 1.7-6 17-7 16-.5-.4-.5-.2-.1.5.7 1.2-4.1 12.6-5.5 13.1-.5.2-.7.7-.4 1.2.8 1.3-1.7 6-2.8 5.3-.6-.4-.7-.1-.2.6.4.7.3 2.3-.3 3.4-2.7 5.8-5.6 12.3-5.7 12.7 0 .3-.6 1.9-1.3 3.6-1.2 2.7-1.9 3.2-4.8 3.2-2 0-3.8.3-4.1.6-.4.3-1.7-.1-3.1-1-1.3-.9-2.2-1.2-1.9-.7.4.6-.7 1-2.4 1.1-1.6 0-2.7-.4-2.4-.9.8-1.3-.9-1.1-2.2.2-.8.8-1.3.8-1.8 0-.4-.7-.1-1 .7-.9.7.2 1.2-.5 1.2-1.4-.1-1 .1-1.7.5-1.6.3 0 1.7 0 3.1-.2 2.3-.1 2.3-.2.5-.9-1.1-.5-2.4-.6-2.8-.4-.5.3-.3-.4.5-1.6 1.5-2.4 2.4-2.6 3.4-.9.4.6.3.8-.4.4-.6-.3-1.3-.3-1.6.2-.2.4.4.9 1.5.9 2.6.2 2.4-2.4-.3-3.3-2-.6-2-.7-.3-1.6 1.4-.8 1.5-1.2.4-1.9s-1.1-.9-.1-.9c.7 0 1-.5.7-1-.3-.6-.1-1 .5-1s.8-.5.4-1.3c-.5-.8-.2-.8.9.2.9.7 1.7 1.9 1.7 2.5 0 .7-.4.6-.9-.2-.7-1.1-.9-1-1.4.3-.5 1.1-.3 1.4.6.9.9-.6.9-.4-.1.8-1 1.3-.9 1.8.5 2.9 1 .7 1.5.9 1.1.5-.4-.5 0-1.5 1-2.3 1.6-1.2 1.5-1.3-.3-.6-1.7.6-1.8.5-.7-.9 1-1.3 1.1-2.2.2-3.7-.6-1.2-.7-2.1-.3-2.1.4 0 .2-.4-.5-.8-1.2-.8-1.2-.9 4.9-6.7l2.2-2-.6 2.4c-.4 1.7-.3 2.1.5 1.3.6-.6.7-1.8.3-2.9-1.4-3.3-1.3-4.3.3-4.4 1.1 0 .7-.4-.8-1-1.4-.5-3-2.2-3.6-3.7-1.1-2.8-.8-5.6.5-4.8.4.3.8-.1.8-.8 0-.7-.6-1.3-1.3-1.3-.7 0-1.1.4-.8.8.2.4.1 1-.4 1.3-.5.3-.9 0-.9-.7s-.8-2.9-1.7-4.9c-1.5-3.5-1.5-3.7.1-3.1 1.1.4 1.4.3.9-.5-.4-.7-1.3-1.2-1.9-1.2-.7 0-1.7-1.1-2.4-2.5-.6-1.4-.7-2.3-.2-1.9.5.3.9 0 .9-.5 0-.6-.4-1.1-1-1.1-1.4 0-1.2-2.7.3-3.4.6-.3.1-.3-1.2 0-1.4.4-2.1.2-1.8-.4.4-.5-.2-2.7-1.3-4.9-1-2.2-2-4.6-2.2-5.4-.2-.8-.7-1.8-1.3-2.2-.5-.5 0-.6 1.2-.2 2.3.6 4-.9 2.2-2.1-.8-.4-.9-.3-.5.4 1.2 1.9-1.2 1.4-3.4-.8-1.8-1.8-1.8-5.6 0-4.5.5.3.7-.3.6-1.2-.2-.9-.8-1.9-1.4-2.1-.6-.2-.8-1.1-.5-2 .4-1.5.3-1.5-.6-.2-.8 1.1-.7 1.8.5 2.7 1.1.8 1.2 1.3.4 1.8-1.3.8-1.2.9-2.8-2.9-1.1-2.4-1.1-3.1 0-3.7 1-.7.9-.9-.3-.9-1.8 0-3.3-2.6-2.4-4 .3-.5.1-1.2-.5-1.5-.8-.5-.7-1.2.2-2.3 1.1-1.4 1-1.5-.7-.8-1.1.4-1.6.4-1.2 0 .4-.4.1-1.4-.6-2.3-.6-.8.3-.5 2.1.8 1.7 1.2 3.2 1.8 3.2 1.2zm13-2.1c0 .4-.7.7-1.5.6-2.3-.3-2.6-1.2-.5-1.3 1.1-.1 2 .2 2 .7zm-73.6 4.6c.3.8.2 1.2-.4.9-.6-.3-1-1-1-1.6 0-1.4.7-1.1 1.4.7zM509 446c0 .5-.5 1-1.1 1-.5 0-.7-.5-.4-1 .3-.6.8-1 1.1-1 .2 0 .4.4.4 1zm-86 2c0 .5-.5 1-1.1 1-.5 0-.7-.5-.4-1 .3-.6.8-1 1.1-1 .2 0 .4.4.4 1zm-150.4 6c0 1.2-.4 1.6-.9 1.1s-.6-1.4-.3-2c1-1.5 1.2-1.4 1.2.9zm-.2 4.6c.3.8.2 1.2-.4.9-.6-.3-1-1-1-1.6 0-1.4.7-1.1 1.4.7zm.6 5.6c0 1.9-1.6.5-1.7-1.4-.2-1.8 0-2 .7-.8.5.8 1 1.8 1 2.2zm147.6 1.2c-.2 3.8-1.2 3.9-1.2.1 0-1.8.3-3.2.7-3 .3.3.5 1.5.5 2.9zm199.9-1.5c.3.5.1 1.2-.4 1.5-.5.3-1.1-.1-1.5-.9-.6-1.6.9-2.1 1.9-.6zm-110.4 14.4c-1 .9-1.1.8-.5-.6.3-1 .9-1.5 1.2-1.2.3.3 0 1.1-.7 1.8zM273 481.4c0 .3-.4.8-1 1.1-.5.3-1 .1-1-.4 0-.6.5-1.1 1-1.1.6 0 1 .2 1 .4zm0 6c0 .3-.4.8-1 1.1-.5.3-1 .1-1-.4 0-.6.5-1.1 1-1.1.6 0 1 .2 1 .4zm498.7 3.3c0 .8-1.3 2.1-2.8 2.8-2.3 1.2-2.8 1.2-3.2.1-.4-1 .1-1.2 1.6-.9 2.2.4 2.2.4.2-1.3-1.7-1.4-1.7-1.6-.2-1.1.9.4 1.7.3 1.7-.2 0-.4.6-.8 1.3-.8.8 0 1.4.7 1.4 1.4zm-499.4 6.8c-.7 2.1-1.2 1.9-1-.4 0-1.1.5-1.8.9-1.5.4.3.5 1.1.1 1.9zM757 497c0 2.4-1.5 2.7-2.4.4-.3-.8-.2-1.2.4-.9.6.3 1 .1 1-.4 0-.6.2-1.1.5-1.1s.5.9.5 2zm-573.4 1.4c2.4-.9 1.6 0-1.5 1.6-1.5.8-2.1.8-1.7.1 1-1.5-.7-1.4-2.3.1-1.1 1.1-1.1.9 0-.9.9-1.5 1.7-1.9 2.5-1.2.6.5 2 .6 3 .3zm533.2-.5c-.3 2.6.3 3.1 1.8 1.7 1.9-1.9 4-1.1 2.4.9-.6.7-2.7 1.2-5 1.1-4.4-.3-5.5-.9-4.5-2.6.5-.8 1.3-.6 2.6.6 1.9 1.8 2.7.6.9-1.2-.7-.7-.6-1.1.4-1.1.8 0 1.5.3 1.4.6zm27.8.6c-.1.8-.7 2-1.3 2.6-.9.9-1.1.7-.8-.7.2-1.1.4-2.2.4-2.7.1-.4.5-.7 1-.7s.8.7.7 1.5zm-143 2c-.2 3-2 5.2-3.1 3.6-.3-.6-.3-1.1.2-1 2 .3 2.7-.2 1.3-1.1-.9-.6-1.1-1-.3-1 .7 0 1-.7.7-1.5-.4-.8-.2-1.5.3-1.5.6 0 .9 1.1.9 2.5zm124.2-1.3c.9.9 1.2.9 1.2-.1 0-.7.5-1.1 1.1-.9.6.2.9.8.7 1.3-.4 1.3-3.8 1.7-3.8.4 0-.5-.4-.7-1-.4-.5.3-1 .1-1-.4 0-1.4 1.3-1.4 2.8.1zm9.4.4c-.9.7-1.9.8-2 .3-.2-.5-.8-.7-1.3-.3-.5.3-.9.1-.9-.4s1.3-.9 3-.9c2.6 0 2.7.2 1.2 1.3zM272.6 502c0 1.2-.4 1.6-.9 1.1s-.6-1.4-.3-2c1-1.5 1.2-1.4 1.2.9zm-.2 4.6c.3.8.2 1.2-.4.9-.6-.3-1-1-1-1.6 0-1.4.7-1.1 1.4.7zm420.9 16.9c-.3.9-.8 1.4-1 1.1-.3-.3-.2-.9.2-1.5.9-1.6 1.5-1.3.8.4zM275 525c0 .4-.6 1.3-1.4 1.9-1.5 1.3-3.2-.1-2.2-1.7.6-1 3.6-1.1 3.6-.2zm-2.5 12.9c.3.5.2 1.2-.3 1.5-.5.3-.9-.1-.9-.9 0-1.7.3-1.9 1.2-.6zM275 557c0 .4-.6 1.3-1.4 1.9-1.5 1.3-3.2-.1-2.2-1.7.6-1 3.6-1.1 3.6-.2zm84.9 6.4c.9 1 .8 1.5-.3 1.9-1.1.4-1.3.1-1-1.1.3-.9-.2-.6-1 .8s-1.5 2.1-1.6 1.7c0-.4-1-.2-2.2.4-2.1 1.1-2.2 1.1-.9-.4.7-1 2-1.7 2.8-1.7.8 0 1.2-.4.9-.9-.4-.5 0-1.2.6-1.4l1.4-.6c.1-.1.7.5 1.3 1.3zm2.7-.5c-.3.5.6 1.2 2 1.5 2.3.6 2.4.9 1.3 2.4-1.1 1.3-.8 1.3.9-.2 2.1-1.8 2.8-1.3 2.3 1.7-.1.5.3.6.8.2.6-.3.7-1.3.4-2.3-.6-1.5-.5-1.6 1.2-.2 1 .8 1.6 1 1.2.3-.9-1.5 3.2-1.4 5.2.1 1.1.8 1.3.8.8 0-.4-.7.3-1.2 1.8-1.2 2.2 0 2.4.3 1.3 1.7-1 1.3-.9 1.3.7-.1 1.7-1.6 2-1.6 4.9.3 3 2 3.1 2 .8.1-1.2-1.1-1.8-2.3-1.3-2.6.5-.3 1.4.1 2.1.9 1.3 1.6 3.5 2.1 2.6.6-.4-.5 0-1.2.6-1.5.7-.3.2-.3-1.2 0-1.8.4-2.1.3-1.1-.4s.5-.9-1.7-.9c-1.7.1-2.9.4-2.7.8.2.3-.2.6-1 .6s-1.5-.5-1.5-1-.8-.3-1.7.4c-1.1 1-1.4 1-.9.1.8-1.3-.6-1.7-1.8-.5-1.1 1.1-7.5.9-8-.2-.4-1.2 4.5-1.2 6.3-.1.5.4 1.2.3 1.5-.2.3-.5 3.3-.7 6.8-.5 11.4.5 15.8 1.5 15.8 3.5 0 .6-.8.4-1.7-.3-1.6-1.3-1.7-1.2-.5.3 1.5 1.8 4.6 1.3 3.5-.6-.4-.7-.1-.7.9.1.8.7 1.8 1 2.1.6.4-.3.9.2 1.3 1.1.3.9 1.2 1.6 2 1.6s1.4.7 1.4 1.6c0 .9.5 1.2 1.2.8.6-.4.8-.3.4.4-.3.5 0 1.2.6 1.5 1 .3 1 .9.1 2.5s-1 2.3-.1 2.8c.6.4.8.3.5-.3-.4-.6.1-1.7 1-2.4 1.2-1 1.4-1 .9-.2-.4.8-.2 1.3.4 1.3.6 0 .8.4.5 1-.3.5 0 1 .7 1 .9 0 .9.3-.2 1-1.3.8-1.2 1 .4 1 1.1 0 1.7.3 1.3.6-.3.3-.2 1.7.3 3 .6 1.4.6 2.6-.1 2.9-.5.4-.6 1.2-.2 1.8 1.2 1.9.3 5.8-2.4 11.5-2.6 5.4-5.9 8.5-12.3 11.7-1.9 1-3.6 1.9-3.8 2-.2.2.4 1.5 1.3 2.9s1.3 3.1.9 3.7c-.4.7-.3.9.3.6 1.3-.8 2.6 2 1.6 3.5-.3.6-.1.8.4.5.6-.4 1.7.1 2.4 1 1.2 1.4 1.2 1.6-.1.9-.9-.4-.8-.2.2.7 1 .8 1.5 1.7 1.1 2-.3.4-.1.7.6.7s1 .4.7.9c-.3.5.1 1.2 1 1.5.9.4 1.4 1.3 1 2.2-.4 1-.2 1.3.6.8s.9-.2.5.9c-.4 1-.2 1.6.4 1.4.6-.1 2.3 2 3.7 4.8 1.5 2.7 3.1 5.3 3.6 5.6.5.4-2.5.7-6.6.6-4.1 0-7.9.3-8.4.6-.6.3-1.6.2-2.3-.2-.7-.5-2.6-.7-4.2-.5-2.2.3-2.8 0-2.2-.8 1-1.8 1.1-4.8.1-4.2-.5.4-.7 1.2-.4 2 .7 1.9.2 1.8-1.8-.5-1.3-1.4-1.4-2.1-.5-2.7.8-.5 1-.3.4.6-.5.9-.4 1.1.4.6 1.6-1 .4-2.6-1.4-1.9-1.8.6-2-1.3-.2-2.1.6-.3.3-.4-.7-.3-1 .1-2.1-.4-2.3-1.1-.3-.7.1-1 1-.6 1.8.7 3.2-1.2 1.6-2.2-.8-.4-.9-.3-.5.4 1.1 1.8-1 1.4-2.8-.4-2.5-2.5-3.6-5-3.1-7.3.2-1.2 0-1.9-.6-1.6-.5.4-.6 1.2-.2 1.8.4.7-.1.6-1-.2-1-.8-1.5-1.6-1.2-1.9.3-.3-.3-1.5-1.2-2.6-1.4-1.6-1.4-1.8-.3-1.1.9.6.8.2-.3-.7-1-1-1.5-2.3-1.1-2.9.4-.7.3-.9-.3-.6-.6.4-1.8-.4-2.7-1.8-2.3-3.5-4.1-2.3-4 2.8.1 2.3-.4 4.8-1 5.6-.7 1-.7 1.3 0 .9.7-.5 1 3.1 1 11.2l-.1 11.9-6.9.3c-7.3.3-8 .1-8.9-2.2-.4-1.2-.6-1.2-.6.2-.1 1.7-2.4 1.9-3.8.3-.4-.4-.3-.6.2-.3.6.3 1.9-.4 2.9-1.5 1.6-1.7 1.7-1.9.3-1.4-1.8.7-2.4-.8-.7-1.8.6-.3 1-1.2.9-1.8 0-.9-.2-.8-.6.1-.2.6-1 .9-1.6.5-.7-.3-.9-.3-.5.2.4.4.3 1.4-.3 2.2-.9 1-.8 1.3.1 1.3.8 0 1.1.3.7.6-1 1-2.8-.7-2-1.9 1.1-1.7 1.2-13 .1-14.4-.5-.7-.5-1.4.2-1.8 1.2-.7 1-13.4-.3-14.2-.4-.2-.3-1.1.3-1.8 1.3-1.6 1-6.6-.5-7.8-.6-.5-.3-.7.8-.3.9.3 1.7.1 1.7-.4 0-.6-.6-1-1.2-1-.7 0-.5-.5.5-1.1 1.9-1.1 2.3-2.9.6-2.9-.5 0-.7.5-.3 1.2.4.6.3.8-.3.5-.6-.4-.8-1.9-.5-3.3.4-2 .2-2.5-.8-1.9-1 .6-1.1.4-.4-.6 1.2-2 1.4-3.8.3-4.5-.5-.3-.4-1.4.3-2.7 1.4-2.6 1.4-2.7-.4-3.8-1-.7-.9-.9.3-.9 1.3 0 1.6.8 1.4 3.7-.2 4.3 1.9 7.3 3.8 5.4.9-1 .9-1.2-.3-.9-.8.2-1.5-.4-1.5-1.2 0-.8.7-1.4 1.5-1.2 1 .1.9-.3-.5-1.5-1.1-1-1.9-2.6-1.7-3.6.2-1.1-.3-1.7-1.5-1.7-1.3 0-1.5-.2-.5-.9 1-.6 1-1-.3-2.1-.9-.8-1.2-1.7-.6-2.4 1.1-1.4 1-4.6-.1-4.6-.4 0 .2-1.1 1.3-2.4 1.1-1.3 2.8-2.3 3.7-2.1 1 .2 1.7.4 1.7.5 0 .1.7.3 1.6.5 1.3.2 1.6-.4 1.3-3.1-.1-1.9.2-3.4.7-3.4.6 0 .8.4.5.9zm4 .2c.5.8.9.8 1.4-.1.5-.8.9-.8 1.3.3.6 1.7-.9 1.7-3.8-.1-1.1-.6-1.5-1.2-.8-1.2.6 0 1.5.5 1.9 1.1zm-12.6.9c-.8.5-1.9 1-2.5 1-.5 0-.3-.5.5-1s2-1 2.5-1c.6 0 .3.5-.5 1zm7 2.4c0 .3-.4.8-1 1.1-.5.3-1 .1-1-.4 0-.6.5-1.1 1-1.1.6 0 1 .2 1 .4zm333 1c0 .3-.4.8-1 1.1-.5.3-1 .1-1-.4 0-.6.5-1.1 1-1.1.6 0 1 .2 1 .4zm-421.5 2.5c.3.5.2 1.2-.3 1.5-.5.3-.9-.1-.9-.9 0-1.7.3-1.9 1.2-.6zm-.5 6.1c0 .5-.5 1-1.1 1-.5 0-.7-.5-.4-1 .3-.6.8-1 1.1-1 .2 0 .4.4.4 1zm197.1 4.6c.8-.4.5-.1-.5.8-1 .8-2.3 1.3-2.8.9-.6-.3-.5.4.1 1.6 1.3 2.4 2.3 2.8 1.5.6-.4-1 0-1.5 1.1-1.5.9 0 1.3.4 1 1-.3.5-.1 1 .5 1 .7 0 1-.6.7-1.3-.3-.8-.1-2 .4-2.8.6-1 .9-1 .9-.2 0 .7.5 1.3 1.1 1.3.5 0 .7-.5.3-1.1-.4-.7.3-.6 1.7.2 1.3.7 2.5 1.2 2.6 1.1.2-.1 1 .1 1.8.4 1.8.7 2 3 .3 3.7-.7.3-.3.4.9.4 1.8-.1 2.2-.6 1.8-2.2-.3-1.1-.2-1.4.1-.7.3.6 1.1.9 1.7.5.6-.4.8 0 .4 1-.3 1-.2 1.7.3 1.7.6 0 1-.5 1-1.1 0-.6.7-.3 1.6.6.9.9 1.3 1.9 1 2.3-.4.3-1.1 0-1.6-.8-.6-.9-1-1-1-.3 0 1.9 2 2.6 3.5 1.3 1.2-1 1.5-.9 1.5.3 0 .9.5 1.9 1.2 2.3.7.5.8.3.3-.6-.5-.8-.4-1.1.3-.6.6.4.9 1.3.6 2.1-.4.8-1.1 1.2-1.7.8-.6-.3-.7-.1-.3.6.6.8 1.2.9 2 .2 1-.8 1.8-.1 3.2 2.7 1 2 2.2 3.8 2.6 4 .4.2.4 1 .1 1.8-.3.8 0 2.1.7 2.9.7.8 1 2.6.8 4-.3 1.4-.2 2.5.1 2.5.3 0 .4 2.2.3 4.9l-.4 4.9-20.1.1c-11.1 0-22.1 0-24.4.1-5 0-5 .8-.4 7.6 1.9 2.7 3.1 4 2.7 3-.5-1.6-.4-1.7.9-.6.8.7 1.2 1.7.8 2.4-.5.8-.3.8.8 0 2.2-1.9 5.8-1.1 8 1.6 1.1 1.5 1.7 1.8 1.3.7-.4-1.2-.2-1.6.8-1.2.8.3 2.1-.2 2.9-1.1.8-1 .9-1.5.2-1.1-.6.4-1.5.2-1.9-.4-.4-.8-.3-.9.4-.5 1.1.7 1.7-.6 1.3-2.7-.1-.5.2-.6.7-.3.5.3.8 1.9.7 3.6-.1 1.7.2 3.3.7 3.6.5.3.8.2.7-.3-.4-2.2.2-3.4 1.4-2.7.8.6.8.3-.1-.9-.8-.9-1.1-2-.8-2.6.3-.5 0-1.1-.6-1.3-.7-.3.3-.5 2.4-.5 2.6 0 3.5.4 3.1 1.4-.4 1-.9 1.1-1.9.2-.8-.6-1.4-.9-1.4-.5v1.1c0 .3.2.4.3.2.2-.1 1.1.4 2 1.2 1 .7 1.8 1 1.8.5.1-.5.2-1.6.3-2.4.1-1.2 1.5-1.5 6.6-1.5 3.6 0 7-.3 7.6-.7.6-.4 1.1-.1 1.1.7 0 .8-.4 1.2-.9.9-.4-.3-.8.2-.8 1 0 2.6-2.2 6.6-3.3 5.9-.6-.3-.7-.1-.3.5.4.7-.4 2.4-1.8 3.9-1.5 1.5-2.6 2.4-2.6 1.9 0-.4-.8.1-1.7 1.2-1 1.2-2.5 2.2-3.3 2.4-.8.2-2 .8-2.7 1.5-2.9 2.7-18 3.8-25.8 1.9-1.1-.2-2.4-.5-2.8-.5-.5-.1-.5-.6-.1-1.3.4-.7.3-.8-.4-.4-2.1 1.3-11.2-4.9-11.2-7.6 0-.5-.4-.6-1-.3-.5.3-1 .1-1-.5s-1.1-2.3-2.5-3.8c-1.6-1.7-2.3-3.3-1.9-4.6.4-1.3.3-1.6-.6-1.1-.8.5-1.1.4-.7-.2.4-.6 1.8-.9 3.2-.8 1.4.2 2.3 0 2-.4-.2-.4-1.7-.7-3.3-.6-2.3.1-2.8-.2-2.7-1.9.1-1.2 0-2.6-.4-3.1-1-1.8-1-3.5.1-3.5.6 0 .7.8.4 1.7-.5 1.1.1.9 1.7-.7 2.5-2.7 2.7-4.1.2-2-1.1.9-1.5.9-1.5.1 0-.7-.3-1-.8-.7-.4.2-.7-2-.7-5 0-3.4.3-5 .9-4.4 1.2 1.2 1.7 4.2.7 3.5-.4-.2-.7.6-.7 1.8.2 2.2.6 2.7 2.8 2.7.6 0 .4-.6-.7-1.3-1.7-1.3-1.7-1.4.4-2.9 2-1.4 2.1-1.6.4-2.2-1.7-.7-1.7-.8.1-2.1 1-.8 1.5-1.8 1.2-2.4-.4-.5-.2-1.2.3-1.6 1.3-.7.5-4.6-1.1-5.7-.7-.4-.9-.8-.4-.8s1.8.8 2.9 1.7c1.9 1.7 2 1.7.8-.5-1-1.8-.9-2.2.4-2.2.8 0 1.5-.5 1.5-1.1 0-.6-.9-.8-2.1-.4-1.5.5-1.9.4-1.5-.4.4-.6 1.6-1.1 2.7-1.1s1.8-.4 1.5-.8c-.2-.4-.1-1.4.3-2.1.6-1 1-.9 1.4.4.4.9.3 1.4-.1 1.1-.5-.3-.8.8-.8 2.3 0 1.5.5 2.8 1.1 2.8.6 0 1.2-.6 1.2-1.3 0-.7-.5-1-1-.7-.5.3-.7 0-.5-.8.3-.8 1.4-1.3 2.4-1.1 1.5.2 1.6.1.5-.7-.8-.5-1.6-1.7-1.7-2.6-.1-.9 0-1.4.3-1.1.3.3 1.1-.1 1.7-.9.7-.9 1.6-1.2 2.5-.6.9.6 1 1.1.2 1.5-.6.4-1.1.1-1.1-.6 0-.9-.3-.9-1 .2-1.4 2.2-1.2 2.9.9 2.7 1.1 0 1.8-.4 1.5-.8-.2-.4 0-1 .6-1.4.5-.3 1-.1 1 .4 0 .6.5 1.1 1 1.1.6 0 .9-.6.8-1.3-.2-.8.8-1.1 2.7-1 1.7.1 2.2-.1 1.3-.4-1-.2-1.8-.8-1.8-1.2 0-.4-1-.8-2.2-.8-1.6-.2-1.9 0-.9.6.9.6 1 1.1.2 1.5-.6.4-1.1.3-1.1-.3 0-.5-1.2-1.4-2.7-2l-2.8-1.1 2.8.5c2.1.4 2.7.2 2.7-1.2 0-1.5.2-1.5.9-.4.5.8 1.8 1.6 2.8 1.7 1.7.3 1.7.2-.1-1.2-1.9-1.3-1.1-2 1.7-1.5.4 0 .7-.4.7-1.1 0-.6.3-.8.6-.5.4.4.1 1.3-.6 2.2-.9 1.1-.9 1.5-.1 1.5.7 0 .9.4.6 1-.3.5-.1 1 .4 1 1.1 0 1.5-1.2 1.2-4-.1-1 .5-.8 1.8.7 2 2.4 4.1 3 4.1 1.4 0-.6-.5-1.3-1.2-1.7-.7-.4-.8-.3-.4.4s.5 1.2.2 1.2-1-.8-1.5-1.9c-.9-1.6-.7-1.8 1.4-1.5 1.4.1 2.5-.3 2.5-.9 0-.8.4-.7.9.2.5.7 1.5 1 2.2.7zm72.2.3c-.4 1.3.3 1.4 2.6.2 1.3-.7 1.8-.6 1.8.4 0 .7-.5 1.2-1.1 1.1-.6-.2-.7-.1-.3.2.4.2.2 1.1-.5 2-.7 1-.8 1.4-.4 1 .5-.4 1.5-.3 2.2.3.8.7 1.4.7 1.9-.1.4-.6.2-.9-.3-.8-.6.2-.9-.2-.8-.7 0-.6.4-.9.8-.8.4.2.5-.3.2-1.1s0-1.7.6-2.1c.6-.3.9-.1.8.6-.2.6.3 1.4 1.1 1.7.8.2 1.1 0 .7-.6-.5-.8 2.1-1 3.2-.2.1.2.7.3 1.2.4.6 0 1.4.7 1.9 1.4.5.8 1.1 1.3 1.5 1.3 1.7-.3 2.5.1 5.5 2.8 3 2.7 3.1 2.9 1 2.5-1.8-.3-1.7-.2.5.7 2.1.9 2.5 1.4 1.5 2-1.1.7-1.1.9.2.9 1.7 0 3.4 4.3 2.4 6-.3.4.1 1.1.7 1.3.7.3-3.8.6-9.9.5-10.3 0-11.3-.2-11.3-1.8 0-1-.9-2.2-2-2.5-1.1-.3-2-1-2-1.4 0-.4-2-.6-4.4-.6-5.1.2-9.6 2.7-9.6 5.5 0 2.2 3.7 6 5.8 6 .9 0 1.1.7.7 2.2-.6 2.2-.5 2.2.8-.1.9-1.6 1.7-2 2.1-1.2.4.6 1.1.9 1.5.7 1.1-.7 3.6 1.2 2.8 2.1-.5.4-1.1.3-1.5-.2-.9-1.3-4.2-1.8-4.2-.7 0 .5.7 1.5 1.5 2.2.8.7 1.2 1.7.8 2.3-.3.6-.1.7.6.3.9-.6.9-1.1-.1-2.4-1.1-1.3-1-1.5.5-.9 2.5.9 4.7-.2 4.1-2.1-.5-1.6-.5-1.6.5 0 .7 1 2 1.5 3.4 1.3 1.6-.3 2.5.2 3.4 2.2.7 1.4 1 3 .7 3.4-.3.5-.3.9 0 .9s1-.9 1.6-2c.8-1.5.8-2-.1-1.8-.6.2-1.4-.4-1.6-1.2-.3-1-.2-1.1.4-.4.4.6 1.6 1 2.6.8.9-.1 1.7.2 1.7.7 0 .6.5.7 1 .4.6-.3 1-.1 1 .5s.3.9.8.7c.4-.3 2.3 1 4.2 2.9 1.9 1.9 2.9 3.4 2.2 3.4-.7 0-1.2-.5-1.2-1 0-.6-1.2-1.5-2.6-2-1.4-.6-2.3-1.4-1.9-1.9.3-.6-.4-.8-1.5-.6-1.1.2-2 0-2-.6 0-.5-.4-.9-.8-.9-.5 0-.9.6-.9 1.4 0 .8.8 1.3 1.9 1.1 1-.2 1.8 0 1.8.5s1.1 1.2 2.4 1.6c1.4.3 2.7 1.2 3 2 .3.8 1.2 1.4 2.1 1.4.8 0 1.5.6 1.5 1.4 0 .8.3 2.2.7 3.2.5 1.3.3 1.5-.8.9-1.2-.7-1.2-.6-.1.7 2.5 3.1-.5 10.7-6 15.3-4.1 3.5-11.7 6.8-14 6.2-1-.3-1.6-.2-1.3.3.3.4-2.6.8-6.5.9-3.8 0-7.2-.3-7.5-.9-.3-.5-1.1-.7-1.9-.4-.7.3-2.6-.1-4.2-.7-1.6-.7-3.6-1.3-4.4-1.5-.8-.2-2-1.1-2.7-2-.7-1-1.3-1.4-1.3-.8 0 .5-1.6-.9-3.5-3-1.9-2.2-3.3-4.2-3-4.4.3-.3 0-1.1-.6-1.8-.7-.8-.7-1.4.1-1.9.5-.3 1-1.1 1-1.6 0-.6-.4-.8-.9-.4-.5.3-1.3.1-1.6-.5-.4-.6-.3-1 .2-.9.4.1 1 0 1.3-.1 2-.8 3.9-.7 3.4.2-.4.6-.1.8.7.6.8-.3 1.3-1.1 1.1-1.7-.2-.9.3-.9 1.8-.1 2.5 1.3 2.6 2.1.3 1.4-1.5-.5-1.5-.4-.3.4.8.6 1.8.8 2.2.6.4-.3.8 0 .8.5 0 .6.5 1.1 1 1.1.6 0 .4-1.1-.5-2.3-1.3-2-1.3-2.4 0-2.4.8 0 1.2.4.9.8-.2.4.5 1.3 1.6 1.9 1.1.6 2 .7 2 .3 0-.4.7.1 1.5 1.1 1.3 1.7 1.5 1.8 1.5.3 0-.9-.4-1.8-1-1.8-.5-.1-1.4-.2-2-.3-2.2-.3-1.3-2 1.2-2.1 1.8-.1 2.5.2 2.1 1.2-.3.7.2 1.3 1.1 1.3 1.4 0 1.5.4.5 2.2-.9 1.9-.9 2.1.2 1 1.5-1.4 3.3-1.6 2.5-.3-.3.5.6.9 1.9 1 7.4.5 10.3 0 11.4-1.8.6-.9 1.1-.8 2.2.5 1.2 1.6 1.2 1.7-.1 1.2-1.1-.4-1.6 0-1.6 1.3 0 1.8.1 1.8 2.1-.2 1.4-1.5 1.6-2.3.8-2.6-.7-.3-1.3-1.9-1.3-3.6-.1-4-2.1-6.7-4.9-6.7-1.2 0-2-.4-1.6-.9.3-.6-.4-.8-1.5-.6-1.2.2-3.1 0-4.4-.5-1.3-.4-3.6-1-5.2-1.3-3.8-.6-11.8-3-12.4-3.7-.3-.3-1.7-1.1-3.2-1.9-1.6-.8-2.4-1.9-2-2.5 1-1.7 1.1-3.7.1-3-.5.3-.7 1-.4 1.5.3.5-.1.6-1 .3-1.3-.5-1.3-.9-.3-2.2 1-1.2 1-1.4.1-.8-.8.4-1.3.1-1.3-.8s-.5-1.6-1.2-1.6c-.6 0-.8-.3-.5-.6.4-.4 1.9.1 3.4 1.1s2.5 1.4 2.1 1c-.4-.5-.3-1.4.3-2.1.8-1 .6-1.2-1.2-.9-1.2.2-2.9 0-3.8-.6-1.4-.9-1.4-1 .1-.5.9.2 2.2-.2 2.8-.9.7-.8 1.6-1.2 2.1-.9 1.7 1 .9-.3-1.3-2.2-1.6-1.3-1.9-1.4-1-.2.9 1.1 1 1.8.2 2.3-.5.3-1-.1-1-1s-.4-1.4-.8-1.1c-.5.3-.9-.1-.9-.9s.5-1.1 1-.8c.7.4.8-.1.3-1.3-.6-1.6-.4-1.6 1.4.3 2.1 2.4 3.1 2.9 2.8 1.5-.4-1.8 1.5-4 3-3.5 1.3.4 1.2.2-.3-1-2.2-1.7-3.7-1.3-2.9.7.8 2.2-.9 2.5-2.8.5-1-1.1-1.3-2.1-.8-2.4.6-.4 1-.1 1 .5s.5.8 1 .5c.8-.5.7-1.2-.2-2.3-1.1-1.3-1.1-1.4.2-.7 2.1 1.3 3.9 1.5 4.6.4.3-.5 1-.9 1.6-.9.6 0 .5.7-.3 1.7-1.3 1.6-1.2 1.7.3.4 1-.7 1.6-1.7 1.3-2.1-.3-.5-.1-1.1.5-1.5.5-.3 1-.1 1 .6s.3 1 .6.6c.3-.3.3-1.1-.1-1.7-.5-.8-1.1-.7-2.3.2-1.3 1-1.4 1-.8 0 .6-.9.1-1.1-1.9-.8-1.5.3-2.5.2-2.1-.1.4-.4 1.4-.8 2.4-.9.9-.2 1.8-.7 2-1.3.2-.5 1.2-.1 2.4 1.1 1.4 1.4 2.3 1.7 3.1.9.6-.6 1.6-1.1 2.1-1.1.6 0 .5.5-.2 1.2s-1.2 1.6-1.2 2.2c0 .5 1-.3 2.3-2 2.6-3.4 7.3-4.3 8.1-1.6.2.9.3 0 0-2.1-.3-2.8-.1-3.7.8-3.4.7.2 1.2 1 1.1 1.6zm-7.8 1.3c.4 0 1.1-.6 1.5-1.2.4-.7 1.3-.9 1.9-.6 1.7 1.1.3 2.5-2 2.1-1.2-.2-2.2.2-2.6 1.1-.4 1.2-.8 1.3-1.3.3-.5-.7-.6-1.9-.3-2.6.4-1.1.8-1.1 1.3-.3.4.6 1.1 1.2 1.5 1.2zm-5 1c-.3 3-.3 3-1.5 2.3-.7-.4-.7-1.3 0-2.6 1.4-2.5 1.8-2.4 1.5.3zM356 587.4c0 .3-.4.8-1 1.1-.5.3-1 .1-1-.4 0-.6.5-1.1 1-1.1.6 0 1 .2 1 .4zm165 1c0 .3-.4.8-1 1.1-.5.3-1 .1-1-.4 0-.6.5-1.1 1-1.1.6 0 1 .2 1 .4zM272.5 593c.3.6-.1.7-.9.4-1.8-.7-2.1-1.4-.7-1.4.6 0 1.3.4 1.6 1zm.5 6.4c0 .3-.4.8-1 1.1-.5.3-1 .1-1-.4 0-.6.5-1.1 1-1.1.6 0 1 .2 1 .4zm163.5 2.4c-.2.9-.4 1.8-.5 1.9-.2.2-.3.7-.4 1.2-.2 1.6-1.4 2.3-2.6 1.6-.9-.6-.9-.9.1-1.5 1.6-1.1 2.1-4 .6-4-.7 0-.6-.4.3-.9 1.8-1.2 2.9-.5 2.5 1.7zm77-.8c.3.6-.1.7-.9.4-1.8-.7-2.1-1.4-.7-1.4.6 0 1.3.4 1.6 1zM273 602.4c0 .3-.4.8-1 1.1-.5.3-1 .1-1-.4 0-.6.5-1.1 1-1.1.6 0 1 .2 1 .4zm-1 5.6c0 .5-.5 1-1.1 1-.5 0-.7-.5-.4-1 .3-.6.8-1 1.1-1 .2 0 .4.4.4 1zm1 8.5c1.1 1.3 1 1.4-.4.9-.9-.3-1.6-1-1.6-1.5 0-1.3.6-1.1 2 .6zm199.9 18.2c.2.1-.5.1-1.6 0-1.1 0-2-.7-2-1.4 0-1 .4-1 1.6-.1.9.7 1.8 1.3 2 1.5zM682 668c0 .5-.5 1-1.1 1-.5 0-.7-.5-.4-1 .3-.6.8-1 1.1-1 .2 0 .4.4.4 1zm-.2 4.3c-.8 1.6-1.2 1.7-1.9.6-1.3-2.1-1.1-2.8 1-2.6 1.6.1 1.8.5.9 2zm-12.7 9.6c-.7.5-1 1.4-.7 2 .4.6.1 1.1-.6 1.1-1.1 0-1 .2 0 .9 1.1.7 1.1.9-.2 1.4-2.5 1-3.1.7-2.8-1 .2-1-.1-1.2-.9-.7-.8.4-1 .3-.5-.4.4-.6 1.3-.9 2-.6.8.3 1.6-.4 1.9-1.5.3-1.2 1.1-2.1 1.9-2.1 1.1 0 1 .2-.1.9zm-8.2 8.7c-2.4 2.4-2.6 2.4-4.2.6-1.5-1.7-1.5-1.8.6-1.9 1.8-.2 1.9 0 .7.8s-1.1.9.5.7c1.1-.2 2-1 2.1-1.8.2-3.1.4-3.4 1.6-2.2 1 1 .7 1.8-1.3 3.8zM255 695.8c.8.2 2.5.4 3.8.5 2.3.1 2.9 1.2 1.2 2.2-.5.3-1 .2-1-.3 0-1.2-3.2-1.2-4.8.1-1.5 1.2-2.5.4-2.9-2.4-.2-1.4.1-1.8.9-1.2.7.4 2 .9 2.8 1.1zm180.8 3c1.5 0 2-.3 1.5-1.1-.5-.9-.3-.9.8 0 .8.6 1.8 1.1 2.4 1.1.5 0 1.1.6 1.3 1.4.3 1 .2 1-.6-.1-.7-.9-1.2-1-1.6-.2-.4.6-1.2.9-1.7.5-.5-.3-1.6-.1-2.3.5-1 .9-1.8.5-3.1-1.6-1.2-1.8-1.3-2.4-.4-1.7.8.6 2.4 1.1 3.7 1.2zm64 0c1.5 0 2-.3 1.5-1.1-.4-.7 0-.6 1 .2 1.3 1.1 1.7 1.1 1.7.1 0-.8.3-1 .6-.7 1 .9-1.6 3.8-2.8 3.1-.5-.3-1.5-.1-2.2.5-1 .9-1.8.5-3.1-1.6-1.2-1.8-1.3-2.4-.4-1.7.8.6 2.4 1.1 3.7 1.2zm64 0c1.5 0 2-.3 1.5-1.1-.5-.9-.3-.9.8 0 .8.6 1.8 1.1 2.4 1.1.5 0 1.1.6 1.3 1.4.3 1 .2 1-.6-.1-.7-.9-1.2-1-1.6-.2-.4.6-1.2.9-1.7.5-.5-.3-1.6-.1-2.3.5-1 .9-1.8.5-3.1-1.6-1.2-1.8-1.3-2.4-.4-1.7.8.6 2.4 1.1 3.7 1.2z"/><path d="M727 386c-.8 1.5-.8 1.8.3 1.4.8-.3 1.4-1.1 1.4-1.9 0-2-.4-1.9-1.7.5zM272.9 414.2c-.6 1.3-.8 1.9-.3 1.5.4-.4 1.6.7 2.5 2.5 1.5 2.7 1.7 2.9 1.6 1-.1-1.2-.4-2.2-.8-2.2s-.6-1.1-.4-2.5c.3-3.1-1-3.2-2.6-.3zM301.5 413.1c-.4.6-.5 1.2-.2 1.5.2.3.7-.2 1-1.1.7-1.7.1-2-.8-.4zM307.5 413c-.4.6-.4 1.4-.1 1.7.3.4.6 0 .6-.8 0-1.2.2-1.2 1 .1.5.8 1.2 1.2 1.5.9.3-.4-.1-1.2-.9-1.8-1-.9-1.6-.9-2.1-.1zM298.6 415.7c-.6 1.4-.5 1.5.5.6.7-.7 1-1.5.7-1.8-.3-.3-.9.2-1.2 1.2zM272.4 423.6c.4 2.4 2.2 3.6 2.3 1.5.1-1.1-.4-2.2-1.2-2.4-.7-.3-1.2 0-1.1.9zM272.4 432.7c.2 1 .6 1.7 1 1.6 1.5-.3 1.6-1.1.2-2.2-1.2-1-1.4-.9-1.2.6zM274.8 438.7c.7.3 1.6.2 1.9-.1.4-.3-.2-.6-1.3-.5-1.1 0-1.4.3-.6.6zM274.6 465.7c-.6 1.4-.5 1.5.5.6.7-.7 1-1.5.7-1.8-.3-.3-.9.2-1.2 1.2zM272.3 468.5c0 .7.6 1.1 1.4.8.7-.3 1.3-.6 1.3-.8 0-.2-.6-.5-1.3-.8-.8-.3-1.4.1-1.4.8zM273.5 492.9c-.3.5-.2 1.2.3 1.5.5.3.9-.1.9-.9 0-1.7-.3-1.9-1.2-.6zM274.3 510.2c-2.2 2.8-2.4 3.8-.8 3.2.9-.4 1.3-.9 1.1-1.2-.3-.3-.1-1.1.5-1.9.6-.7.9-1.3.6-1.3-.2 0-.9.6-1.4 1.2zM274 514.4c0 .2.7.7 1.6 1 .8.3 1.2.2.9-.4-.6-1-2.5-1.4-2.5-.6zM272.7 516.1c.7.7 1.5 1 1.8.7.3-.3-.2-.9-1.2-1.2-1.4-.6-1.5-.5-.6.5zM273.5 540.9c-.3.5-.2 1.2.3 1.5.5.3.9-.1.9-.9 0-1.7-.3-1.9-1.2-.6zM272.5 545c-.3.6.1.7.9.4 1.8-.7 2.1-1.4.7-1.4-.6 0-1.3.4-1.6 1zM274 546.4c0 .2.7.7 1.6 1 .8.3 1.2.2.9-.4-.6-1-2.5-1.4-2.5-.6zM272.7 548.1c.7.7 1.5 1 1.8.7.3-.3-.2-.9-1.2-1.2-1.4-.6-1.5-.5-.6.5zM274.8 588.8c-.3 1.1 0 1.9.7 1.9s1-.8.7-1.9c-.2-1-.6-1.8-.7-1.8-.1 0-.5.8-.7 1.8zM274.8 622.7c.7.3 1.6.2 1.9-.1.4-.3-.2-.6-1.3-.5-1.1 0-1.4.3-.6.6zM275 627.1c0 .5.5.7 1 .4.6-.3 1-.8 1-1.1 0-.2-.4-.4-1-.4-.5 0-1 .5-1 1.1zM274.3 629.8c-.8.5-.7 1.2.4 2.7 1.5 1.9 1.5 1.9.8-.4-.5-1.8-.4-2.2.5-1.6.9.5 1.1.4.6-.3-.8-1.4-.8-1.4-2.3-.4zM275.7 636.1c.7.7 1.5 1 1.8.7.3-.3-.2-.9-1.2-1.2-1.4-.6-1.5-.5-.6.5zM277.6 638.8c-.2.4-.1 1.4.4 2.2.7 1.1.9.9.7-.8-.1-2.4-.3-2.6-1.1-1.4zM390 412.5c-.7.9-1 1.8-.6 2.2.3.3.6 0 .6-.8 0-1.2.2-1.1 1.1.1.8 1.1 1.2 1.2 1.6.2.2-.6.9-1 1.3-.7.5.3 1.2 0 1.6-.6.4-.7.3-.9-.4-.5-.5.3-1.3 0-1.5-.6-.4-1-.6-1-.6-.1-.1.7-.6 1.3-1.2 1.3-.5 0-.7-.5-.4-1 1-1.5-.1-1.2-1.5.5zM365.5 413.1c-.4.6-.5 1.2-.2 1.5.2.3.7-.2 1-1.1.7-1.7.1-2-.8-.4zM356.5 413.9c-.3.5-.1 1.2.5 1.6.6.4.7 1.1.4 1.7-.4.7-.2.8.5.4.8-.6.9-1.2.2-2-.6-.7-.8-1.6-.4-1.9.3-.4.4-.7 0-.7-.3 0-.8.4-1.2.9zM359 413.9c0 .5.8 1.5 1.8 2.2 1.5 1.2 1.6 1.2.5-.2-.7-.9-1-1.9-.6-2.2.3-.4.1-.7-.5-.7-.7 0-1.2.4-1.2.9zM395 415c-.8.5-1.2 1.2-.9 1.5.4.3 1.2-.1 1.9-1 1.4-1.7 1.1-1.9-1-.5zM355 420c-1.8 1.1-2.2 7.8-.3 7.6.7-.1 1.6-.6 2-1 .4-.4.4-.7-.2-.6-2.2.5-2.4-.1-.8-1.9.9-1.1 2.1-1.7 2.6-1.4.6.3.7.1.3-.6-.6-.8-1.2-.9-2-.2-.7.6-1.6.8-1.9.4-.4-.3.1-1.2 1.1-1.9 2-1.5 1.4-1.8-.8-.4zM355.7 430.4c-2.2 1.7-3.1 5.5-1.2 5.2.8-.1 1.8-.6 2.2-1.1.4-.4.3-.5-.4-.1-.6.3-1.4.2-1.8-.4-.3-.5-.2-1 .2-1 .5 0 1.4-.9 2.1-2 1.4-2.3 1.3-2.4-1.1-.6zM355.6 438.5c-2.2 1.7-3.1 11.1-1.1 11.9 1.3.5 1.3-2.2.1-4.3-.7-1-.3-1.2 1.5-.7 2.3.7 2.3.6.4-.6-2-1.3-3.1-3.8-1.7-3.8.4 0 1.4.6 2.2 1.2 1.2 1.1 1.2 1 .1-.5-1.1-1.4-1.1-2-.1-3.2 1.6-1.9 1.1-1.9-1.4 0zM379.8 447.2c.8.9 1.1 2.2.7 2.8-.8 1.3 1.7.9 2.7-.5.4-.6 1.3-.2 2.3 1 1.3 1.7 1.4 1.7.9.2-.9-2.4 1.7-1.8 3.3.8 1.6 2.6 1.6 1.4.1-2-1.3-2.8-1.9-3-3.6-1.3-.8.8-1.2.9-1.2.1 0-.6-.8-1-1.7-.8-1 .1-2.5-.3-3.3-.9-1.3-.9-1.3-.9-.2.6zM391 448.7c0 .9.3 1.3.7 1 .3-.4 1.2.1 2 1.1 1.1 1.5 1.2 1.3.2-1.1-1.4-3-2.9-3.6-2.9-1zM395 448.6c0 .8.5 1.2 1 .9.6-.3 1-1 1-1.6 0-.5-.4-.9-1-.9-.5 0-1 .7-1 1.6zM397.5 449.1c-1 1.5.3 2.5 1.6 1.2.7-.7.7-1.3.1-1.7-.6-.3-1.4-.1-1.7.5zM352.5 454c.4.6 1.1.8 1.6.5 1.4-.9 1.1-1.5-.7-1.5-.8 0-1.2.5-.9 1zM353.8 457.2c.5.5 1.6.8 2.3.6.8-.3.3-.7-1-1.1-1.7-.4-2.1-.3-1.3.5zM354.6 460.2c.3.5 1 .6 1.5.3 1.3-.9 1.1-1.2-.6-1.2-.8 0-1.2.4-.9.9zM353.4 466.1c0 4.9.8 6.3 2 3.3.3-.8.2-1.2-.4-.9-.6.3-1 .1-1-.4 0-.6.7-1.1 1.5-1.1s1.5-.4 1.5-1c0-.5-.6-.7-1.4-.4-1.1.4-1.3 0-.9-1.4.2-1.1.1-2.2-.4-2.5-.5-.3-.9 1.7-.9 4.4zM355.5 471.9c-.3.5-.2 1.2.3 1.5.5.3.9-.1.9-.9 0-1.7-.3-1.9-1.2-.6zM354.3 482.7c-1.6.6.2 4.3 2 4.3.8 0 .7-.3-.2-.9-.8-.5-1.1-1.6-.8-2.5.4-.9.5-1.6.4-1.5-.1 0-.8.3-1.4.6zM393.5 485.1c-.4.5-1.4.8-2.4.4-1.2-.5-1.3-.4-.4.6 1 1 1.5.9 2.8-.1 1.7-1.4 2.1 0 .4 1.7-.8.8-.7 1.3.2 1.8.7.5 1 .4.6-.2-.4-.6 0-1.6.7-2.2.9-.8 1.6-.8 2-.2.4.6 1.4.7 2.2.4.9-.3 2 0 2.5.8.6 1 .9 1 .9.1v-1.9c0-.3-1.5-.7-3.3-.8-1.8 0-3.8-.4-4.4-.8-.6-.4-1.5-.2-1.8.4zM377.5 486.9c-.3.5-.2 1.2.3 1.5.5.3.9-.1.9-.9 0-1.7-.3-1.9-1.2-.6zM355 492c0 .5.5 1 1.1 1 .5 0 .7-.5.4-1-.3-.6-.8-1-1.1-1-.2 0-.4.4-.4 1zM485.5 431c-.3.6-1.1.8-1.6.5-.5-.4-.9-.2-.9.3 0 .6.7 1.3 1.6 1.6.8.3 1.2 1.1.8 1.7-.4.8-.3.9.5.5.9-.6.9-1.1.1-2.1-.8-.9-.8-1.5 0-2 .5-.3 1-.2 1 .3 0 .6.6 1.2 1.3 1.5.8.3 1.4-.1 1.4-.9s-.3-1.2-.5-.9c-.3.3-1.1 0-1.8-.6-.8-.7-1.4-.7-1.9.1zM447.7 432.5c-.8.8-1.8 1.1-2.2.7-.5-.4-.5-.1-.1.5.5 1 1.1 1 2.6 0 1.1-.6 2-1.5 2-1.9 0-1.2-.7-1-2.3.7zM460 432.2c0 .4.5.9 1 .9.6.1 1.5.2 2 .3.6 0 1.5.7 2 1.5.4.8 1.7 1.6 2.7 1.7 1.2.2.7-.6-1.6-2.5-3.3-2.7-6.1-3.6-6.1-1.9zM457.5 433.1c-.4.6-.5 1.2-.2 1.5.2.3.7-.2 1-1.1.7-1.7.1-2-.8-.4zM451.5 434c.3.5.8 1 1.1 1 .2 0 .4-.5.4-1 0-.6-.5-1-1.1-1-.5 0-.7.4-.4 1zM450 447c-.8.5-1.9.6-2.5.3-.5-.4-.7-.3-.3.2.5.5-.1 1.5-1.2 2.2-2.6 1.8-4.8 6.2-5.6 11-.7 4.4-.7 4.6-.4 5.3.4 1.2 1.1 4.7 1.4 7.3.2 1.5.7 3.1 1.1 3.5.5.4.5.1.1-.6-1.1-1.8.1-1.5 2.4.8s2.6 3.5.8 2.4c-.7-.4-1-.3-.5.1.7.9 3 1.4 7.5 1.7 1.2.1 2.2.6 2.2 1s.5.8 1.1.8c.5 0 .7-.5.4-1-1-1.6 1.8-.7 3.3 1 1.2 1.3 1.3 1.3.7 0-.4-1-.2-.9.8.2.8 1 2.3 1.8 3.3 1.7 1.8 0 1.8-.1-.1-.9-1.1-.5-1.7-.9-1.2-1.1 2.1-.5 3.3-.4 4 .6.5.6.7.4.4-.5-.4-1.7-2.6-2.1-4.3-.8-.7.5-1.4.2-1.8-.7-.4-1-.2-1.4.5-.9.6.4 1.5 0 2-.7.7-1.1.9-1.1.9-.1 0 .7.4 1.1 1 .7.5-.3.8-1.1.6-1.8-.1-.7-.1-.9.1-.4.3.4 1 .4 1.6 0 .7-.4.6.1-.2 1-.7.9-.9 1.7-.3 1.7 1.4 0 2.3-2.8 1.2-3.5-.6-.4-1-1.2-1-1.8 0-.8.2-.9.8-.1.4.6 1.7 1.6 2.9 2.3 1.9 1 2.2.9 1.7-.4-.3-.8-1-1.3-1.4-1-.5.3-1.1.1-1.5-.5-.3-.5-.1-1 .4-1 .6 0 1.1-.4 1.1-1 0-.5-.8-.7-1.7-.4-1.5.5-1.6.4-.3-.5.8-.6 1.1-1.1.6-1.1-.5 0-.3-.6.3-1.3.6-.8.7-1.8.3-2.2-.4-.5-.1-.5.6-.1.6.4 1.2.3 1.2-.3s.6-.8 1.4-.5c.8.3 1.7.1 2-.4.3-.5-.8-.8-2.7-.6-1.7.2-2.7 0-2.2-.4 1.3-.9 1.8-3.2.7-3.2-.5 0-.9-1.4-1-3-.1-1.7-.3-3.6-.4-4.3-.2-1.5-6.9-8.1-8.9-8.6-3-.8-10.6-.9-11.9-.1z"/><path d="M473 457.7c.8.3.7.9-.1 1.9-.8.9-.8 1.4-.1 1.4.6 0 .9.9.7 1.9-.3 1.9 1.6 2.3 3.2.7.4-.4.1-.6-.7-.4-1 .2-1.4-.6-1.5-2.6 0-1.6-.6-3.1-1.3-3.2-.7-.1-.8 0-.2.3zM472 470.5c-1 1.2-.9 1.6.4 2.1.9.3 1.4.9 1.2 1.3-.3.4-.1 1.2.3 1.9s.7-.6.7-2.8c0-4.3-.6-4.9-2.6-2.5zM422.3 472.2c-.9 1.6-1.4 4.2-.6 3.4.4-.3 1.1-.1 1.8.4.8.7 1.2.5 1.2-.5 0-.8-.4-1.2-.8-.9-.4.2-1 0-1.4-.5-.3-.5.3-1.4 1.2-2 1-.6 1.3-1.1.6-1.1-.6 0-1.5.6-2 1.2zM469.5 482c-.3.6.1.7.9.4 1.8-.7 2.1-1.4.7-1.4-.6 0-1.3.4-1.6 1zM447.7 482.7c-1 .9-.9 2.3.1 2.3.5 0 .9-.7.9-1.5 0-1.7-.1-1.8-1-.8zM452.7 484.1c.6 2.3.9 2.4 1.6.5.3-.8 0-1.7-.7-1.9-1-.4-1.2.1-.9 1.4zM456.1 484.4c-.9 1.1-.9 1.6.1 2.2.7.4 1 .4.6-.1-.4-.4 0-1.4 1-2.1.9-.7 1.2-1.4.6-1.4s-1.7.6-2.3 1.4zM459.3 486.5c0 .8.4 1.2.9.9.4-.3.8-.9.8-1.5 0-.5-.4-.9-.8-.9-.5 0-.9.7-.9 1.5zM435 493.4c0 .2.7.7 1.6 1 .8.3 1.2.2.9-.4-.6-1-2.5-1.4-2.5-.6zM473.5 493.9c-.3.5-.2 1.2.3 1.5.5.3.9-.1.9-.9 0-1.7-.3-1.9-1.2-.6zM538 431.5c-.7.9-.8 1.5-.2 1.5.5 0 1.2-.7 1.6-1.5.3-.8.4-1.5.2-1.5s-.9.7-1.6 1.5zM533 432.4c0 .2.7.7 1.6 1 .8.3 1.2.2.9-.4-.6-1-2.5-1.4-2.5-.6zM522.3 433.9c-1.1.8-1.3 4.2-.2 3.5.5-.3.9-1.2.9-2s.4-1.3.9-.9c.5.3 1.2.2 1.5-.3.6-1-1.9-1.2-3.1-.3zM549.7 435.1c.7.7 1.5 1 1.8.7.3-.3-.2-.9-1.2-1.2-1.4-.6-1.5-.5-.6.5zM545.6 435.8c-.3.5.1.9.9.9s1.2-.4.9-.9c-.3-.4-.7-.8-.9-.8-.2 0-.6.4-.9.8zM528 438c-.9.6-1 1-.3 1 .6 0 1.5-.5 1.8-1 .8-1.2.4-1.2-1.5 0zM511.5 439.9c-.3.5-.1 1.2.5 1.6.5.3 1-.1 1-.9 0-1.8-.6-2.1-1.5-.7zM558 439.4c0 .2.8 1 1.8 1.7 1.5 1.3 1.6 1.2.3-.4s-2.1-2.1-2.1-1.3zM561.5 444c-.3.6.1.7.9.4 1.8-.7 2.1-1.4.7-1.4-.6 0-1.3.4-1.6 1zM534.6 457.9c-.4.5-.2 1.2.3 1.5.5.4 1.2.2 1.5-.3.4-.5.2-1.2-.3-1.5-.5-.4-1.2-.2-1.5.3zM541.9 458.3c0 .1-.2 1.3-.5 2.7-.3 1.7-.1 2.1.5 1.1.5-.7 1.4-1.7 2.1-2.1.8-.5.7-.9-.4-1.3-.9-.4-1.6-.5-1.7-.4zM537.4 460.1c-.4.7-.3.9.4.5.5-.3 1.3 0 1.5.6.4.9.6 1 .6.1.1-1.7-1.6-2.5-2.5-1.2zM553.2 463.3c-.8 1-.6 1.3.8 1.4 1.1.1 2.2-.2 2.5-.8.4-.5-.2-.6-1.1-.2-1.2.4-1.5.3-1-.5 1-1.6.1-1.5-1.2.1zM557.5 468c.3.5.8 1 1.1 1 .2 0 .4-.5.4-1 0-.6-.5-1-1.1-1-.5 0-.7.4-.4 1zM549.1 476.7c.7 1.2 1.5 2 1.8 1.7.3-.2-.3-1.2-1.3-2.2-1.7-1.6-1.8-1.6-.5.5zM517.7 479.1c.7.9.9 2 .5 2.5-.4.4.1.2 1.1-.5.9-.7 1.7-1.6 1.7-1.9 0-.3-.3-.2-.7.1-.3.4-1.3.1-2.2-.6-1.4-1-1.4-1-.4.4zM551.5 479.9c-.3.5-.2 1.2.3 1.5.5.3.9-.1.9-.9 0-1.7-.3-1.9-1.2-.6zM521 482c0 .5.5 1 1.1 1 .5 0 .7-.5.4-1-.3-.6-.8-1-1.1-1-.2 0-.4.4-.4 1zM547.5 482.1c-.4.6-1.3.8-2 .5-.7-.2-1.7 0-2.3.6-.6.6-2.9 1.2-5.2 1.3-2.2.1-4.4.6-4.8 1-.4.5.1.5 1.1.2 1.3-.5 2 0 2.7 1.6.6 1.6.9 1.7.9.5.1-1.3.8-1.6 2.9-1.2 2 .3 2.3.2 1.2-.6-1.2-.8-.9-1 1.5-1.1 1.7-.1 3.6 0 4.4.1.8.1 1.2-.4.8-1.4-.3-.8-.1-1.7.6-2 .9-.3.9-.5 0-.5-.6-.1-1.5.4-1.8 1zM527.5 483c-.3.6.1.7.9.4 1.8-.7 2.1-1.4.7-1.4-.6 0-1.3.4-1.6 1zM510 483.8c0 .5.7 1.5 1.5 2.2.8.7 1.5.9 1.5.6 0-.4-.7-1.4-1.5-2.2-.8-.9-1.5-1.1-1.5-.6zM530.5 484c-.3.6.1.7.9.4 1.8-.7 2.1-1.4.7-1.4-.6 0-1.3.4-1.6 1zM643.3 431.3l-2.3 1.2 2.3 1.4c2 1.3 2.1 1.3.8-.2-1.5-1.9-.8-2.2 1.9-.7 1.3.7 2.1.5 3.1-.7.8-1 .9-1.4.2-1-.6.4-1.4.3-1.8-.3-.8-1.3-1.5-1.2-4.2.3zm4.2.7c.3.6-.1.7-.9.4-1.8-.7-2.1-1.4-.7-1.4.6 0 1.3.4 1.6 1zM636.5 433c-.3.5-.5 1-.3 1.1 1.9.4 5.1.9 4.7.6-.2-.1-1.1-.8-2.1-1.5-1.1-.9-1.8-1-2.3-.2zM577.5 433.9c-.3.5-.1 1.2.4 1.6.6.3.8 1.2.5 1.9-.7 1.7 1.2 3 2.1 1.6.4-.6 0-1.9-.9-2.9s-1.3-2.1-.9-2.4c.3-.4.4-.7 0-.7-.3 0-.8.4-1.2.9zM589 433.8c0 .5.7.9 1.5.9s1.2-.4.9-.9c-.3-.4-.9-.8-1.5-.8-.5 0-.9.4-.9.8zM583.5 436c-.3.5-.1 1 .4 1 .6 0 1.1-.5 1.1-1 0-.6-.2-1-.4-1-.3 0-.8.4-1.1 1zM628.9 440.2c-.1.7-.1 1.6 0 2 0 .5-.4.8-1.1.8-.6 0-.8.3-.5.7.4.3-.1 1.6-1.2 2.7-1.8 2.1-1.8 2.1.1 4.1 1.8 1.8 1.9 1.8 1.2.1-.6-1.7-.5-1.7 1.7-.6l2.4 1.2-2.4-2.3c-1.5-1.4-2-2.4-1.3-2.7.7-.2 1.2-.8 1.2-1.4 0-.6.8-1.7 1.8-2.4 1.6-1.3 1.6-1.4-.1-.8-1.3.5-1.6.2-1.1-1 .3-.9.3-1.6 0-1.6s-.7.6-.7 1.2zM623.6 451.5c-.3.9 0 1.5.9 1.5s1.2-.6.9-1.5c-.4-.8-.7-1.5-.9-1.5-.2 0-.5.7-.9 1.5zM588.2 461.3c1 .8 1.4 1.8 1 2.2-.4.5-.1.5.6.1 1.7-1 1.5-1.4-1-2.6-2.1-1-2.1-1-.6.3zM616.7 468.4c-.4 1.1-.3 1.5.4 1 .7-.4.9 0 .5 1.4-.4 1.1-.2 2.3.3 2.7.7.4.8-.1.4-1.1-.4-1.2-.3-1.5.5-1s1 .1.5-1c-.5-1.3-.3-1.5.7-.9.9.5 1.1.4.6-.4-.4-.6-1.1-.9-1.6-.6-.4.3-1 0-1.2-.7-.3-.7-.7-.5-1.1.6zM594.7 474.1c.7.7 1.5 1 1.8.7.3-.3-.2-.9-1.2-1.2-1.4-.6-1.5-.5-.6.5zM600.7 492.4c-.4 1-.1 1.3.8.9.8-.3 1.2-.9.9-1.4-.7-1.2-1.1-1.1-1.7.5zM601 495.4c0 .2.7.7 1.6 1 .8.3 1.2.2.9-.4-.6-1-2.5-1.4-2.5-.6zM598.2 508.3c-1.4 1.6-1 4.4.8 6 1.2 1 1.2.9.1-.6-1.2-1.6-.8-2.2 1.2-1.8.5.1.6-.3.3-.8-.4-.5 0-1.2.6-1.4.7-.3.4-.6-.7-.6-1.7-.1-1.7-.3-.5-1.1.8-.5 1-1 .4-1s-1.6.6-2.2 1.3zM590 528.4c0 .2.9.6 2 .9 1.1.3 1.8.1 1.4-.4-.5-.9-3.4-1.3-3.4-.5zM393.5 564.9c-1 1-.4 2.2.9 1.9.8-.2 2.2.6 3.1 1.7 1.6 2 1.6 1.9.5-.3-.6-1.2-.9-2.6-.6-3 .5-.8-3.2-1.1-3.9-.3zM363 566.1c0 .5.5.7 1 .4.6-.3 1-.8 1-1.1 0-.2-.4-.4-1-.4-.5 0-1 .5-1 1.1zM374.5 568c-.3.6.1.7.9.4 1.8-.7 2.1-1.4.7-1.4-.6 0-1.3.4-1.6 1zM402.5 568c-.3.5-.1 1 .4 1 .6 0 1.1-.5 1.1-1 0-.6-.2-1-.4-1-.3 0-.8.4-1.1 1zM405 567.9c0 .5.7 1.7 1.6 2.6.9.9 1.8 1.4 2.1 1.1.3-.2-.5-1.4-1.6-2.5-1.2-1.2-2.1-1.7-2.1-1.2zM353.9 570.7c-.7 1-.9 1.5-.5 1.1.5-.4 1.5-.3 2.3.3.9.9 1.3.8 1.3 0 0-.6-.5-1.1-1.1-1.1-.5 0-.7-.5-.4-1 1-1.7-.2-1.1-1.6.7zM353.5 574c.3.5 1.4 1 2.3 1 1.5 0 1.5-.2.2-1-2-1.3-3.3-1.3-2.5 0zM409 574c0 .5.5 1 1.1 1 .5 0 .7-.5.4-1-.3-.6-.8-1-1.1-1-.2 0-.4.4-.4 1zM352.5 577c-.3.5 0 1.2.7 1.6.6.4 1.4.2 1.6-.4.2-.7.9-.9 1.5-.5.7.3.8.2.4-.2-1.1-1.2-3.6-1.5-4.2-.5zM373 579.7c0 .9-.8 2.6-1.7 3.7-1.3 1.5-1.3 1.7-.2.9 1.3-1.1 1.5-.6 1.6 4.2 0 3.7-.3 5.2-1.1 4.8-.6-.4-.5.1.3 1 .7.9 1.1 2.3.8 3.2-1 2.4 3.4 4 6 2.2.6-.4 1.4-.3 1.8.3.3.6 1.2.7 1.8.3.7-.4.6 0-.2 1-.9 1.2-1 1.7-.2 1.7.7 0 .9.4.6 1-.3.6.1.7 1 .3 1.3-.5 1.4-.7.3-1.4-1-.7-1.1-.9 0-.9.7 0 1-.5.6-1.1-.4-.8 0-.8 1.5 0 1.1.7 2.1 1.4 2.1 1.7 0 .3-.5.2-1.1-.2-.8-.4-.8 0 0 1.5 1.4 2.5 2.3 2.8 1.4.3-.6-1.5-.5-1.6 1.2-.2 1.7 1.4 1.7 1.3-.1-1.5-1-1.6-1.3-2.6-.6-2.2.7.5 1.2.3 1.2-.5 0-1 .3-.9.9.1.8 1.2 1.2 1.2 2.5.2.9-.7 1.4-1.7 1.1-2.1-.3-.4.2-1.3 1-2s1.2-1.6.9-2.1c-.3-.5 0-.8.7-.7.6.2 1.4-.3 1.7-1.1.2-.8 0-1.1-.5-.8-.5.3-.9-.4-1-1.6-.1-6-.3-8-.9-7.5-.3.3-1.6-.5-2.9-1.8-2.2-2.2-3.2-2.4-11.5-2.4-7.7 0-9 .2-9 1.7zM398.6 585.8c-.3.5.1.9.9.9s1.2-.4.9-.9c-.3-.4-.7-.8-.9-.8-.2 0-.6.4-.9.8z"/><path d="M398 588.4c0 .3.9 1 1.9 1.6 1.5.7 2.2.7 2.7-.2.4-.7.4-1-.1-.6-.4.4-1.6.3-2.6-.3-1.1-.5-1.9-.7-1.9-.5zM353.6 595.5c.4.9 1.6 2 2.8 2.6 1.9.9 1.9.9.4-.4-1-.8-1.8-1.9-1.8-2.6 0-.6-.4-1.1-1-1.1-.5 0-.7.7-.4 1.5zM397 596c-1.3 1.1-1.7 2-1 2s.1.9-1.4 2.1c-1.4 1.1-3.1 1.7-3.8 1.3-1-.5-1-.4-.1.6s1.7.9 4-.7c1.5-1.1 3.5-1.8 4.3-1.6.9.3.8 0-.3-.7-1.4-.9-1.6-1.5-.6-2.6.6-.7 1.6-1.1 2.2-.7.6.3.7.1.3-.5-.9-1.5-.9-1.5-3.6.8zM378.9 600.2c-.3 1.1-.5 4.8-.3 4.8 1.1 0 2.3-4 1.4-4.5-.5-.3-1-.5-1.1-.3zM355 603.1c0 .5.5.7 1 .4.6-.3 1-.8 1-1.1 0-.2-.4-.4-1-.4-.5 0-1 .5-1 1.1zM393.5 604.1c-1.1 1.6-.1 1.9 1.3.3.7-.8.8-1.4.3-1.4s-1.3.5-1.6 1.1zM355 606.1c0 .5-.5.7-1.2.3-.7-.4-.8-.3-.4.5.4.6 1.1.9 1.6.6.4-.3 1 .1 1.3.7.3.7.4.3.4-1-.1-2.1-1.7-3.3-1.7-1.1zM353.1 612.4c-.8 1-.9 1.6-.1 2.1.5.3.8 1.7.6 3-.4 2.3 1.4 2.9 3.1 1 .4-.4.3-.5-.4-.1-.6.3-1.4.2-1.8-.4-.3-.5-.2-1 .4-1 1.1 0 .9-1.9-.3-3.9-.7-1.1-.4-1.3 1.2-.9 1.2.4 2 .2 1.6-.3-.8-1.3-3-1.1-4.3.5zM355.7 622.4c-1.7 1.3-1.7 1.4 0 2 1 .4 1.4.4 1 0-.4-.4-.2-1.3.4-2.1 1.4-1.7.9-1.6-1.4.1zM353.1 628.4c-.8 1-.9 1.6-.1 2.1.5.3.8 1.7.6 3-.4 2.3 1.4 2.9 3.1 1 .4-.4.3-.5-.4-.1-.6.3-1.4.2-1.8-.4-.3-.5-.2-1 .4-1 1.1 0 .9-1.9-.3-3.9-.7-1.1-.4-1.3 1.2-.9 1.2.4 2 .2 1.6-.3-.8-1.3-3-1.1-4.3.5zM355 639.1c-2.2 1.8-2.2 1.9-.3 1 1.2-.6 2.5-1.6 2.8-2.1.9-1.5.3-1.2-2.5 1.1zM357.6 640.7c-.6 1.4-.5 1.5.5.6.7-.7 1-1.5.7-1.8-.3-.3-.9.2-1.2 1.2zM473.1 583.4c-.8.9-.7 1.3.4 1.3.8 0 1.2-.4.9-.9-.3-.4 0-.8.5-.8.6 0 1.1.4 1.1.9 0 .6.9.9 2 .8 1.3-.1 1.6-.5 1-1.1-1.5-1.5-4.7-1.7-5.9-.2zM460.3 598.5c-3.4 1.5-5.8 4.1-7.2 7.8-1 2.7-1 2.7 3.3 2.7 4.8 0 6.3 1.6 3.7 3.8-1.4 1.1-1.2 1.1.7.2 1.2-.6 2-1.5 1.7-2-.3-.5 0-1.2.6-1.6.8-.4.9-.3.5.4s-.1 1.2.9 1.2c.9 0 1.3-.5 1-1-.3-.6-.1-1 .5-1 .7 0 1 .7.6 1.5-.3.9 0 1.5 1 1.5.8 0 1.2.4.9 1-.3.6.1.7.9.4 1.7-.6 2.3-2.6.7-2.2-.5.2-.9-.2-1-.7-.1-.6 2-1 4.6-1 3.7 0 4.9-.4 5.1-1.8.2-.9.7-1.5 1.1-1.3.4.3.8-.1.8-.8 0-.8-.6-1.2-1.4-.9-.9.4-1.1 0-.6-1.3.4-1.2.3-1.5-.5-1-.7.4-1.2.3-1.2-.1 0-1.6-6.4-4.6-10.1-4.8-2.1-.1-5 .4-6.6 1zM439 602c0 .5.5 1 1.1 1 .5 0 .7-.5.4-1-.3-.6-.8-1-1.1-1-.2 0-.4.4-.4 1zM479 610c0 .5.5 1 1 1 .6 0 1-.5 1-1 0-.6-.4-1-1-1-.5 0-1 .4-1 1z"/><path d="M457.5 611c-.3.6.1.7.9.4 1.8-.7 2.1-1.4.7-1.4-.6 0-1.3.4-1.6 1zM471.7 610.7c.9.3 1 1 .3 2.2-.6 1.3-.5 1.8.5 1.8.8 0 1.1-.7.7-1.6-.5-1.4-.4-1.4 1.4-.1 1.9 1.4 1.9 1.4 0-.8-1.1-1.2-2.4-2.2-3-2.1-.6 0-.6.3.1.6zM476.4 611.5c.8.8 1.8 1.5 2.2 1.5.3 0 .1-.7-.6-1.5s-1.7-1.5-2.2-1.5c-.5 0-.3.7.6 1.5zM463.6 612.8c-.3.4.4.9 1.5.9 2.3.2 2.5-.3.4-1-.8-.4-1.6-.3-1.9.1zM465.6 616.2c.3.5 1 .6 1.5.3 1.3-.9 1.1-1.2-.6-1.2-.8 0-1.2.4-.9.9zM433.3 623.6c0 .7.6 1.5 1.2 1.8.6.2 1.2-.2 1.2-1 0-.7-.6-1.5-1.2-1.8-.6-.2-1.2.2-1.2 1zM488.9 631.3c.6 1.4.7 2.8.3 3.3-.4.4-.2.4.5.1 1.2-.7.7-4.4-.8-5.3-.5-.3-.5.6 0 1.9zM494 629.9c0 .6.4 1.3 1 1.6.6.3.7-.1.4-.9-.7-1.8-1.4-2.1-1.4-.7zM435.5 631.1c-.4.6-.5 1.2-.2 1.5.2.3.7-.2 1-1.1.7-1.7.1-2-.8-.4zM485.3 632.2c0 1.3.1 1.7.4 1 .3-.6.9-1 1.4-.7.5.4.6-.1.3-.9-.9-2.3-2-1.9-2.1.6zM491.6 631.5c.4.8.8 1.5 1 1.5.2 0 .4-.7.4-1.5s-.4-1.5-1-1.5c-.5 0-.7.7-.4 1.5zM437.5 632.1c-.4.6-.5 1.2-.2 1.5.2.3.7-.2 1-1.1.7-1.7.1-2-.8-.4zM479.2 634.6c-.7.8-.8 1.4-.3 1.4 1 0 2.5-1.9 2-2.5-.2-.1-1 .3-1.7 1.1zM462.6 634.9c.2.2-.2 1.1-.9 1.9-.8 1.1-.3 1 1.7-.3l2.9-1.9-.7 2.4c-.3 1.4-.3 1.9 0 1.2.4-1 .9-1 1.9-.2 1.1 1 1.2.7.2-1.3-.7-1.6-1.9-2.4-3.3-2.3-1.2 0-2 .3-1.8.5zM473 638.1c0 .5.5.7 1 .4.6-.3 1-.8 1-1.1 0-.2-.4-.4-1-.4-.5 0-1 .5-1 1.1zM443 639.8c0 .5.7.9 1.5.9s1.2-.4.9-.9c-.3-.4-.9-.8-1.5-.8-.5 0-.9.4-.9.8zM470.6 639.8c-.3.5.1.9.9.9s1.2-.4.9-.9c-.3-.4-.7-.8-.9-.8-.2 0-.6.4-.9.8zM540.6 583.3c.3 1 .9 1.5 1.2 1.2.3-.3 0-1.1-.7-1.8-1-.9-1.1-.8-.5.6zM550.5 583.7c-1.4 1.1-1.5 1.4-.4 1 .9-.3 2.1-.1 2.7.5.7.7 1 .6.8-.5-.3-2.5-.9-2.7-3.1-1zM555.3 584.8c.2 1.2.6 2.4 1 2.8.3.4.4-.4.2-1.6-.6-3-1.6-4-1.2-1.2zM533.5 585.9c-.3.5 0 1.3.6 1.7.7.4.9.3.5-.4-.3-.5 0-1.3.6-1.5.9-.4 1-.6.1-.6-.6-.1-1.4.3-1.8.8zM558.5 585.9c.4.7.1 2-.6 2.9-1.1 1.4-1.1 1.5.1.4 1.9-1.7 4.1-1.5 3.4.3-.4.8-.4 1.5-.1 1.5.3 0 .7-.6 1-1.4.4-.9-.5-2.1-2-3.1-1.4-1-2.2-1.2-1.8-.6zM517.5 612c-.3.5-.1 1 .4 1 .6 0 1.1-.5 1.1-1 0-.6-.2-1-.4-1-.3 0-.8.4-1.1 1zM546 612.5c-.7.9-1 1.8-.6 2.2.3.3.6.1.6-.7 0-1 .4-1 1.8.1 1.5 1.2 1.6 1.2.5-.2-.7-.9-1-1.9-.6-2.2.3-.4.4-.7.1-.7-.3 0-1.1.7-1.8 1.5zM549 612.2c0 .4.5.8 1.1.8.5 0 .8.4.5.8-.3.5.1.9.9.9 1 0 1.2-.4.5-1.2-.5-.7-.8-1.4-.5-1.7.3-.2-.2-.5-1-.5s-1.5.4-1.5.9zM514.4 630.8c.4.7.3 1.9-.4 2.7-.8.9-.8 1.5 0 2 .6.3.8.9.6 1.3-.2.4.2 1.5.9 2.6 1.2 1.6 1.3 1.6 1.1-1.1-.1-1.5-.5-3.4-.9-4.1-1-1.6.5-1.6 2.2 0 .9.9 1.2.9.7.1-.3-.6-.1-1.3.6-1.5.9-.3.9-.6 0-1.2-.7-.4-1.2-.2-1.2.5s-.8.5-2.2-.7c-1.2-1-1.8-1.3-1.4-.6zM526.6 634.2c.3.5 1 .6 1.5.3 1.3-.9 1.1-1.2-.6-1.2-.8 0-1.2.4-.9.9zM537.3 637.1c-.2 2.3.3 2.5 1 .4.4-.8.3-1.6-.1-1.9-.4-.3-.9.4-.9 1.5zM546.6 636.1c.2.4-1.1.6-3.1.5-1.9-.2-3.3 0-3 .4.3.5 1.4.7 2.5.5 1.1-.2 2.2 0 2.5.6.4.5 1.1.9 1.7.9.6 0 .8-.3.5-.7-.4-.3-.2-1.1.3-1.8.7-.8.5-1.2-.5-1.2-.8 0-1.2.4-.9.8zM541.5 640c.3.5.8 1 1.1 1 .2 0 .4-.5.4-1 0-.6-.5-1-1.1-1-.5 0-.7.4-.4 1zM518.7 642.5c.3.8.9 1.2 1.4.9 1.2-.7 1.1-1.1-.5-1.7-1-.4-1.3-.1-.9.8zM737.6 368.7c-.6 1.4-.5 1.5.5.6.7-.7 1-1.5.7-1.8-.3-.3-.9.2-1.2 1.2zM735.7 372.3c.4.6 0 .8-1 .4-.9-.3-1.8-.3-2.1.1-.8 1.3 3.2 1.1 4.3-.2.8-.9.7-1.3-.4-1.3-.8 0-1.1.5-.8 1zM732.6 376.7c-.4.9-.1 2.1.5 2.7.9.8 1 .8.5-.2-.4-.7-.2-1.9.4-2.7.7-.9.8-1.5.2-1.5-.5 0-1.3.8-1.6 1.7zM735 378c0 .5.5 1 1.1 1 .5 0 .7-.5.4-1-.3-.6-.8-1-1.1-1-.2 0-.4.4-.4 1zM725.5 401.1c-.4.6-.5 1.2-.2 1.5.2.3.7-.2 1-1.1.7-1.7.1-2-.8-.4zM721.5 405.9c-.3.5-.2 1.2.3 1.5.5.3.9-.1.9-.9 0-1.7-.3-1.9-1.2-.6zM181 408.5c0 .8.4 1.5 1 1.5.5 0 .7-.7.4-1.5-.4-.8-.8-1.5-1-1.5-.2 0-.4.7-.4 1.5zM182.6 412.2c.3.4 1.1.5 1.9.1 2.1-.7 1.9-1.2-.4-1-1.1 0-1.8.5-1.5.9zM187 413c0 .5.5 1 1.1 1 .5 0 .7-.5.4-1-.3-.6-.8-1-1.1-1-.2 0-.4.4-.4 1zM713 414c0 .5.5 1 1.1 1 .5 0 .7-.5.4-1-.3-.6-.8-1-1.1-1-.2 0-.4.4-.4 1zM695.9 418.4c.9 1.1.9 1.5 0 1.8-1.5.5-2.3 4.8-1 4.8.6 0 .8-.9.6-1.9-.2-1.1.3-2.2 1.1-2.5 1.5-.6.8-3.6-.8-3.6-.6 0-.6.6.1 1.4zM694.8 427.2c.5.5 1.6.8 2.3.6.8-.3.3-.7-1-1.1-1.7-.4-2.1-.3-1.3.5zM694.3 430.7c0 .9.4 1 1.4.2.7-.6 1.3-1.2 1.3-1.4 0-.1-.6-.2-1.3-.2-.8 0-1.4.6-1.4 1.4zM697.6 440.7c-.6 1.4-.5 1.5.5.6.7-.7 1-1.5.7-1.8-.3-.3-.9.2-1.2 1.2zM697.5 450c.3.5.8 1 1.1 1 .2 0 .4-.5.4-1 0-.6-.5-1-1.1-1-.5 0-.7.4-.4 1zM694.7 451.1c.7.7 1.5 1 1.8.7.3-.3-.2-.9-1.2-1.2-1.4-.6-1.5-.5-.6.5zM775.4 474.3c0 1.3.7 3 1.5 3.7 1.3 1.3 1.4 1.2.7-.5-.5-1.1-.8-2.8-.8-3.8 0-.9-.3-1.7-.7-1.7-.4 0-.7 1-.7 2.3zM777 480.9c0 .7-.4 1-.8.7-1.8-1.1-.7 2.5 1.2 4.1 2.1 1.8 2.1 1.8.4-.3-1.4-1.5-1.5-2.3-.6-3.2.6-.6.9-1.5.5-1.9-.4-.3-.7-.1-.7.6z"/><path d="M778 483.4c0 .2.8 1 1.8 1.7 1.5 1.3 1.6 1.2.3-.4s-2.1-2.1-2.1-1.3zM777 490.1c0 .5.5.7 1 .4.6-.3 1-.8 1-1.1 0-.2-.4-.4-1-.4-.5 0-1 .5-1 1.1zM124.5 492c.3.5.8 1 1.1 1 .2 0 .4-.5.4-1 0-.6-.5-1-1.1-1-.5 0-.7.4-.4 1zM127.3 493.5c0 .8.5 1.1 1 .8.6-.4.8 0 .4 1-.9 2.5 0 2.1 1.4-.6.6-1.2.8-1.9.4-1.5-.5.4-1.3.3-2-.2-.8-.7-1.2-.5-1.2.5zM761.6 496.6c-.4.9-.4 1.9-.1 2.2.2.3.7-.3 1.1-1.2.4-.9.4-1.9.1-2.2-.2-.3-.7.3-1.1 1.2zM750.7 497.6c-.3.6-.2 1.6.4 2.4.5.8.9 1 .9.5 0-.6.5-.3 1 .5s1 1 1 .4c0-1.7-2.6-4.8-3.3-3.8zM152.5 499c-.3.6-1 .8-1.5.5-.9-.6-2.5 1.3-1.7 2.1 1 1 4.6 1.2 4.4.2-.1-.6.6-1.2 1.6-1.3 1.9-.4 2.3 1.1.5 1.8-.7.3-.3.4 1 .4 1.2-.1 2.2-.5 2.2-1s.7-.4 1.5.3c1.3 1.1 1.4 1 .9-.4-.4-1-1.2-1.5-1.9-1.2-.7.2-1.8-.1-2.4-.7-.6-.6-1.1-.7-1.1-.3 0 .5-.6.3-1.4-.3-1-.8-1.6-.9-2.1-.1zm1.5.4c0 .2-.6.9-1.4 1.5-1.1.9-1.6.9-2.2 0-.4-.7-.3-.9.4-.5.6.3 1.3.2 1.7-.4.6-1 1.5-1.4 1.5-.6zM162.1 499.7c-.1.7.8 1.7 1.9 2.3 1.6.9 1.8.8 1.4-.5-.3-.8-1-1.3-1.4-1-.5.3-1.1-.1-1.3-.7-.4-1-.6-1-.6-.1zM763.6 500.2c.3.5 1 .6 1.5.3 1.3-.9 1.1-1.2-.6-1.2-.8 0-1.2.4-.9.9zM199.7 500.7c-1 .9-.9 2.3.1 2.3.5 0 .9-.7.9-1.5 0-1.7-.1-1.8-1-.8zM693.6 502.5c-.3.8-.1 1.7.3 2 .5.3 1.1-.2 1.5-1 .3-.8.1-1.7-.3-2-.5-.3-1.1.2-1.5 1zM196.6 503.7c-.6 1.4-.5 1.5.5.6.7-.7 1-1.5.7-1.8-.3-.3-.9.2-1.2 1.2zM728.5 503.3c-1.5 1.2-1.6 1.5-.4 2.2.8.5 1.1.5.7 0-.4-.4 0-1.4 1-2.1 2.3-1.8 1.1-1.8-1.3-.1zM163 503.9c0 .6.4 1.3 1 1.6.6.3.7-.1.4-.9-.7-1.8-1.4-2.1-1.4-.7zM692.6 508.8c-.3.6-.1 1.4.5 1.7.5.4.8 1.3.5 2-.2.7.1 1.5.7 1.8.8.3 1.2-.4 1.2-1.9-.2-2.9-2-5.1-2.9-3.6zM697.3 512.5c0 .8.4 1.2.9.9.5-.3.6-1 .3-1.5-.9-1.3-1.2-1.1-1.2.6zM695.7 516.7c-1 .9-.9 2.3.1 2.3.5 0 .9-.7.9-1.5 0-1.7-.1-1.8-1-.8zM695.4 524.1c-.3.6-.2 1.5.3 2s.9.1.9-1.1c0-2.3-.2-2.4-1.2-.9zM693.9 548.7c-1.3 1.6-1.2 1.7.4.4 1.6-1.3 2.1-2.1 1.3-2.1-.2 0-1 .8-1.7 1.7zM693.5 551.4c-1.3.9-1.5 1.5-.6 2 .8.5.8 1.3.1 2.6-1.3 2.4.9 4 2.2 1.6.5-.9 1.5-1.4 2.1-1 .7.3.2-.3-1-1.4-1.3-1.1-1.8-2.4-1.3-3.2.6-1 .9-1 1.3.1.3.9.6 1 .6.2.1-1.9-1.5-2.3-3.4-.9zm2.5 4c0 .2-.7.9-1.5 1.6-1.3 1.1-1.4 1-.9-.4.5-1.4 2.4-2.3 2.4-1.2zM695.7 571.7c-1 .9-.9 2.3.1 2.3.5 0 .9-.7.9-1.5 0-1.7-.1-1.8-1-.8zM692.7 596.1c.7.9 1.1 1.8.8 2-.2.3.5 1 1.5 1.7 1.2.7 2 .8 2 .2 0-.5-.5-1-1.1-1-.6 0-.8-1-.5-2.3.3-1.2.3-1.6 0-.9-.5 1-.9 1-2.2 0-1.5-1.1-1.5-1.1-.5.3zM693.2 600.5c.4.4.3 1.4-.3 2.1-.7.8-.7 1.4.1 1.9.6.3.8 1.1.5 1.6-.4.5-.2.9.3.9.6 0 1.3-.7 1.6-1.6.3-.9 1.1-1.2 1.8-.8.9.4.8.2-.1-.7-1-1.1-1.5-1.1-1.8-.1-.3.6-.9.9-1.4.6-.6-.4-.6-1.1.1-1.9.8-1 .8-1.5-.2-2.1-.7-.4-1-.4-.6.1zM693.6 608.9c-.3.5.1 1.1.9 1.4.9.4 1.2.1.8-.9-.6-1.6-1-1.7-1.7-.5zM695.4 620.1c-.3.6-.2 1.5.3 2s.9.1.9-1.1c0-2.3-.2-2.4-1.2-.9zM693.3 622.7c.4.3.2 1.2-.4 1.9-.8.9-.5 1.6 1.1 2.4 1.2.6 2.4.9 2.8.6.3-.3 0-.6-.6-.6-.7 0-1.2-.5-1.2-1.1 0-.5.6-.7 1.3-.3.6.4.3-.2-.7-1.4-1.1-1.2-2.1-2.2-2.4-2.2-.3 0-.2.3.1.7zM692.4 637.6c-.1 3.3.9 4.4 2.1 2.4.4-.6.2-1.7-.4-2.4-.6-.7-.8-1.5-.5-1.8.3-.3.2-.8-.3-1.1-.4-.3-.8 1-.9 2.9zM695 636.2c0 .4.4.8.9.8.6 0 1.2-.4 1.5-.8.3-.5-.1-.9-.9-.9s-1.5.4-1.5.9zM691.5 643.9c.1.9-.2 2.1-.7 2.7-1.3 1.7-1.8 5.4-.7 5.4.5 0 .9-.5.9-1.1 0-.5.5-.7 1-.4.6.3 1 .1 1-.4 0-.6-.4-1.1-1-1.1-.5 0-1-.5-1-1.1 0-.5.4-.8.9-.4.5.3 1.2.1 1.5-.4.4-.5.2-1.3-.4-1.6-.8-.5-.8-1.1-.1-1.9.8-.9.7-1.3-.3-1.3-.8 0-1.3.7-1.1 1.6zM691.9 660.7c-1.3 1.6-1.2 1.7.4.4 1.6-1.3 2.1-2.1 1.3-2.1-.2 0-1 .8-1.7 1.7zM684.6 663.9c-.3.5.4 1.1 1.6 1.4 2.9.8 3.2.4.8-1.1-1-.6-2.1-.8-2.4-.3zM679.3 679.5c0 .8.4 1.2.9.9.5-.3.6-1 .3-1.5-.9-1.3-1.2-1.1-1.2.6zM223 680.9c0 .7-.5.9-1.2.5-.8-.4-.9-.3-.5.2.5.5 1.6.9 2.5.9.9 0 1.6.6 1.4 1.3-.1.8.2 1.1.9.6.9-.5 1-.2.6 1-.5 1.1-.3 1.5.5 1 .6-.4 1.7.1 2.5 1.1.7 1.1 1.3 1.4 1.3.9 0-.5-1.8-2.8-4-4.9-2.2-2.1-4-3.3-4-2.6zM234 690.2c-1.2.8-1.2.9.2.4 1-.3 1.8.1 2.1 1.2.4 1.6.5 1.6.6 0 .1-2.2-1.1-2.9-2.9-1.6zM663.3 692.5c0 .8.4 1.2.9.9.4-.3.8-.9.8-1.5 0-.5-.4-.9-.8-.9-.5 0-.9.7-.9 1.5zM240.3 692.7c-.7.3-1.3.8-1.3 1.3 0 1 2.4.7 2.8-.4.5-1.1-.1-1.4-1.5-.9zM655.6 694.3c.3 1 .9 1.5 1.2 1.2.3-.3 0-1.1-.7-1.8-1-.9-1.1-.8-.5.6zM649.5 695c-.3.6-1 .8-1.4.6-.4-.3-.8.4-.8 1.5-.1 1 .3 1.9.8 1.9.6 0 .8-.3.6-.8-.3-.4.1-1.3.9-1.9 1.5-1.5 2.3-.6 1.8 2-.1 1.1 0 1.6.4 1.3 1.1-1.2 1-3.5-.3-4.6-.9-.8-1.5-.8-2 0zM267.4 700.3c0 1.7.1 1.7 1.3.1.7-1 1.3-1.4 1.3-.8 0 .5 1.2 1.4 2.6 2.1 2 .9 2.3.9 1.6 0-.6-.7-1.1-1.7-1.1-2.2-.1-.6-1.3-1-2.9-1.1-2.1 0-2.8.5-2.8 1.9zM275.4 698.9c-.9.9-.3 2.1 1.1 2.1.8 0 1.5-.5 1.5-1.1 0-.6.7-.3 1.6.5.8.9 2.1 1.6 2.7 1.5.9 0 .8-.2 0-.6-2-.7-1.5-1.9.7-1.9 1.3 0 1.9.5 1.5 1.3-.4 1.1 0 1.1 1.8.2 2.8-1.5 3.7-2.4 1.5-1.6-.9.3-1.9.3-2.3-.1-.7-.8-9.4-1-10.1-.3zM306.6 698.8c-.3.5-1.4.9-2.4.7-.9-.1-2.5.1-3.4.6-.9.5-1.8.5-2-.1-.2-.5-1.4 0-2.8 1.1-2.1 1.7-2.2 1.9-.3 1 2.6-1.3 3.6-1.4 2.9-.3-.3.5.1.9.9.9s1.2-.4.9-.9c-.9-1.4 3.7-.2 4.7 1.3.8 1.1.9 1 .7-.5-.2-1 .3-2.1 1-2.3.6-.3 1 .1.9.9-.2.7-.2.9.1.4.3-.5 1.1.2 1.9 1.5 1.4 2.3 1.4 2.4.8.1-.5-1.6-.3-2.2.7-2 .7.2 1.2-.3 1-1-.1-.8.2-1.1.7-.7.6.3.7 1.3.4 2.2-.4 1.1-.3 1.4.5.9.7-.4 1.2-1.3 1.2-2.1 0-1.9-2.7-2.6-4.1-.9-1 1.2-1.3 1.2-2.4-.2-.8-1.1-1.4-1.3-1.9-.6zM394.6 698.7c-.4.4-2.2.8-3.9.8-1.8.1-3.8.4-4.4.8-.8.5-1.3.3-1.3-.3 0-.7-.5-1-1.1-.8-1.4.5-1.2 2.3.4 2.3.6 0 1.1.9.9 2-.2 1.9-.2 1.9.8.2.6-.9 1.6-1.4 2.2-1.1.7.4.8.2.4-.4-1.2-2 3.3-.8 5 1.4 1.5 1.8 1.5 1.8.5-.2-1-2.1-.6-3.4 1-3.4.5 0 .6.8.3 1.7-.5 1.5-.4 1.6.5.3s1.1-1.3 1.2 0c.1.8.1 1.9 0 2.3-.1.5.3.6.8.2.6-.3.8-1.2.4-2.1-.3-.9 0-1.4.8-1.2.8.2 1.3-.3 1.1-1-.1-.8.2-1.1.7-.7.6.3.7 1.3.4 2.3-.3.9-.3 1.4.2 1 .4-.4 1.5-.2 2.3.5 1.3 1.1 1.4.9.1-1.3-2-3.5-3.2-4.1-4.8-2.5-1.2 1.2-1.6 1.2-2.5-.1-.7-.8-1.5-1.1-2-.7zM418.6 698.8c-.4.7-.3 1.2.3 1.2s.9.6.7 1.2c-.1.7-.1.9.2.4.3-.5 1.1.2 1.9 1.5 1.4 2.3 1.4 2.4.8.1-.5-1.6-.3-2.2.7-2 .7.2 1.2-.3 1-1-.1-.8.2-1.1.7-.7.6.3.7 1.3.4 2.3-.3.9-.3 1.4.2 1 .4-.4 1.5-.2 2.3.5 1.3 1.1 1.4.9.1-1.3-2-3.5-3.2-4.1-4.8-2.5-1.2 1.2-1.6 1.2-2.6-.2-.9-1.1-1.4-1.3-1.9-.5zM458.6 698.8c-.4.7-.3 1.2.3 1.2s.9.6.7 1.2c-.1.7-.1.9.2.5.2-.4 1 0 1.8 1 1.3 1.7 1.4 1.7.8 0-.4-1.2-.2-1.7.7-1.5.8.2 1.3-.3 1.1-1-.1-.8.2-1.1.7-.7.6.3.7 1.3.4 2.3-.3.9-.3 1.4.2 1 .4-.4 1.5-.2 2.3.5 1.3 1.1 1.4.9.1-1.3-2-3.5-3.2-4.1-4.8-2.5-1.2 1.2-1.6 1.2-2.6-.2-.9-1.1-1.4-1.3-1.9-.5zM482.6 698.8c-.4.7-.3 1.2.3 1.2s.9.6.7 1.2c-.1.7-.1.9.2.5.2-.4 1 0 1.8 1 1.3 1.7 1.4 1.7.8 0-.4-1.2-.2-1.7.7-1.5.8.2 1.3-.3 1.1-1-.1-.8.2-1.1.7-.7.6.3.7 1.3.4 2.3-.3.9-.3 1.4.2 1 .4-.4 1.5-.2 2.3.5 1.3 1.1 1.4.9.1-1.3-2-3.5-3.2-4.1-4.8-2.5-1.2 1.2-1.6 1.2-2.6-.2-.9-1.1-1.4-1.3-1.9-.5zM522.6 698.8c-.4.7-.3 1.2.3 1.2s.8.8.5 1.7c-.5 1.5-.4 1.6.5.3s1.1-1.3 1.2 0c.1.8.1 1.9 0 2.3-.1.5.3.6.8.2.6-.3.8-1.2.4-2.1-.3-.9 0-1.4.8-1.2.8.2 1.3-.3 1.1-1-.1-.8.2-1.1.7-.7.6.3.7 1.3.4 2.3-.3.9-.3 1.4.2 1 .4-.4 1.5-.2 2.3.5 1.3 1.1 1.4.9.1-1.3-2-3.5-3.2-4.1-4.8-2.5-1.2 1.2-1.6 1.2-2.6-.2-.9-1.1-1.4-1.3-1.9-.5zM546.6 698.8c-.4.7-.3 1.2.3 1.2s.9.6.7 1.2c-.1.7-.1.9.2.4.3-.5 1.1.2 1.9 1.5 1.4 2.3 1.4 2.4.8.1-.5-1.6-.3-2.2.7-2 .7.2 1.2-.3 1-1-.1-.8.2-1.1.7-.7.6.3.7 1.3.4 2.3-.3.9-.3 1.4.2 1 .4-.4 1.5-.2 2.3.5 1.3 1.1 1.4.9.1-1.3-2-3.5-3.2-4.1-4.8-2.5-1.2 1.2-1.6 1.2-2.6-.2-.9-1.1-1.4-1.3-1.9-.5zM604.4 698.8c-.5.4-1 1.8-1.1 3.2-.1 1.4.1 2 .4 1.3.2-.7 1.2-.9 2.1-.6 1.3.4 1.2.2-.3-1-2-1.6-2-1.6.2-1.2 1.2.2 3.2.9 4.4 1.5 1.2.7 1.9.8 1.5.2-.3-.5.2-1.3 1.1-1.6 1.2-.5 1.3-1 .6-1.7-1.3-1.3-3.6-.2-2.8 1.2.4.5.1.9-.4.9-.6 0-1.1-.5-1.1-1.2 0-.6-.3-.8-.7-.5-.3.4-1.1.3-1.7-.3-.7-.5-1.6-.6-2.2-.2zM629.5 699c-.4.6-1.1.8-1.6.5-.5-.4-.9-.1-.9.4 0 1.7 2.7 1.3 3.4-.4.6-1.7 0-2-.9-.5zM316.3 700c.2.8 1 1.4 1.6 1.2.6-.1 1.1.2 1.1.8 0 1.5 9.3.7 9.8-.9.3-1 0-1.2-1.1-.8-.9.3-1.8.3-2-.1-.2-.4-.2-.1-.1.5.2.7-.3 1.3-1.1 1.3-.9 0-1.2-.6-.8-1.8.5-1.4.3-1.4-1 .3-1.3 1.6-1.7 1.7-3.1.6-.9-.7-1.6-1-1.6-.5s-.5.2-1.1-.6c-.9-1.3-1-1.3-.6 0zM597 700.2c0 .5-.7.8-1.5.5-.8-.4-1.7-.1-2.1.5-.4.7-.3.8.4.4s1.2-.2 1.2.4c0 .6.5.8 1 .5.6-.3 1.3.1 1.6 1 .6 1.5.8 1.4 2.5-.1 1-.9 1.6-2.1 1.3-2.8-.6-1.5-4.4-1.9-4.4-.4zm3.2 2c-1.2 1.2-3.5.1-2.7-1.2.3-.5 1.3-.6 2.1-.3 1 .4 1.2.9.6 1.5zM292.5 701.1c-.4.6-.5 1.2-.2 1.5.2.3.7-.2 1-1.1.7-1.7.1-2-.8-.4z"/><path d="M269.3 703.5c0 .8.4 1.2.9.9.5-.3.6-1 .3-1.5-.9-1.3-1.2-1.1-1.2.6zM287 702.3c0 .2.6 1 1.4 1.6 1.1.9 1.6.9 2.2-.1.4-.7.4-1-.1-.6-.4.4-1.4.3-2.2-.3-.7-.6-1.3-.9-1.3-.6zM587 703c-.8.5-1.2 1.2-.9 1.5.4.3 1.2-.1 1.9-1 1.4-1.7 1.1-1.9-1-.5zM281.6 704.2c.3.5 1 .6 1.5.3 1.3-.9 1.1-1.2-.6-1.2-.8 0-1.2.4-.9.9zM314.5 704c-.3.6.1.7.9.4 1.8-.7 2.1-1.4.7-1.4-.6 0-1.3.4-1.6 1zM329.5 704c.3.5.8 1 1.1 1 .2 0 .4-.5.4-1 0-.6-.5-1-1.1-1-.5 0-.7.4-.4 1zM345.5 704c.3.5.8 1 1.1 1 .2 0 .4-.5.4-1 0-.6-.5-1-1.1-1-.5 0-.7.4-.4 1zM361.5 704c.3.5.8 1 1.1 1 .2 0 .4-.5.4-1 0-.6-.5-1-1.1-1-.5 0-.7.4-.4 1zM377.5 704c.3.5.8 1 1.1 1 .2 0 .4-.5.4-1 0-.6-.5-1-1.1-1-.5 0-.7.4-.4 1zM381.6 704.2c.3.5 1 .6 1.5.3 1.3-.9 1.1-1.2-.6-1.2-.8 0-1.2.4-.9.9zM502.5 704c-.3.6.1.7.9.4 1.8-.7 2.1-1.4.7-1.4-.6 0-1.3.4-1.6 1z"/></svg>